<svg id="svg" xmlns="http://www.w3.org/2000/svg" xmlns:xlink="http://www.w3.org/1999/xlink" width="400" height="400" viewBox="0, 0, 400,400"><g id="svgg"><path id="path0" d="M203.733 53.061 C 197.842 53.837,186.231 55.868,185.067 56.327 C 184.627 56.500,182.587 57.081,180.533 57.618 C 161.778 62.525,138.022 73.939,124.516 84.533 C 114.961 92.028,104.137 101.754,99.093 107.376 C 85.217 122.845,60.192 161.150,37.009 202.408 C 33.329 208.958,29.957 214.456,29.517 214.625 C 29.061 214.800,25.938 213.319,22.256 211.181 C 16.257 207.699,14.400 207.078,14.400 208.554 C 14.400 209.844,34.888 247.585,35.944 248.239 C 37.176 249.004,83.640 250.583,84.748 249.899 C 86.064 249.086,85.039 248.013,78.946 243.830 C 69.938 237.645,69.231 240.985,85.095 214.806 C 102.014 186.886,101.568 187.386,99.949 198.172 C 98.749 206.166,99.152 212.993,102.089 234.400 C 104.347 250.857,110.039 290.533,110.662 294.159 C 111.159 297.051,110.264 297.550,101.305 299.382 C 89.067 301.884,88.579 301.477,114.931 310.753 C 127.771 315.274,137.236 318.332,137.864 318.165 C 138.452 318.008,146.613 311.971,156.000 304.749 C 165.387 297.526,173.492 291.317,174.012 290.950 C 176.733 289.029,174.644 288.411,166.723 288.792 C 160.810 289.077,158.996 289.001,158.249 288.438 C 157.255 287.690,151.311 258.630,151.859 257.200 C 152.338 255.949,153.332 256.559,155.125 259.202 C 173.012 285.573,203.772 295.624,234.904 285.270 C 257.952 277.606,279.795 256.100,285.490 235.467 C 286.218 232.827,286.899 230.427,287.002 230.133 C 287.238 229.465,282.331 219.918,281.483 219.394 C 279.952 218.448,276.337 218.849,276.048 219.997 C 275.894 220.611,274.494 222.542,272.936 224.290 C 270.877 226.600,269.604 228.734,268.270 232.111 C 267.199 234.825,266.274 236.495,266.047 236.127 C 265.580 235.371,265.682 235.230,263.805 239.200 C 257.585 252.353,246.427 262.237,232.800 266.663 C 230.747 267.330,228.827 268.052,228.533 268.267 C 225.559 270.454,204.666 270.472,201.867 268.291 C 201.573 268.062,199.653 267.330,197.600 266.663 C 183.976 262.237,172.856 252.390,166.587 239.200 C 165.751 237.440,164.900 235.924,164.697 235.832 C 164.493 235.740,164.459 235.320,164.620 234.899 C 164.782 234.478,164.676 234.133,164.386 234.133 C 164.095 234.133,163.739 233.593,163.593 232.933 C 163.448 232.273,162.935 230.293,162.455 228.533 C 159.894 219.151,161.115 199.281,164.376 197.266 C 164.684 197.075,164.784 196.673,164.598 196.372 C 164.412 196.071,164.442 195.744,164.663 195.646 C 164.885 195.547,165.752 194.027,166.590 192.267 C 171.899 181.119,180.079 172.756,190.667 167.656 C 193.013 166.525,195.058 165.435,195.211 165.233 C 195.825 164.422,204.985 162.171,209.910 161.622 C 217.488 160.777,233.553 163.072,235.189 165.233 C 235.342 165.435,237.387 166.525,239.733 167.656 C 253.465 174.271,263.389 186.796,268.040 203.380 C 271.855 216.981,272.366 217.662,278.716 217.595 C 281.036 217.570,306.213 217.424,334.667 217.269 C 395.102 216.941,388.269 217.946,388.262 209.384 C 388.246 188.645,380.935 161.452,369.546 139.769 C 357.334 116.518,335.499 92.394,314.289 78.722 C 282.329 58.120,239.969 48.287,203.733 53.061 " stroke="none" fill="#000000" fill-rule="evenodd"></path></g></svg>