<svg width="95" height="95" xmlns="http://www.w3.org/2000/svg">
 <g>
  <title>background</title>
  <rect x="-1" y="-1" width="97" height="97" id="canvas_background" fill="none"/>
 </g>

 <g>
  <title>Europe</title>
  <polygon points="82.3670881986618,92.02947229146957 81.36065661907196,92.00454705953598 81.16135394573212,92.41806787252426 81.06175220012665,92.42803186178207 80.39911639690399,92.48781579732895 80.72290790081024,93.17039483785629 81.40550220012665,93.38959497213364 82.8403776884079,92.70205682516098 82.79553210735321,92.56752008199692 82.69587695598602,92.24869531393051 83.63754260540009,91.52127069234848 " id="svg_1"/>
  <polygon points="50.57077395915985,50.75206369161606 50.76507556438446,51.773410737514496 52.22482669353485,53.148498475551605 53.06188189983368,51.170566499233246 52.618430972099304,49.925014436244965 " id="svg_2"/>
  <polygon points="27.543071627616882,51.89294046163559 28.295392870903015,50.72711557149887 28.75376307964325,51.409667909145355 28.24563777446747,52.50574487447739 28.579431414604187,53.163417756557465 30.273370623588562,53.58690255880356 30.293290972709656,53.6217879652977 31.229955554008484,55.091545045375824 31.025693774223328,56.4566268324852 28.948110461235046,56.2473868727684 28.684038043022156,57.77192682027817 29.45128047466278,59.00752252340317 27.991525530815125,59.71001809835434 28.38508403301239,60.60678857564926 30.567323565483093,60.98044961690903 30.577237963676453,60.98044961690903 29.326749682426453,61.46372216939926 27.279046893119812,63.77546685934067 28.02140986919403,64.20891565084457 29.00291621685028,63.376884400844574 30.293290972709656,63.62599176168442 31.214990496635437,62.599662721157074 31.867612719535828,63.03311151266098 34.24415194988251,62.43026727437973 36.11246860027313,62.45021051168442 37.36796176433563,61.289367616176605 36.809985995292664,60.12852090597153 37.52241885662079,59.465915620326996 37.69184100627899,58.00611490011215 35.99785602092743,57.567687928676605 35.599292635917664,56.650974214076996 34.73735797405243,53.95560449361801 33.78077685832977,53.5719832777977 32.535247683525085,50.68729394674301 32.42563235759735,50.42823022603989 30.980802416801453,50.268791139125824 32.23629176616669,48.01184839010239 32.60001361370087,45.9093856215477 31.070493578910828,45.89444726705551 29.645578265190125,46.25316232442856 31.14026439189911,43.39835733175278 29.466195940971375,43.60261911153793 28.35019862651825,43.39335244894028 27.264083743095398,45.540683686733246 26.755910754203796,48.21112817525864 27.46338641643524,49.50150674581528 " id="svg_3"/>
  <polygon points="71.33155047893524,92.06433099508286 70.29028308391571,91.94475549459457 69.20416247844696,92.03942865133286 68.44183337688446,91.4614867568016 68.18286120891571,92.19388574361801 69.8867644071579,92.52767938375473 69.8718489408493,92.80669397115707 71.88461291790009,92.6621932387352 72.05895221233368,92.15898126363754 71.29671466350555,92.36326593160629 " id="svg_4"/>
  <path d="m43.257003,43.52789l1.93313,1.35019l1.86337,-0.61781l2.76013,-3.12381l0.9307,1.65846l-0.00414,0.01055l1.06115,3.73665l1.17085,2.89464l0.4434,2.34664l1.61922,-0.11459l0.79216,-1.96798l1.69394,0.24413l0.79217,-2.37154l0.53309,-4.40424l1.4548,-0.62775l1.28046,-3.10391l-1.33527,-1.56441l-0.99642,-2.02774l1.0213,-4.19l2.69542,-2.66048l2.22203,-2.55588l-0.21922,-2.00283l1.35518,-2.33665l2.40142,-0.96655l1.943,1.60428l0.14946,1.41492l-0.93657,0.69252l-3.19363,3.49751l-1.26549,1.96297l-0.66759,1.78361l0.67759,2.69537l-0.30892,2.8498l1.35015,0.93168l0.81212,1.52953l2.27189,-0.58791l2.45622,-1.03128l2.53591,-0.22421l2.98936,-3.69179l1.29534,-1.71887l0.5281,-1.54448l-2.06763,-2.12241l0.57294,-2.06262l-1.26045,-2.42134l0.94162,-2.86974l-1.62422,-3.96581l1.29043,-2.73023l-2.14231,-2.48612l1.33518,-3.04909l2.37649,-1.58933l-1.52952,-2.54589l1.79859,-1.11102l-4.36938,-3.10889l-2.50589,0.86691l-2.54592,-0.18932l-2.12739,3.48253l-2.2968,-0.2192l-3.06405,1.78859l-3.84124,4.92739l-2.34166,2.8249l-3.358,6.85547l-2.55587,4.63344l-2.76014,3.28327l-3.68679,2.58075l-1.28542,1.93308l0.44341,6.60639l0.49821,2.91955zm15.51449,-29.56923l0.01084,0.00012l-0.01084,-0.00007l0,-0.00005z" id="svg_5"/>
  <polygon points="48.229122042655945,81.3576278090477 48.692447543144226,79.91777795553207 48.45835101604462,78.29357904195786 47.556575655937195,79.01602166891098 47.27258288860321,79.71849817037582 47.59641635417938,80.9789656996727 " id="svg_6"/>
  <polygon points="23.378013491630554,60.442417085170746 25.854181170463562,59.10717386007309 26.910369753837585,57.05451196432114 26.681230425834656,55.38051599264145 27.428502917289734,53.74138253927231 25.93386447429657,52.251701295375824 24.76306140422821,52.35135644674301 24.758058428764343,52.346374452114105 23.70186984539032,53.47731393575668 21.8036230802536,55.34563058614731 22.531043887138367,57.72212594747543 21.400081515312195,60.10361856222153 " id="svg_7"/>
  <polygon points="55.95650851726532,87.20668786764145 54.53159320354462,87.40101617574692 52.89741885662079,87.24157708883286 52.70311725139618,88.14833062887192 54.6511687040329,89.04014581441879 55.36360156536102,89.22946923971176 56.42979419231415,89.8821410536766 56.72379291057587,88.99032586812973 56.514530062675476,88.44726556539536 57.0177458524704,87.0622176527977 " id="svg_8"/>
  <polygon points="47.51168429851532,82.24942010641098 46.74444568157196,82.15477746725082 47.06332004070282,83.20102685689926 47.118125796318054,85.38321679830551 47.646175265312195,85.8565291762352 48.2141569852829,85.25866693258286 48.84690463542938,85.37326043844223 49.04120624065399,82.97684472799301 48.20424258708954,81.67150110006332 " id="svg_9"/>
  <polygon stroke="null" points="15.067726016044617,19.578536927700043 12.751019358634949,19.329431474208832 10.474155306816101,21.177806794643402 8.715448260307312,20.20130342245102 6.593042731285095,22.069621980190277 4.415808081626892,19.737976014614105 2.2983821630477905,20.25112909078598 1.3567403554916382,22.47816652059555 4.286274313926697,23.260370194911957 4.346061110496521,24.241853654384613 1.8748968839645386,24.879583299160004 4.91401994228363,26.473895967006683 3.538956046104431,27.88882440328598 7.4350093603134155,28.890230119228363 9.273446917533875,29.353578507900238 10.47911250591278,28.780641496181488 14.509727358818054,26.59842485189438 16.323217272758484,24.10235971212387 14.748849749565125,21.81055635213852 " id="svg_10"/>
  <polygon stroke="null" points="91.32504260540009,65.61888879537582 91.3100813627243,64.98616021871567 89.2524641752243,64.28866571187973 88.43537127971649,64.30858606100082 87.57344043254852,63.29224389791489 86.50228869915009,63.635978639125824 84.72861468791962,62.8687362074852 84.75854480266571,62.43528741598129 84.26033008098602,61.47372430562973 83.14428699016571,61.36909478902817 83.02971637248993,60.67658227682114 83.37847888469696,60.218234956264496 82.48666369915009,58.937797486782074 81.03678119182587,59.15702050924301 80.61334216594696,59.04242700338364 80.25957477092743,59.56056207418442 79.74144732952118,59.465915620326996 79.39768970012665,58.00611490011215 79.06890094280243,57.2388533949852 79.33788287639618,57.019653260707855 80.46388232707977,57.099357545375824 81.00694262981415,56.591186463832855 80.60337817668915,55.96839898824692 79.66171252727509,55.554897248744965 79.74644458293915,55.126430451869965 79.17846667766571,54.69296258687973 78.30161273479462,53.12357324361801 78.60052478313446,52.46594613790512 78.46603381633759,51.315063416957855 77.10092914104462,50.72716134786606 76.36853015422821,51.02111428976059 76.16922748088837,50.40830606222153 74.69946277141571,49.780517518520355 74.24610126018524,48.290859162807465 74.13148486614227,47.05030816793442 73.45893847942352,46.457424104213715 74.05675494670868,45.63037484884262 73.64327991008759,43.15921014547348 74.63474261760712,41.59480661153793 74.42548358440399,41.11651223897934 72.98064410686493,41.201225221157074 71.4660872220993,40.74287790060043 69.70733630657196,41.14641946554184 67.93866717815399,41.90867608785629 68.06323993206024,43.45814508199692 68.95005786418915,44.40476602315903 69.46323382854462,44.070949494838715 69.29881274700165,45.62539666891098 69.02973926067352,47.61328881978989 67.90878283977509,47.663112580776215 66.80270373821259,45.73002618551254 65.4874495267868,46.61686319112778 64.79989612102509,48.23109430074692 64.75009143352509,50.12929528951645 65.0489958524704,52.201877534389496 66.50879657268524,52.630344331264496 67.12657916545868,53.01398462057114 66.97712695598602,53.67661660909653 67.0916975736618,54.284416139125824 64.52085864543915,54.324306428432465 62.80203998088837,54.05027383565903 61.45185077190399,54.02039331197739 61.34724414348602,53.43249124288559 59.95716845989227,53.02392190694809 58.19350802898407,53.84103387594223 56.0162695646286,54.94707101583481 55.05973422527313,55.63958352804184 54.402061343193054,54.887260377407074 52.82273471355438,53.945644319057465 52.040531039237976,54.59831231832504 50.620574831962585,55.04669946432114 50.63553988933563,54.19972985982895 49.22058856487274,53.64173120260239 49.195709109306335,52.70509332418442 48.81706988811493,51.514343202114105 49.823455691337585,49.725734651088715 50.236934542655945,49.99976342916489 50.5807341337204,49.05314248800278 49.823455691337585,48.67445749044418 49.65407931804657,47.96202081441879 50.06755816936493,47.125034272670746 50.11740863323212,45.78979104757309 48.99144732952118,46.5221671462059 48.50315082073212,47.23462671041489 47.27258288860321,47.39406198263168 46.87402331829071,48.1613273024559 46.639835238456726,48.84885782003403 46.679675936698914,51.399753510951996 47.24765765666962,52.75489419698715 47.312427401542664,54.12500375509262 47.63130176067352,55.016818940639496 46.679675936698914,56.17766183614731 46.42061221599579,55.65952676534653 45.254810214042664,55.789062440395355 44.980777621269226,56.28727334737778 43.819934725761414,56.222507417201996 41.91172778606415,57.194030702114105 40.686118960380554,60.552028596401215 39.96868121623993,61.16981500387192 38.850067019462585,61.60732263326645 38.84768283367157,61.598258912563324 37.62702929973602,62.046623170375824 37.208545565605164,63.845214784145355 33.955203890800476,65.52419275045395 32.63489902019501,64.60247033834457 33.078304171562195,67.01387017965317 30.731740832328796,66.47079461812973 28.918180346488953,66.9291610121727 29.057721972465515,68.45870965719223 31.195070147514343,69.25587457418442 32.22637736797333,70.29711908102036 33.66620624065399,72.41954797506332 33.402183413505554,76.34551233053207 32.67979037761688,77.50137323141098 32.67979037761688,77.50640100240707 30.422826647758484,77.44660943746567 29.26198375225067,77.54626458883286 27.7772616147995,77.21743005514145 25.898980975151062,77.23236840963364 24.19007670879364,76.88363641500473 22.21717059612274,78.26370233297348 22.78512942790985,79.09072870016098 22.715383410453796,80.42594903707504 22.775169253349304,81.05371850728989 23.054180026054382,81.72132867574692 23.08904254436493,82.50353235006332 22.795089602470398,83.60459131002426 22.695438265800476,84.33699029684067 22.142419695854187,84.98963922262192 22.027828097343445,86.16542047262192 22.361644625663757,86.83801263570786 22.989391207695007,87.00245660543442 23.11892306804657,88.08856958150864 22.904680132865906,89.4536742568016 23.627118945121765,89.26435083150864 24.364499926567078,89.50847619771957 24.922475695610046,89.0551146864891 26.2278174161911,89.32414239645004 26.6263769865036,90.32056421041489 27.13955295085907,90.90348809957504 27.82710826396942,91.04798883199692 28.360204577445984,90.39531701803207 29.232053637504578,89.78749078512192 30.567323565483093,89.81737512350082 32.33599078655243,89.79244989156723 33.327457308769226,88.45224756002426 34.38364398479462,88.10350793600082 34.682552218437195,86.95761102437973 35.489681124687195,86.16043847799301 34.94667041301727,85.13909143209457 35.48472583293915,83.66437524557114 36.34665668010712,82.65300744771957 36.471187472343445,82.03520196676254 38.25977694988251,81.64659875631332 39.585086703300476,80.40602868795395 39.66476809978485,78.16898339986801 41.69746005535126,77.55122369527817 44.452640414237976,78.06935113668442 46.31104266643524,76.85871118307114 47.118125796318054,75.96191400289536 47.76083743572235,75.69784539937973 48.89680087566376,76.34055322408676 49.59431445598602,76.5647582411766 50.02776324748993,78.45797723531723 50.979339480400085,79.54907220602036 52.25475299358368,80.76972955465317 53.345874667167664,81.60673516988754 54.377227663993835,81.72628778219223 54.98004901409149,82.46865075826645 55.87682330608368,82.80244439840317 56.290393710136414,83.58962243795395 56.868289828300476,83.8188094496727 57.29673373699188,84.73054498434067 57.83983600139618,85.77182000875473 57.5359228849411,86.15544122457504 57.25193393230438,87.10704034566879 57.24697482585907,87.64511865377426 57.829830050468445,87.5105819106102 58.5771940946579,85.98606103658676 59.16009509563446,85.8814315199852 59.324512362480164,84.94477075338364 58.313079714775085,84.2771605849266 58.90098178386688,83.10137170553207 60.11663043498993,83.40030664205551 60.89387500286102,84.2472762465477 61.15299212932587,83.59460443258286 61.00849139690399,83.25582879781723 59.812766909599304,82.29924768209457 58.7864111661911,81.74122613668442 57.535877108573914,81.06865686178207 57.92943561077118,80.69998162984848 57.59068286418915,80.28645318746567 56.49460971355438,80.29641717672348 54.94016253948212,78.77685540914536 54.23768985271454,77.19748681783676 52.927390933036804,76.22595971822739 52.46902072429657,75.23451226949692 52.638397097587585,74.67651361227036 52.558711886405945,73.6950301527977 53.694583773612976,72.98753350973129 54.80567157268524,73.27650445699692 54.496753573417664,73.45588678121567 54.44690692424774,73.48577111959457 54.4120215177536,74.17332452535629 54.82554614543915,74.83592981100082 55.25403583049774,73.98397821187973 56.15085208415985,74.29290002584457 56.18069064617157,74.96048730611801 56.818443179130554,75.77759546041489 56.53440463542938,75.92704766988754 57.71021258831024,77.3469848036766 58.98567187786102,77.91491693258286 59.797752261161804,78.6024779677391 61.10810077190399,79.2999877333641 61.71592700481415,79.67362970113754 62.104522585868835,80.28645318746567 62.39847552776337,80.43095391988754 62.63262164592743,80.72488397359848 62.44327533245087,81.30282586812973 62.32374560832977,82.5633162856102 62.44327533245087,83.43518823385239 63.22051990032196,84.04799646139145 63.245445132255554,84.44657891988754 63.57427966594696,85.10918420553207 64.2817610502243,85.68212884664536 64.19707477092743,86.00099939107895 64.2867659330368,86.12553399801254 64.82981860637665,86.94261926412582 65.4376448392868,86.91771692037582 66.06038653850555,86.77822870016098 66.3393782377243,86.87289422750473 66.80775439739227,86.91274255514145 66.61340320110321,87.22163385152817 66.3393782377243,87.1369246840477 66.00062549114227,86.90776056051254 65.70667254924774,86.98746484518051 65.58209979534149,87.19174951314926 65.30310809612274,87.14189904928207 65.12372577190399,87.38107293844223 64.83477771282196,87.64013665914536 65.07892596721649,88.10846704244614 65.28814685344696,88.15331262350082 65.49240863323212,88.34263604879379 65.67173755168915,88.71128839254379 65.41267383098602,88.99527734518051 65.60202014446259,89.4984969496727 65.91088855266571,89.76754754781723 66.03541553020477,89.63303369283676 65.97565448284149,89.21450799703598 66.29453265666962,89.21450799703598 66.57351672649384,89.73268121480942 66.52371203899384,90.10134118795395 66.74789416790009,90.2508162856102 66.87743365764618,89.59314721822739 67.16146838665009,89.60310357809067 67.38565051555634,90.2258910536766 67.67464435100555,90.2258910536766 67.07673633098602,88.25791925191879 67.57494342327118,88.60167688131332 68.03331744670868,88.50702661275864 67.61978900432587,87.61022943258286 68.23757922649384,87.50562280416489 68.91516864299774,88.07855981588364 68.89524829387665,87.08213800191879 68.20269000530243,86.56898492574692 67.42549121379852,85.74691766500473 67.95358264446259,85.35330957174301 67.25607287883759,84.50633996725082 66.94219958782196,83.4202269911766 67.20626819133759,83.02164453268051 67.9436262845993,83.95830529928207 68.72082507610321,83.95830529928207 69.42829883098602,83.66435235738754 68.46176135540009,82.63804620504379 70.15570056438446,82.1597518324852 70.88314044475555,82.33411401510239 71.72010791301727,82.76760095357895 72.15855395793915,83.61952966451645 73.32440173625946,82.63304132223129 73.92217242717743,82.06012719869614 75.5813215970993,81.96049493551254 75.83538806438446,81.50711053609848 74.61473071575165,80.9092406630516 74.45031726360321,80.19180291891098 74.44490039348602,80.19068139791489 73.9969938993454,79.11565393209457 74.50521075725555,77.75553125143051 75.2325667142868,76.9633406996727 75.62116229534149,74.61672967672348 76.04464709758759,74.79608911275864 76.72224414348602,74.37758630514145 76.69235980510712,73.86443322896957 77.77347552776337,72.39467614889145 78.29161059856415,71.2836303114891 79.58703601360321,71.03452295064926 79.68167865276337,71.78684991598129 81.85391223430634,72.29502099752426 82.07313525676727,72.40463250875473 82.29731738567352,72.20034784078598 82.49662005901337,72.60391229391098 80.92221057415009,73.41602319478989 80.67314898967743,73.79966729879379 82.19766986370087,74.37758630514145 81.89375293254852,75.29928582906723 82.66600024700165,75.69288629293442 84.56420123577118,74.56192773580551 86.09371936321259,74.22312921285629 86.36775195598602,73.51567071676254 84.94288623332977,73.63524621725082 84.26033008098602,73.15695184469223 83.51792895793915,72.42457574605942 84.17559802532196,71.91139978170395 85.38128650188446,71.15412133932114 86.68663012981415,71.04949182271957 87.61828601360321,70.39183801412582 88.73432910442352,70.22742456197739 88.77912890911102,69.31568139791489 89.49656665325165,68.73776239156723 90.84671008586884,68.58330529928207 91.06593310832977,67.89079278707504 90.76206195354462,66.72994989156723 " id="svg_11"/>
  <path fill="#999999" stroke-width="null" stroke-opacity="null" fill-opacity="null" d="m73.550373,70.93013l2.54951,-1.32767l-2.54951,-1.32715l-2.55005,-1.32666l0,1.47588c-0.66893,-0.00099 -1.77748,-0.00099 -2.09174,-0.00099c-0.92852,-0.01997 -1.53795,-0.282 -2.17214,-0.75118c-0.94527,-0.70026 -1.75202,-1.96054 -2.72497,-3.17489c-0.49484,-0.60393 -1.04615,-1.20288 -1.78039,-1.68452c-0.7269,-0.48366 -1.6766,-0.81906 -2.7323,-0.81257l-4.57579,0l0,2.35784l4.57579,0c0.63627,0.01048 1.03895,0.19765 1.58818,0.66183c0.81257,0.69029 1.60479,2.00995 2.69743,3.26025c1.07078,1.23831 2.71847,2.48861 5.10828,2.50059l2.10765,0l0,1.47588l2.55005,-1.32664zm-10.78598,-8.92975c0.02893,0.01847 0.05951,0.03443 0.08774,0.05341c0.87207,0.57198 1.50183,1.27375 2.00027,1.88417c0.11458,0.14274 0.21615,0.28 0.32492,0.42026l5.823,0l0,1.47639l2.55005,-1.32666l2.54951,-1.32715l-2.54951,-1.32766l-2.55005,-1.32816l0,1.4754l-8.23593,0z" id="svg_13" transform="rotate(34.41142654418945 65.51143646240234,66.39087677001953) " stroke="null"/>
  <path fill="#999999" stroke="null" stroke-width="null" stroke-opacity="null" fill-opacity="null" d="m54.406493,72.21674l2.48667,-1.43352l2.48536,-1.43411l-2.48668,-1.43512l-2.48535,-1.43401l0,1.59479c-0.60919,0 -1.31708,0 -1.55424,0c-1.13072,0.03185 -2.52632,-0.85792 -4.01106,-2.00493c-0.55348,-0.40217 -1.11188,-0.84463 -1.70371,-1.24415c0.59183,-0.40001 1.14943,-0.84196 1.70371,-1.24412c1.48474,-1.14542 2.88034,-2.03678 4.0096,-2.00438l1.55569,-0.00053l0,1.59693l2.48536,-1.43459l2.48668,-1.43569l-2.48668,-1.43723l-2.48536,-1.43513l0,1.59592l-1.55489,0c-2.30947,0.03232 -4.03546,1.40383 -5.54579,2.51849c-1.49934,1.17621 -2.84705,2.06169 -3.62867,2.00439l-4.45885,0l0,2.5477l4.46031,0c0.78095,-0.05786 2.12934,0.8282 3.62853,2.00437c1.50968,1.11523 3.235,2.48559 5.54513,2.51851l1.55424,0l0,1.59641l0,0l0,0z" id="svg_14" transform="rotate(139.30905151367188 49.29840469360351,64.8238525390625) "/>
  <path fill="#999999" stroke="null" stroke-width="null" stroke-opacity="null" fill-opacity="null" d="m-20.041257,3.93463l0.17207,-0.09919l0.17198,-0.09924l-0.17207,-0.0993l-0.17198,-0.09923l0,0.11036c-0.04215,0 -0.09113,0 -0.10754,0c-0.07824,0.0022 -0.17481,-0.05937 -0.27755,-0.13874c-0.0383,-0.02783 -0.07694,-0.05844 -0.11789,-0.08609c0.04095,-0.02768 0.07953,-0.05826 0.11789,-0.08609c0.10274,-0.07925 0.19931,-0.14093 0.27745,-0.13869l0.10764,-0.00004l0,0.11051l0.17198,-0.09927l0.17207,-0.09935l-0.17207,-0.09945l-0.17198,-0.0993l0,0.11043l-0.10759,0c-0.1598,0.00224 -0.27924,0.09714 -0.38374,0.17427c-0.10375,0.08139 -0.19701,0.14266 -0.25109,0.13869l-0.30853,0l0,0.17629l0.30863,0c0.05404,-0.004 0.14734,0.05731 0.25108,0.1387c0.10446,0.07716 0.22385,0.17199 0.3837,0.17427l0.10754,0l0,0.11046l0,0l0,0z" id="svg_15"/>
 </g>
</svg>