<svg width="512" height="512" xmlns="http://www.w3.org/2000/svg">

 <g>
  <title>background</title>
  <rect fill="none" id="canvas_background" height="402" width="582" y="-1" x="-1"/>
 </g>
 <g>
  <title>Layer 1</title>
  <g id="svg_1">
   <g id="svg_2">
    <path id="svg_3" d="m106,241l-31,0c-8.284,0 -15,6.716 -15,15s6.716,15 15,15l31,0c8.284,0 15,-6.716 15,-15s-6.716,-15 -15,-15z"/>
   </g>
  </g>
  <g id="svg_4">
   <g id="svg_5">
    <path id="svg_6" d="m436,241l-30,0c-8.284,0 -15,6.716 -15,15s6.716,15 15,15l30,0c8.284,0 15,-6.716 15,-15s-6.716,-15 -15,-15z"/>
   </g>
  </g>
  <g id="svg_7">
   <g id="svg_8">
    <path id="svg_9" d="m346,241l-30,0c-8.284,0 -15,6.716 -15,15s6.716,15 15,15l30,0c8.284,0 15,-6.716 15,-15s-6.716,-15 -15,-15z"/>
   </g>
  </g>
  <g id="svg_10">
   <g id="svg_11">
    <path id="svg_12" d="m196,241l-30,0c-8.284,0 -15,6.716 -15,15s6.716,15 15,15l30,0c8.284,0 15,-6.716 15,-15s-6.716,-15 -15,-15z"/>
   </g>
  </g>
  <g id="svg_13">
   <g id="svg_14">
    <path id="svg_15" d="m497,331c8.284,0 15,-6.716 15,-15l0,-120c0,-8.284 -6.716,-15 -15,-15l-166,0l0,-166c0,-8.284 -6.716,-15 -15,-15l-120,0c-8.284,0 -15,6.716 -15,15l0,15l-166,0c-8.284,0 -15,6.716 -15,15l0,61c0,8.284 6.716,15 15,15l166,0l0,60l-166,0c-8.284,0 -15,6.716 -15,15l0,120c0,8.284 6.716,15 15,15l166,0l0,166c0,8.284 6.716,15 15,15l120,0c8.284,0 15,-6.716 15,-15l0,-46l166,0c8.284,0 15,-6.716 15,-15l0,-60c0,-8.284 -6.716,-15 -15,-15l-166,0l0,-30l166,0zm-181,60l166,0l0,30l-166,0c-8.284,0 -15,6.716 -15,15l0,46l-90,0l0,-166c0,-8.284 -6.716,-15 -15,-15l-166,0l0,-90l166,0c8.284,0 15,-6.716 15,-15l0,-90c0,-8.284 -6.716,-15 -15,-15l-166,0l0,-31l166,0c8.284,0 15,-6.716 15,-15l0,-15l90,0l0,166c0,8.284 6.716,15 15,15l166,0l0,90l-166,0c-8.284,0 -15,6.716 -15,15l0,60c0,8.284 6.716,15 15,15z"/>
   </g>
  </g>
  <g id="svg_16">
   <g id="svg_17">
    <path id="svg_18" d="m256,151c-8.284,0 -15,6.716 -15,15l0,30c0,8.284 6.716,15 15,15s15,-6.716 15,-15l0,-30c0,-8.284 -6.716,-15 -15,-15z"/>
   </g>
  </g>
  <g id="svg_19">
   <g id="svg_20">
    <path id="svg_21" d="m256,60c-8.284,0 -15,6.716 -15,15l0,31c0,8.284 6.716,15 15,15s15,-6.716 15,-15l0,-31c0,-8.284 -6.716,-15 -15,-15z"/>
   </g>
  </g>
  <g id="svg_22">
   <g id="svg_23">
    <path id="svg_24" d="m256,301c-8.284,0 -15,6.716 -15,15l0,30c0,8.284 6.716,15 15,15s15,-6.716 15,-15l0,-30c0,-8.284 -6.716,-15 -15,-15z"/>
   </g>
  </g>
  <g id="svg_25">
   <g id="svg_26">
    <path id="svg_27" d="m256,391c-8.284,0 -15,6.716 -15,15l0,30c0,8.284 6.716,15 15,15s15,-6.716 15,-15l0,-30c0,-8.284 -6.716,-15 -15,-15z"/>
   </g>
  </g>
  <g id="svg_28">
   <g id="svg_29">
    <circle id="svg_30" r="15" cy="256" cx="256"/>
   </g>
  </g>
  <g id="svg_31"/>
  <g id="svg_32"/>
  <g id="svg_33"/>
  <g id="svg_34"/>
  <g id="svg_35"/>
  <g id="svg_36"/>
  <g id="svg_37"/>
  <g id="svg_38"/>
  <g id="svg_39"/>
  <g id="svg_40"/>
  <g id="svg_41"/>
  <g id="svg_42"/>
  <g id="svg_43"/>
  <g id="svg_44"/>
  <g id="svg_45"/>
 </g>
</svg>