<svg width="340" height="340" xmlns="http://www.w3.org/2000/svg">
 <!-- Created with Method Draw - http://github.com/duopixel/Method-Draw/ -->

 <g>
  <title>background</title>
  <rect fill="none" id="canvas_background" height="342" width="342" y="-1" x="-1"/>
  <g display="none" overflow="visible" y="0" x="0" height="100%" width="100%" id="canvasGrid">
   <rect fill="url(#gridpattern)" stroke-width="0" y="0" x="0" height="100%" width="100%"/>
  </g>
 </g>
 <g>
  <title>Layer 1</title>
  <!-- Created with Method Draw - http://github.com/duopixel/Method-Draw/ -->
  <g stroke="null" transform="matrix(0.6670385943938623,0,0,0.6670385943938623,-862.1267391717629,-658.9013156573201) " id="svg_30">
   <title stroke="null" transform="translate(-5.996654510498047,-7.495818138122559) translate(-14.991636276245117,-29.983272552490234) translate(-125.92974853515625,-79.45567321777344) translate(-2580.480224609375,-1592.52490234375) translate(4020.224365234375,0) translate(0,2693.1201171875) ">background</title>
   <rect stroke="null" x="1291.826101" y="982.660451" width="514" height="514" id="svg_28" fill="none"/>
   <g stroke="null" id="svg_27" display="none">
    <rect stroke="null" id="svg_31" width="580" height="400" x="1292.826101" y="983.660451" stroke-width="0" fill="url(#gridpattern)"/>
   </g>
  </g>
  <!-- generated by https://loading.io/ -->
  <path stroke="null" fill="rgb(51, 51, 51)" d="m213.468893,179.640446c0.364216,-2.913758 0.364216,-5.463293 0.364216,-7.648605c-1.092656,-8.012828 -4.006414,-16.025656 -8.377044,-22.581604c-0.728439,-1.456879 -2.185318,-3.642191 -2.549535,-6.555949c-0.728439,-5.09907 1.821095,-8.377044 3.277974,-10.562363c1.456879,-2.185318 2.549535,-4.006414 3.642191,-6.555949l-5.463293,-4.37063l-7.284388,-5.463293c-3.277974,-2.549535 -4.37063,-6.920172 -2.549535,-10.562363c1.092656,-2.185318 1.821095,-4.006414 2.549535,-6.191732c-1.821095,0.364216 -3.642191,0.728439 -5.09907,0.728439c-1.092656,2.185318 -2.913758,4.006414 -4.734853,5.463293c-1.456879,0.728439 -2.913758,1.456879 -4.734853,1.456879l-0.728439,0l-2.185318,-0.364216c-0.364216,0.364216 -1.092656,0.728439 -1.456879,1.092656c-1.092656,0.728439 -1.821095,1.092656 -1.821095,1.456879c-1.092656,3.277974 -4.37063,5.09907 -7.648605,5.09907l-1.456879,0l-0.364216,1.456879c-0.728439,2.549535 -2.549535,4.734853 -5.463293,5.463293c-4.734853,1.456879 -9.833923,5.463293 -11.290802,11.290802c-0.364216,2.185318 -1.821095,4.37063 -4.006414,5.463293c-1.092656,0.728439 -2.549535,0.728439 -3.642191,0.728439l-1.092656,0c-0.364216,0.728439 -0.728439,1.821095 -1.092656,2.549535c-1.456879,4.006414 -4.734853,12.019242 -14.568777,12.383458c-1.821095,2.549535 -4.37063,4.006414 -6.920172,5.09907c-0.364216,1.456879 -1.092656,2.913758 -1.821095,4.006414c-1.456879,2.185318 -4.006414,3.642191 -6.555949,3.642191l-1.456879,0c-0.364216,2.185318 -1.456879,4.006414 -2.913758,5.09907l-0.728439,0.728439c0,3.277974 -0.728439,6.920172 -2.185318,9.833923c0,2.185318 -1.092656,4.006414 -2.549535,5.463293l-5.09907,4.37063c-1.456879,1.456879 -3.277974,2.185318 -5.463293,2.185318c-1.092656,0 -2.549535,-0.364216 -3.642191,-0.728439c-1.456879,1.092656 -3.277974,1.821095 -5.463293,1.821095l-1.092656,0c-0.364216,0.364216 -0.364216,0.728439 -0.728439,1.092656l0,0.364216c1.092656,4.37063 3.277974,9.469707 5.827509,14.20456l0.728439,1.456879c1.821095,3.277974 2.549535,4.37063 2.913758,4.734853l0.364216,0c1.092656,0 2.549535,0.364216 4.37063,0.728439c5.463293,1.821095 8.741267,7.284388 7.648605,12.383458c-0.364216,1.821095 -1.456879,3.277974 -2.185318,4.006414c0,0.728439 0.728439,1.821095 1.821095,3.642191l4.37063,6.920172l1.821095,2.913758l5.463293,0c5.09907,0 9.469707,0.364216 13.111898,1.456879c1.456879,-0.364216 3.277974,-0.728439 5.09907,-0.364216c1.456879,0 2.913758,0 4.006414,0.364216l2.549535,0c1.092656,0 1.456879,0 1.456879,-0.364216c1.456879,-1.092656 2.913758,-1.456879 4.734853,-1.456879c1.456879,0 2.549535,0.364216 4.006414,1.092656l5.09907,2.549535c2.913758,1.456879 4.734853,4.734853 4.37063,7.648605c1.092656,1.456879 1.456879,3.277974 1.456879,5.09907c1.456879,1.456879 2.549535,2.913758 3.277974,4.006414c0.364216,0.364216 0.364216,0.728439 0.728439,1.092656l1.092656,0c0.728439,0 1.456879,-0.364216 2.549535,-0.364216c0.728439,-0.728439 1.821095,-1.092656 2.913758,-1.456879l5.463293,-1.092656c2.185318,-0.364216 4.37063,-0.728439 5.827509,-1.092656c0.728439,-0.364216 1.456879,-0.364216 2.185318,-0.364216c0.728439,0 1.456879,0 2.185318,0.364216c0.728439,-0.364216 1.821095,-0.364216 2.549535,-0.364216c1.092656,0 2.549535,0.364216 3.642191,0.728439c1.821095,-0.364216 3.642191,-0.364216 5.09907,-0.364216l1.821095,0l0,-1.456879c0.364216,-1.821095 0.728439,-4.006414 2.185318,-6.191732c1.821095,-2.549535 4.37063,-4.006414 6.555949,-5.09907c2.549535,-1.092656 5.09907,-1.821095 8.012828,-2.549535c-0.728439,-3.277974 -0.728439,-6.555949 -0.728439,-9.833923c0,-3.642191 2.549535,-6.920172 6.555949,-7.648605c1.821095,-0.364216 3.642191,-0.728439 5.463293,-0.728439c-0.364216,-2.185318 -0.728439,-4.734853 -0.728439,-6.920172c0,-2.185318 0,-4.37063 0.364216,-6.555949c0,-1.092656 0.364216,-2.549535 0.364216,-3.642191c-0.728439,-0.364216 -2.185318,-0.728439 -2.913758,-1.092656c-4.006414,-1.456879 -9.469707,-3.642191 -12.383458,-9.105484c-1.456879,-3.277974 -1.092656,-6.920172 1.821095,-9.469707l1.092656,-1.092656c-0.364216,-5.09907 0,-9.469707 0.364216,-13.476121l0.000033,-0.000013z" id="svg_26"/>
  <path stroke="null" fill="#000000" d="m13.876651,57.262724c0,8.741267 0,17.846751 0.364216,26.588018c0,5.463293 1.821095,13.840337 -0.364216,19.30363c-0.364216,0.728439 -0.728439,1.456879 -1.456879,2.185318c2.549535,0.364216 4.734853,0.728439 6.920172,1.821095c1.456879,0.728439 2.549535,1.456879 3.642191,2.549535l3.277974,0c0.364216,0 0.728439,0 0.728439,0.364216c0.364216,0 0.364216,0 0.728439,0.364216c0.364216,0 0.728439,0.364216 0.728439,0.364216c0.364216,0 0.364216,0 0.728439,0.364216c0.364216,0 0.728439,0.364216 1.092656,0.364216c0.364216,0 0.364216,0.364216 0.728439,0.364216c0.364216,0.364216 0.728439,0.364216 1.092656,0.728439c0.364216,0 0.728439,0.364216 1.092656,0.364216c0.364216,0 0.364216,0 0.728439,0.364216s1.092656,0.364216 1.456879,0.728439c1.456879,0.364216 2.549535,0.728439 3.642191,0.728439c1.092656,0 2.185318,0.364216 3.277974,0.364216c1.821095,0.364216 4.006414,0.728439 6.191732,0.728439c2.185318,0.364216 4.37063,0.364216 6.191732,0.728439c0.364216,0 1.092656,0 1.456879,0.364216l13.111898,0c0.364216,0 0.728439,0 0.728439,0.364216l0.728439,0c0.364216,0 0.728439,0 1.092656,0.364216l0.728439,0c0.364216,0 0.728439,0.364216 1.092656,0.364216l0.728439,0c0.728439,0.364216 1.092656,0.364216 1.821095,0.728439c5.827509,-1.092656 17.482535,-6.191732 20.032069,-11.290802l-4.734853,-6.191732c2.185318,-3.277974 5.827509,-3.277974 9.469707,-3.642191c0.728439,0 1.456879,-0.364216 1.821095,-0.364216c1.092656,-0.364216 1.821095,-0.728439 2.549535,-1.092656c0.364216,0 0.728439,0.364216 1.092656,0.364216l5.827509,0c0.364216,0 0.728439,0 1.092656,0.364216c0.728439,0 1.092656,0.364216 1.821095,0.728439s1.092656,0.728439 1.821095,1.092656c1.092656,0.728439 2.185318,1.456879 3.642191,1.456879c0.728439,0 1.092656,0 1.821095,0.364216l2.185318,0c0.364216,0 1.092656,-0.364216 1.456879,-0.364216l0.364216,0c0.364216,0 0.728439,-0.364216 0.728439,-0.364216s0.364216,0 0.364216,-0.364216c0.364216,0 0.364216,-0.364216 0.728439,-0.364216l0.364216,-0.364216l0.728439,-0.728439l0.364216,-0.364216l0.728439,-0.728439l0.364216,-0.364216l1.092656,-1.092656c3.642191,-4.37063 6.920172,-9.105484 9.469707,-13.840337c0.728439,-1.092656 1.456879,-2.549535 1.821095,-3.642191c1.092656,-2.185318 2.185318,-4.37063 2.913758,-6.555949c0.364216,-0.364216 0.364216,-1.092656 0.728439,-1.456879c0.364216,-0.364216 0.364216,-1.092656 0.728439,-1.456879c0.364216,-0.728439 0.728439,-1.456879 0.728439,-2.185318l1.092656,-2.185318c1.092656,-1.092656 2.185318,-1.456879 3.642191,-1.456879l4.37063,0c0.728439,-0.364216 1.821095,-0.728439 2.549535,-1.456879c0.364216,-0.364216 0.728439,-1.092656 1.092656,-1.821095c0,-0.364216 0.364216,-0.728439 0.364216,-1.092656c0.728439,-1.821095 1.092656,-3.642191 1.456879,-5.463293c0.364216,-1.456879 0.364216,-2.913758 0.728439,-4.37063l0,-2.549535l0,-1.456879c0,-2.549535 0,-4.734853 0.364216,-7.284388c0,0 -0.364216,-0.364216 -0.728439,-0.364216l-0.364216,0l-0.364216,-0.364216s-0.364216,0 -0.364216,-0.364216c0,0 -0.364216,0 -0.364216,-0.364216c0,0 -0.364216,0 -0.364216,-0.364216c-0.364216,0 -0.364216,-0.364216 -0.728439,-0.364216c0,0 -0.364216,0 -0.364216,-0.364216c-0.364216,0 -0.364216,0 -0.728439,-0.364216c-0.364216,0 -0.364216,-0.364216 -0.728439,-0.364216c0,0 -0.364216,0 -0.364216,-0.364216c-0.364216,0 -0.364216,0 -0.728439,-0.364216c-0.364216,0 -0.364216,0 -0.728439,-0.364216c-0.364216,0 -0.364216,0 -0.728439,-0.364216c-0.364216,0 -0.364216,0 -0.728439,-0.364216c-0.364216,0 -0.364216,0 -0.728439,-0.364216c-0.364216,0 -0.364216,0 -0.728439,-0.364216c-0.364216,0 -0.364216,0 -0.728439,-0.364216c-0.364216,0 -0.364216,0 -0.728439,-0.364216l-0.728439,0c-0.364216,0 -0.364216,0 -0.728439,-0.364216l-1.092656,0l-1.092656,0l-1.092656,0l-0.364216,0l-0.364216,0l-0.364216,0l-0.364216,0l0.364216,-2.913758c-1.456879,0.364216 -3.277974,0.728439 -4.734853,1.092656c-10.926579,3.642191 -20.032069,11.655019 -29.137553,17.846751l-0.364216,0.364216s-0.364216,0 -0.364216,0.364216l-0.364216,0l-0.364216,0l-0.364216,0l-0.364216,0l-0.364216,0c-0.364216,0 -0.728439,-0.364216 -0.728439,-0.728439l-0.364216,-0.364216c-1.092656,-1.456879 -2.549535,-2.913758 -3.642191,-4.37063c-2.185318,-2.913758 -4.37063,-6.191732 -6.191732,-9.469707c-0.728439,-1.456879 -1.821095,-3.277974 -2.549535,-5.09907c0,-0.364216 0,-0.364216 -0.364216,-0.728439c-0.728439,-1.456879 -1.092656,-2.549535 -2.549535,-3.642191l-2.185318,-1.092656c-0.728439,0 -1.456879,-0.364216 -2.185318,-0.364216l-1.456879,0c-0.728439,0 -1.456879,0.364216 -2.549535,0.364216c-0.728439,0 -1.092656,0.364216 -1.821095,0.364216l-0.364216,0l0,-0.364216l-5.463293,0c-0.728439,0 -1.092656,-0.364216 -1.821095,-0.364216c-1.456879,-0.364216 -2.549535,-1.092656 -3.642191,-1.456879c-0.728439,-0.364216 -1.092656,-0.728439 -1.821095,-1.092656l-3.277974,-2.185318c-1.456879,-1.821095 -2.913758,-3.277974 -4.734853,-4.006414c-0.364216,-0.364216 -1.092656,-0.728439 -1.821095,-0.728439c0,0 -0.364216,0 -0.728439,-0.364216s-1.092656,-0.364216 -1.456879,-0.728439c-0.364216,0 -0.364216,0 -0.728439,-0.364216c-0.728439,-0.364216 -1.456879,-0.364216 -2.185318,-0.728439l-0.364216,0c-0.364216,-0.364216 -1.092656,-0.364216 -1.821095,-0.728439c-0.364216,0 -0.364216,0 -0.728439,-0.364216c-0.728439,0 -1.456879,-0.364216 -1.821095,-0.364216l-0.728439,0c-0.728439,-0.364216 -1.821095,-0.364216 -2.549535,-0.364216l-0.364216,0c-0.728439,0 -1.456879,-0.364216 -2.185318,-0.364216l-5.827509,0l-0.364216,0c-0.728439,0 -1.456879,0 -1.821095,0.364216l-0.728439,0c-0.364216,0 -1.092656,0.364216 -1.456879,0.364216c-0.364216,0 -0.364216,0 -0.728439,0.364216c-0.728439,0 -1.092656,0.364216 -1.821095,0.728439c-1.821095,1.456879 -2.185318,3.277974 -2.185318,5.463293c0,0.728439 0,1.456879 0.364216,1.821095l0,2.913758c0,1.092656 -0.364216,2.185318 -0.728439,3.277974c-0.364216,0.728439 -0.364216,1.456879 -0.728439,1.821095c-0.728439,2.549535 -1.821095,4.734853 -1.456879,7.284388c-1.092656,1.092656 -2.549535,1.821095 -3.642191,2.913758c-0.728439,0.728439 -1.821095,1.456879 -2.549535,2.185318l-2.185318,2.185318c-0.364216,0.364216 -0.728439,0.728439 -0.728439,1.092656c-2.185318,3.277974 -2.549535,7.284388 0.728439,12.019242l-5.463293,5.09907l-0.00002,-0.000053z" id="svg_25"/>
  <path stroke="null" fill="#000000" d="m168.6699,273.609055c-0.728439,0 -1.092656,0.728439 -1.456879,0.728439l0,0.364216c-0.364216,0 -1.092656,0.364216 -1.456879,0.364216c-0.364216,0 -1.092656,0.364216 -1.456879,0.364216l-1.456879,0l0,0.364216l-0.728439,0l-1.092656,0l-0.364216,0c-0.364216,0 -0.364216,0 -0.728439,-0.364216l-0.364216,0c-0.364216,0 -0.728439,-0.364216 -0.728439,-0.364216c-2.185318,-1.456879 -3.277974,-3.642191 -4.734853,-5.463293c-0.728439,-0.728439 -1.456879,-1.456879 -2.185318,-1.821095c-0.364216,-0.364216 -1.092656,-0.364216 -1.456879,-0.728439c-0.364216,-0.728439 -0.728439,-1.821095 -0.728439,-2.549535c0,-0.364216 0,-0.728439 0.364216,-1.092656c0,-0.364216 0.364216,-0.728439 0.728439,-1.092656c-1.092656,-1.092656 -1.456879,-2.185318 -1.456879,-3.642191c0,-0.364216 0,-0.728439 0.364216,-1.456879l-5.09907,-2.549535c-0.364216,0.364216 -0.728439,0.728439 -1.456879,0.728439l-0.364216,0c-0.364216,0 -0.728439,0.364216 -1.092656,0.364216l-0.364216,0c-0.364216,0 -1.092656,0.364216 -1.456879,0.364216l-1.456879,0l-0.364216,0l-1.456879,0l-1.092656,0c1.092656,1.456879 1.821095,2.913758 2.185318,4.37063l0.364216,0.728439c1.456879,2.913758 0.728439,6.191732 -1.456879,8.377044l-2.913758,2.549535c-1.456879,1.456879 -3.642191,2.185318 -5.827509,2.185318c-1.092656,0 -2.185318,-0.364216 -2.913758,-0.728439c0,0 -0.364216,0.364216 -1.092656,0.728439c-1.456879,1.092656 -3.277974,1.821095 -5.09907,1.821095l-1.456879,0c-1.092656,0.728439 -2.549535,0.728439 -3.642191,0.728439c-1.092656,0 -2.185318,-0.364216 -3.277974,-0.728439l-1.092656,-0.364216l-0.364216,0c-5.463293,1.456879 -9.469707,1.821095 -13.476121,1.821095c-5.827509,0 -10.926579,-1.092656 -17.482535,-4.006414c-0.364216,0 -1.092656,0.364216 -1.456879,0.364216c-0.728439,0.364216 -1.821095,0.364216 -2.549535,0.728439c-1.456879,2.549535 -4.006414,4.006414 -6.920172,4.006414l-1.456879,0c-0.364216,0.728439 -1.092656,1.456879 -1.821095,1.821095c-0.364216,1.456879 -1.456879,2.913758 -2.913758,3.642191c0,0.364216 0,0.364216 -0.364216,0.728439c-1.092656,2.185318 -2.549535,3.642191 -4.37063,5.09907c-0.364216,0.364216 -0.364216,1.092656 -0.728439,1.456879c0,1.456879 -0.364216,2.913758 -1.456879,4.37063c-0.728439,1.092656 -1.456879,1.821095 -2.549535,2.185318c-0.364216,1.456879 -1.456879,2.913758 -2.913758,4.006414c-4.734853,3.277974 -11.290802,3.642191 -15.661433,3.642191l-3.277974,0c0.728439,1.092656 1.821095,1.821095 3.277974,2.185318l-0.364216,1.821095c0.364216,0.364216 0.728439,1.092656 1.092656,1.456879c0.728439,1.092656 1.821095,1.821095 2.549535,2.549535c0.364216,0.364216 1.092656,0.728439 1.456879,1.456879l0.728439,-0.364216l1.092656,1.092656l0,0.728439l-2.185318,0l0.728439,1.821095l-0.728439,0c-1.092656,2.185318 -1.092656,4.37063 -0.364216,6.555949l6.920172,2.185318l0.364216,0.364216l0.364216,0.364216c0.728439,0 1.456879,0 2.185318,0.364216c2.185318,0.364216 4.37063,1.456879 6.191732,2.913758c0,-0.728439 0.364216,-1.456879 0.364216,-1.821095c0.364216,0 0.728439,0.364216 0.728439,0.364216l2.185318,0s0.364216,0 0.364216,-0.364216l0.364216,0s0.364216,0 0.364216,-0.364216l0.364216,-0.364216l0.364216,-0.364216l0.364216,-0.364216l0.364216,-0.364216l0,-0.364216l0.364216,-0.364216c0,-0.364216 0.364216,-0.364216 0.364216,-0.728439l0,-0.364216s0,-0.364216 0.364216,-0.364216l0,-0.364216s0,-0.364216 0.364216,-0.364216c0,0 0,-0.364216 0.364216,-0.364216c0,0 0,-0.364216 0.364216,-0.364216c0,0 0,-0.364216 0.364216,-0.364216l0,-0.364216s0,-0.364216 0.364216,-0.364216l0,-0.364216c0,-0.364216 0.364216,-0.364216 0.364216,-0.728439c0,0 0.364216,-0.364216 0.364216,-0.728439c1.092656,-1.456879 1.821095,-2.913758 2.913758,-4.734853c0.728439,-1.092656 1.821095,-2.549535 2.549535,-3.642191c1.456879,-1.821095 2.913758,-3.277974 4.734853,-4.37063c0.364216,-0.364216 0.728439,-0.364216 1.456879,-0.728439c0,0 0.364216,0 0.364216,-0.364216c0.364216,0 0.728439,-0.364216 1.092656,-0.364216c0.364216,0 0.364216,0 0.728439,-0.364216c0.364216,0 0.728439,-0.364216 1.092656,-0.364216c0.364216,0 0.364216,0 0.728439,-0.364216c0.364216,0 0.728439,-0.364216 1.092656,-0.364216c0.364216,0 0.364216,0 0.728439,-0.364216c0.364216,0 0.728439,-0.364216 1.456879,-0.364216l0.364216,0c0.728439,0 1.092656,-0.364216 1.821095,-0.364216l2.185318,0c0.364216,0 1.092656,0 1.456879,0.364216l0.364216,-0.728439l0.364216,-0.364216l1.456879,0c1.456879,0 2.549535,0.364216 4.006414,0.364216c2.185318,0.364216 3.642191,1.092656 5.09907,2.549535c1.456879,1.092656 2.185318,1.092656 3.642191,1.092656c1.456879,0.364216 2.549535,1.456879 3.642191,2.185318c0.728439,0.728439 1.456879,1.821095 2.185318,2.549535c0.364216,0.364216 1.456879,1.821095 2.913758,3.277974c0.728439,0.728439 1.092656,1.456879 1.821095,2.185318c1.092656,1.092656 1.821095,2.185318 2.913758,3.277974c1.821095,2.185318 3.277974,3.642191 3.277974,3.642191c0,0.364216 -1.456879,2.185318 -1.456879,2.185318c0.728439,0.728439 1.821095,1.092656 2.913758,1.092656c0.364216,0 0.728439,0 1.092656,0.364216c0.728439,0 1.456879,0.364216 2.185318,0.364216c0.728439,0 1.456879,0.364216 2.185318,0.364216l3.642191,0c0.364216,0 1.092656,-1.092656 1.821095,-2.185318c0.728439,-1.456879 2.185318,-3.277974 3.277974,-4.734853c0,-0.364216 0.364216,-0.364216 0.364216,-0.728439c-0.364216,-0.364216 -0.728439,-0.728439 -0.728439,-1.092656l-1.092656,-1.456879c-1.456879,-1.821095 -1.821095,-4.37063 -1.092656,-6.555949c0.728439,-2.185318 2.549535,-4.006414 4.734853,-4.734853c1.821095,-0.364216 3.642191,-0.728439 5.463293,-0.728439l2.185318,0l0.364216,-0.728439c1.092656,-1.821095 3.277974,-3.277974 5.827509,-3.642191l0.364216,-0.364216c0,-3.642191 2.913758,-6.920172 6.555949,-7.648605c1.092656,-2.185318 2.913758,-4.006414 5.09907,-5.463293c0,-0.728439 0.364216,-1.456879 0.364216,-1.821095c0,-0.364216 0,-0.728439 0.364216,-0.728439c-0.364216,-2.913758 0.728439,-5.827509 3.277974,-7.648605c0.728439,-0.364216 1.821095,-1.821095 2.913758,-2.913758c0.364216,-0.364216 1.092656,-1.821095 1.456879,-2.185318c-1.092656,0.728439 -1.821095,0 -2.185318,0l0.000073,-0.000047z" id="svg_24"/>
  <path stroke="null" fill="rgb(51, 51, 51)" d="m16.061969,285.992513c0.364216,0.364216 0.364216,0.728439 0.728439,1.456879c0.364216,0.364216 0.728439,1.092656 1.456879,1.821095c0.364216,0 0.364216,0.364216 0.728439,0.364216l0.728439,0.728439l1.092656,1.092656c1.821095,1.821095 3.277974,3.277974 3.277974,3.642191l0.364216,2.185318l12.019242,0c0.728439,0 1.456879,-0.364216 2.185318,-0.364216l0.364216,0c0.728439,0 1.456879,-0.364216 1.821095,-0.728439l0.364216,0c0.728439,-0.364216 1.092656,-0.364216 1.821095,-0.728439l0.364216,-1.821095l-2.185318,-2.185318l-1.092656,-1.092656l1.092656,-0.728439c0.364216,0.364216 0.728439,0.728439 1.092656,0.728439l0.364216,0c0.364216,0 0.364216,0.364216 0.728439,0.364216l2.913758,0l-0.364216,-1.456879l-0.364216,-0.728439l1.821095,-1.821095l-0.728439,-1.821095c1.092656,-0.364216 2.185318,-0.728439 3.277974,-1.456879c1.092656,-0.728439 1.821095,-1.456879 2.185318,-2.549535l-0.728439,-1.456879l-0.364216,-0.728439l3.642191,-1.092656l0.364216,-1.821095l0,-0.728439l2.185318,-1.092656l0,-2.185318c0.364216,-0.364216 0.728439,-0.364216 1.092656,-0.728439l0.364216,0c0.364216,0 0.364216,-0.364216 0.728439,-0.364216l4.37063,0c0.364216,0 1.092656,0.364216 1.456879,0.364216c0.364216,-2.549535 0.728439,-1.456879 1.456879,-2.185318c0.728439,-0.364216 1.092656,-1.092656 1.821095,-1.456879c2.549535,-1.092656 5.463293,-1.456879 8.012828,-2.549535l2.185318,1.092656c0.364216,0 0.364216,0.364216 0.728439,0.364216c0.364216,0.364216 1.092656,0.364216 1.456879,0.728439c0.364216,0 0.364216,0.364216 0.728439,0.364216s0.728439,0.364216 1.456879,0.364216c0.364216,0 0.364216,0 0.728439,0.364216c0.364216,0 1.092656,0.364216 1.456879,0.364216l0.364216,0c0.728439,0 1.092656,0.364216 1.821095,0.364216l0.364216,0c0.364216,0 0.728439,0 1.456879,0.364216l7.284388,0c0.728439,0 1.456879,0 2.185318,-0.364216l0.364216,0c0.728439,0 1.821095,-0.364216 2.549535,-0.364216c0.364216,0 0.364216,-1.092656 0.728439,-1.092656c0.728439,-0.364216 1.821095,-1.456879 2.913758,-1.456879c0,0 0.364216,0.364216 0.728439,0c0.728439,-0.728439 1.821095,-0.728439 2.913758,-1.092656l0.364216,2.185318l2.913758,1.456879l3.277974,-1.821095l1.092656,0.728439l1.092656,0.728439c0.364216,-0.364216 0.728439,-0.728439 1.092656,-0.728439c0,0 0.364216,0 0.364216,-0.364216c0.364216,-0.364216 0.728439,-0.364216 1.092656,-0.364216l0.364216,0c0.364216,0 1.092656,-0.364216 1.456879,-0.364216l3.642191,0c0.364216,0 1.092656,0.364216 1.456879,0.364216l2.913758,-2.549535l-1.092656,-2.185318c-0.364216,-0.364216 -0.364216,-0.728439 -0.728439,-1.092656c-0.364216,-0.364216 -0.364216,-0.728439 -0.728439,-0.728439c-0.364216,-0.364216 -1.092656,-0.728439 -1.456879,-0.728439l0,-0.364216l0,-0.364216l0,-0.364216l-0.364216,-0.364216l-0.364216,-0.364216s-0.364216,0 -0.728439,-0.364216l-0.364216,0l-0.364216,0l-1.092656,0l-1.092656,0l-1.456879,0l-1.092656,0l-1.092656,0l-1.092656,0l-1.456879,0l-1.456879,0l-0.364216,-0.364216c-0.364216,0 -0.728439,-0.364216 -0.728439,-0.364216l-1.821095,0c-0.364216,0 -1.092656,0.364216 -1.456879,0.364216l-0.364216,0.364216l-2.549535,0l-1.456879,0l-2.913758,0c-2.913758,-4.734853 -6.191732,-9.469707 -9.105484,-14.20456c-1.456879,-2.185318 -3.642191,-5.09907 -3.642191,-8.012828c0,-0.364216 0.728439,-1.092656 0.728439,-1.456879c0,-0.728439 0.728439,-1.456879 1.092656,-2.185318c0,-0.364216 0.364216,-0.364216 0.728439,-0.728439l0.364216,-0.364216l0.364216,-0.364216c0.364216,-0.364216 0.364216,-0.364216 0.364216,-0.728439c0.364216,-0.728439 -0.364216,-1.821095 -1.092656,-2.185318c-0.364216,0 -0.364216,-0.364216 -0.728439,-0.364216s-0.728439,0 -0.728439,-0.364216l-2.913758,0c-0.364216,0 -0.728439,0 -1.092656,-0.364216c-0.364216,0 -0.728439,-0.364216 -1.092656,-0.364216c-0.728439,-0.364216 -1.092656,-0.728439 -1.456879,-1.092656c-1.092656,-0.728439 -1.821095,-1.821095 -2.913758,-2.913758c-1.092656,-1.456879 -1.821095,-2.913758 -2.549535,-4.37063l-3.277974,-6.555949c-0.728439,-1.456879 -1.456879,-2.913758 -1.821095,-4.37063c-0.364216,-0.728439 -0.728439,-1.456879 -0.728439,-2.185318c-0.364216,-1.456879 -1.092656,-2.913758 -1.456879,-4.734853c0,-0.728439 -0.364216,-1.092656 -0.364216,-1.456879l0,-1.821095c0.364216,-1.821095 1.456879,-2.185318 2.913758,-5.09907c0.728439,-1.456879 1.456879,-1.821095 1.821095,-1.821095c0.364216,0 0,-0.364216 -0.364216,-0.728439l-0.728439,-0.728439s-0.364216,-0.364216 -0.728439,-0.364216c-0.364216,-0.364216 -1.092656,-0.364216 -1.821095,-0.728439c-0.728439,0 -1.456879,-0.364216 -2.185318,-0.364216c-0.728439,0 -1.092656,0 -1.456879,-0.364216c-0.364216,0 -1.092656,0 -1.092656,-0.364216l-1.821095,1.456879c-0.728439,0 -1.092656,-0.364216 -1.821095,-0.364216c-1.456879,-0.728439 -3.277974,-1.821095 -5.09907,-3.642191l-1.821095,-1.821095c-1.092656,-1.092656 -1.821095,-2.185318 -2.549535,-2.913758c-0.728439,-1.092656 -1.456879,-1.821095 -1.821095,-2.913758c0,-0.364216 -0.364216,-0.364216 -0.364216,-0.728439c-0.364216,0 -1.092656,0 -1.456879,0.364216l-0.364216,0c-0.364216,0 -0.728439,0 -1.092656,0.364216l-0.728439,0c-0.364216,0 -0.728439,0 -1.092656,0.364216s-0.728439,0 -1.092656,0.364216l-0.364216,0c-0.364216,0 -1.092656,0 -1.456879,0.364216l-1.456879,0l-1.456879,0l-1.456879,0l-2.185318,0l-0.364216,0c-0.364216,0 -1.092656,0 -1.456879,-0.364216l-0.364216,0c-0.728439,0 -1.092656,-0.364216 -1.821095,-0.728439l-0.364216,0c-0.728439,-0.364216 -1.092656,-0.364216 -1.821095,-0.728439c-0.364216,0 -0.728439,-0.364216 -0.728439,-0.728439c0,0 -0.364216,0 -0.364216,-0.364216c-0.364216,0 -0.364216,-0.364216 -0.728439,-0.364216c0,0 -0.364216,0 -0.364216,-0.364216l-0.728439,-0.728439l-1.092656,-1.092656c-0.364216,-0.364216 -0.728439,-0.364216 -0.728439,-0.728439l-0.364216,-0.364216l-0.728439,-0.728439l-0.364216,-0.364216l-1.092656,-1.092656l-0.364216,-0.364216c-1.456879,-1.821095 -1.821095,-1.821095 -2.185318,-2.185318c0,0 -0.364216,0 -0.364216,-0.364216c-0.364216,-0.364216 -0.364216,-0.364216 -0.728439,-0.364216c0,0 -0.364216,0 -0.364216,-0.364216c-0.364216,-0.364216 -0.728439,-0.364216 -1.092656,-0.728439c-0.364216,0 -0.728439,-0.364216 -1.092656,-0.364216l-1.092656,0l-1.092656,0l-0.364216,0c-0.364216,0 -0.364216,0 -0.728439,0.364216l-0.364216,0c-0.364216,0 -0.364216,0.364216 -0.728439,0.364216c0,0 -0.364216,0 -0.364216,0.364216l-1.092656,1.092656c-1.092656,1.456879 -1.821095,3.642191 -1.821095,6.191732l0,4.006414c0,1.456879 0,2.913758 0.364216,4.37063c0,0.728439 0,1.456879 0.364216,2.185318c0,0.728439 0,1.456879 0.364216,2.185318c0.364216,4.37063 1.092656,8.377044 1.092656,10.926579l0,4.37063c0.364216,4.734853 1.821095,9.105484 5.09907,12.383458c-3.277974,2.185318 -5.463293,5.09907 -6.555949,8.377044c-0.364216,1.092656 -0.728439,1.821095 -1.092656,2.913758c-1.092656,3.642191 -1.092656,7.648605 -1.092656,11.290802c0,2.549535 0.364216,5.09907 0,7.648605c0,0.728439 -0.364216,1.821095 -0.364216,2.549535l-1.092656,2.185318c-0.364216,0.728439 -0.728439,1.821095 -1.092656,2.549535c-0.364216,0.364216 -0.364216,1.092656 -0.728439,1.456879c-3.277974,8.741267 1.821095,18.210967 6.555949,26.223795c0.728439,3.642191 2.185318,6.191732 3.642191,9.105484l-0.00006,-0.000033z" id="svg_23"/>
  <path stroke="null" fill="rgb(51, 51, 51)" d="m197.807454,271.787959l-0.728439,0l-1.821095,0c-0.728439,0 -1.092656,0 -1.821095,0.364216l-0.364216,0c-0.364216,0 -0.728439,0.364216 -1.456879,0.364216l-0.364216,0c-0.364216,0 -1.092656,0.364216 -1.456879,0.364216l-0.364216,0c-0.364216,0 -0.728439,0.364216 -1.092656,0.364216l-0.364216,0c-0.364216,0.364216 -1.092656,0.364216 -1.456879,0.728439l-0.364216,0c-0.364216,0.364216 -0.728439,0.364216 -1.092656,0.728439c0,0 -0.364216,0 -0.364216,0.364216l-1.092656,1.092656c-0.364216,0 -0.728439,-0.364216 -1.092656,-0.364216l-0.364216,-0.364216l-0.364216,0l-0.728439,0.364216l0,-0.364216l0.364216,0s-0.364216,0.364216 0,0.364216l0,-0.364216l-0.728439,0l-0.364216,0l-0.364216,0.728439l0,0.364216l-0.364216,0.364216l-0.364216,0.364216l-0.364216,0.364216l-0.364216,0.364216l-0.364216,0.364216l-0.364216,0.364216l-0.364216,0.364216l-0.364216,0.364216l-0.364216,0.364216l-0.364216,0.364216l-0.364216,0.364216l-0.364216,0.364216l-0.728439,0.728439l-0.364216,0.364216l-0.364216,0.364216l-0.364216,0.364216l-0.364216,0.364216l-0.364216,0.364216l-0.364216,0.364216l-0.364216,0.364216l-0.364216,0.364216c-0.364216,0.364216 -0.364216,0.364216 -0.728439,0.364216l0,2.185318c0,0.364216 0,0.728439 -0.364216,1.092656c-0.364216,1.821095 -1.092656,3.277974 -0.364216,5.463293c-0.364216,0 -1.092656,0.364216 -1.456879,0.364216c-0.364216,0.364216 -0.728439,0.364216 -1.456879,0.728439c-0.364216,0.364216 -0.728439,0.364216 -1.092656,0.728439l-0.364216,0.364216c-0.364216,0 -0.364216,0.364216 -0.728439,0.364216c-0.364216,0.364216 -0.728439,0.728439 -0.728439,1.092656c-0.364216,0.728439 -0.728439,1.456879 -1.092656,2.549535l0,1.456879l-1.456879,0.364216l-3.277974,0.364216l0,1.821095c0,0.364216 0,0.364216 -0.364216,0.728439c0,0.364216 -0.364216,0.364216 -0.364216,0.728439c-0.728439,1.092656 -1.456879,1.821095 -2.549535,2.549535l0.728439,1.456879l-5.09907,0l-0.728439,1.092656l0.728439,1.092656l0.364216,0.728439c-0.364216,0.364216 -0.728439,0.364216 -1.092656,0.728439l-0.364216,0c-0.364216,0 -0.728439,0.364216 -0.728439,0.364216c-0.364216,0 -0.728439,0 -1.092656,0.364216l-1.456879,0l-2.185318,0c-0.728439,0 -2.185318,-1.092656 -2.185318,-1.092656l0,-1.092656l-0.364216,0c-0.364216,0 -0.728439,1.092656 -1.456879,1.092656l0,0.728439s-0.728439,0.364216 -1.456879,0.364216l0.728439,1.092656l0.364216,0.728439c3.277974,0 6.555949,0.728439 9.833923,1.092656c9.833923,1.821095 20.396286,5.463293 30.230209,8.377044c4.37063,1.456879 8.741267,2.549535 12.747681,3.642191c0.728439,-0.364216 1.456879,-1.092656 2.185318,-1.456879c2.913758,-2.185318 6.191732,-4.734853 9.469707,-6.555949c0.728439,-0.364216 1.821095,-0.728439 2.549535,-1.092656c0.364216,-0.364216 0.728439,-0.364216 1.456879,-0.364216c1.456879,-0.364216 2.549535,-0.728439 4.006414,-0.728439l6.191732,0c0.728439,0 1.821095,-0.364216 2.549535,-0.364216c1.092656,0 1.821095,-0.728439 3.277974,-0.728439c0.728439,0 1.092656,0 1.456879,-0.364216l0.728439,0c0.364216,0 0.728439,-0.364216 1.092656,-0.364216c0.364216,0 0.728439,0 1.092656,-0.364216l0.364216,-0.728439c0.364216,0 0.728439,-0.728439 1.092656,-0.728439c0.364216,0 0.728439,0.728439 1.092656,0.728439c0,0 0,0.364216 0.364216,0.364216s0.728439,0.364216 1.092656,0.364216c0,0 0.364216,-0.364216 0.364216,0c0.364216,0 1.456879,0.364216 1.456879,0.364216l0.364216,-1.092656c-0.728439,-0.364216 -1.456879,-0.364216 -1.821095,-0.728439c-1.456879,-1.092656 -2.913758,-2.549535 -4.37063,-3.642191c-1.456879,-1.092656 -3.642191,-3.277974 -5.09907,-4.006414c-1.456879,1.092656 -2.913758,1.456879 -4.734853,1.456879c-1.456879,0 -2.913758,-0.364216 -4.37063,-1.092656c-2.549535,-1.456879 -4.006414,-4.37063 -4.006414,-7.648605c-1.092656,0 -2.185318,-0.728439 -3.277974,-1.092656c-0.364216,-0.364216 -0.728439,-0.364216 -0.728439,-0.364216l-1.821095,0c-3.277974,0 -6.555949,-2.185318 -7.648605,-5.09907l-1.092656,-2.913758c-1.092656,-2.549535 -0.728439,-5.09907 0.728439,-6.920172c0.364216,-0.364216 0.728439,-0.728439 0.728439,-1.092656c1.821095,-2.549535 2.185318,-2.913758 2.185318,-3.642191c0,-1.821095 -0.364216,-3.642191 -0.364216,-5.827509l0,-1.092656l-1.821095,0l-0.000113,0.00008z" id="svg_22"/>
  <path stroke="null" fill="#666666" d="m279.756827,189.474369c-5.463293,0 -7.648605,-5.463293 -12.019242,-7.648605c-2.185318,-1.092656 -4.006414,0.364216 -6.191732,1.092656c-2.549535,1.092656 -6.555949,1.821095 -8.741267,3.277974c-4.37063,3.277974 -4.734853,9.469707 -10.198146,11.655019c-2.913758,1.092656 -5.827509,1.821095 -8.741267,2.913758c-2.913758,1.092656 -6.191732,2.549535 -9.469707,2.913758c2.913758,1.092656 6.920172,2.185318 8.741267,5.09907c1.821095,2.913758 0.728439,7.284388 0.364216,10.562363c-0.364216,3.277974 0,6.920172 0.364216,10.198146c0.364216,1.821095 1.092656,3.642191 1.456879,5.463293c0.364216,1.092656 -0.364216,2.185318 1.092656,2.549535l0,-1.092656c-1.821095,0 -3.277974,0.728439 -5.09907,1.092656c-2.185318,0.364216 -4.734853,0.364216 -6.920172,0.728439c-0.364216,0 -1.092656,0 -1.456879,0.364216c-1.092656,0 -1.456879,0.364216 -1.092656,1.456879c-0.364216,1.456879 0.364216,4.006414 0.364216,5.463293c0.364216,3.277974 1.092656,6.191732 2.185318,9.105484c-3.642191,0 -7.284388,0.728439 -10.562363,1.821095c-2.549535,0.728439 -6.191732,1.456879 -7.284388,4.006414c-2.549535,5.09907 0.728439,12.383458 0.364216,17.482535c0,2.549535 -1.092656,4.734853 -2.549535,6.920172c-1.456879,2.185318 -2.185318,2.549535 -1.092656,5.09907c0.364216,1.092656 0.728439,2.549535 2.549535,2.549535c0.728439,0 1.456879,-1.092656 1.821095,-1.456879c0.728439,-0.364216 1.456879,0 2.185318,0l1.456879,0c0,0.364216 0.364216,0.728439 0.728439,0.728439c0,-0.728439 0.728439,-0.728439 1.092656,-1.092656c1.092656,1.092656 2.549535,1.456879 4.006414,1.821095c0.728439,0.364216 3.277974,0.364216 3.642191,0.728439c0.364216,0.364216 0.364216,1.821095 0.364216,2.185318c-0.364216,0.728439 -1.821095,0.728439 -2.185318,1.456879c0,1.456879 0,3.277974 -0.364216,4.37063c0.364216,-0.364216 0.728439,-0.364216 1.092656,-0.728439c0,0 1.821095,-0.364216 2.185318,-0.728439c0,-1.092656 6.555949,1.821095 6.920172,2.185318c2.549535,1.821095 4.734853,4.37063 7.284388,6.191732c2.185318,1.821095 2.913758,0 4.734853,0c3.277974,0 5.827509,1.821095 9.469707,0.728439c1.821095,1.456879 3.277974,3.277974 5.463293,3.277974c0.728439,0 2.913758,0 4.006414,-0.364216c1.092656,-0.364216 1.821095,-1.456879 3.277974,-1.821095c3.642191,-0.728439 14.568777,5.463293 13.111898,9.469707c0,-0.364216 1.092656,-2.185318 1.456879,-2.185318c-0.364216,0 1.092656,1.456879 1.092656,1.821095c1.092656,0.728439 2.549535,0.728439 3.642191,0.728439c2.549535,0.364216 5.827509,1.821095 8.012828,1.821095c0.728439,0 0.728439,0.364216 1.092656,0c0.364216,0 0,-1.092656 0.364216,-1.092656c1.092656,-0.364216 0,0 0.728439,1.092656c1.821095,1.821095 5.827509,1.092656 8.012828,0.364216c4.006414,-1.456879 4.37063,-4.37063 4.006414,-8.377044c0,-5.827509 0.364216,-11.655019 1.821095,-17.482535c1.456879,-6.191732 4.006414,-11.290802 6.191732,-17.118312c0.728439,-1.821095 1.456879,-4.006414 0.364216,-5.463293c-1.092656,-1.821095 -3.277974,-1.456879 -4.006414,-3.277974c-2.185318,-4.37063 3.642191,-9.105484 6.555949,-11.290802c1.456879,-1.092656 6.555949,-6.920172 7.284388,-4.734853c0,0 0.364216,-0.728439 0.728439,-0.728439l1.092656,0.364216s0.364216,0.364216 0.364216,0c0,0 1.092656,-0.728439 0.728439,-0.728439c1.092656,-0.728439 2.913758,-0.728439 4.006414,-1.821095c1.092656,-0.728439 0.728439,-1.092656 0.728439,-2.549535c-0.364216,-3.277974 -0.364216,-6.555949 1.456879,-9.833923c-5.463293,-2.185318 -6.920172,-7.648605 -6.555949,-13.111898c0.364216,-5.827509 0.728439,-11.290802 0,-17.118312c-0.364216,-1.456879 -0.728439,-3.277974 -0.728439,-4.734853c-0.728439,-0.728439 -0.728439,-1.092656 0,-1.456879c0.364216,0 0.364216,-0.364216 0.728439,-0.364216s0.364216,-0.364216 0.728439,-0.364216l0,-2.185318l0,-4.734853c-0.364216,-2.913758 -1.092656,-4.37063 -2.549535,-6.555949c-0.728439,-0.364216 -1.092656,-0.728439 -0.364216,-1.821095c0.364216,-0.728439 0.364216,-1.456879 0.728439,-2.185318c0.364216,-1.456879 1.092656,-2.913758 1.456879,-4.37063c-7.284388,1.456879 -14.932993,3.277974 -22.217381,4.734853c-4.734853,1.092656 -9.833923,2.185318 -14.568777,3.277974c-3.277974,0.364216 -5.827509,1.456879 -8.741267,1.456879l0.00002,-0.000013z" id="svg_21"/>
  <path stroke="null" fill="#000000" d="m258.632095,31.767362c-0.364216,0 -0.364216,0 -0.728439,0.364216c-0.728439,0.364216 -1.456879,1.092656 -2.549535,1.456879c-0.364216,0 -0.728439,0.364216 -0.728439,0.364216c-0.728439,0.364216 -1.092656,0.364216 -1.821095,0.728439c-0.364216,0 -0.728439,0.364216 -1.092656,0.364216c-0.364216,0 -1.092656,0.364216 -1.456879,0.364216c-0.364216,0 -0.728439,0 -1.092656,0.364216c-0.364216,0 -1.092656,0.364216 -1.456879,0.364216c-0.364216,0 -0.728439,0 -1.092656,0.364216c-0.364216,0 -1.092656,0 -1.456879,0.364216l-6.920172,0l-0.364216,0c-0.728439,0 -1.092656,0.364216 -1.092656,0.364216l-2.185318,0l-4.006414,0l-1.821095,0l-1.092656,0l-1.092656,0l-0.364216,0c-0.364216,0 -0.364216,0 -0.728439,0.364216c-0.364216,0 -0.364216,0.364216 -0.728439,0.364216l-0.364216,0l-0.364216,0.364216l-0.364216,0.364216s-0.364216,0.364216 -0.364216,0.728439c0,0 0,0.364216 -0.364216,0.364216c0,0.364216 -0.364216,0.364216 -0.364216,0.728439l0,0.364216c0,0.364216 -0.364216,0.728439 -0.364216,1.456879c-0.364216,1.456879 0,2.913758 0,4.37063l0,4.37063c-0.728439,4.006414 -2.913758,7.648605 -4.006414,11.290802l-2.185318,5.463293c-1.821095,5.09907 -4.006414,10.562363 -5.463293,15.661433c0,0.364216 -0.364216,1.092656 -0.364216,1.456879c-1.092656,3.642191 -1.821095,6.920172 -2.549535,10.562363l0,0.364216c-0.364216,2.185318 -1.092656,4.006414 -1.456879,6.191732c-0.728439,1.821095 -1.092656,3.642191 -2.185318,5.463293c-0.364216,1.092656 -1.092656,2.185318 -1.456879,2.913758c0.728439,0.728439 1.456879,1.092656 2.185318,1.821095c0.364216,0 0.364216,0.364216 0.728439,0.364216c1.456879,1.092656 2.549535,2.185318 4.006414,2.913758c2.185318,1.821095 4.734853,3.277974 6.920172,5.09907c0.728439,0.364216 1.456879,1.092656 1.821095,1.456879c0.728439,0.728439 1.092656,1.092656 1.092656,2.185318l0,2.185318c0,0.728439 -0.364216,1.092656 -0.728439,1.821095c-0.728439,1.821095 -1.456879,3.277974 -2.549535,4.734853c-0.364216,0.364216 -0.728439,1.092656 -1.092656,1.456879c-0.728439,1.092656 -1.092656,1.821095 -1.821095,2.913758l-0.364216,0.364216c0,0.364216 -0.364216,0.364216 -0.364216,0.728439c-0.728439,1.092656 -1.092656,2.185318 -1.456879,3.277974l0,0.728439c0,0.728439 0.364216,1.821095 1.092656,2.549535c0,0.364216 0.364216,0.364216 0.364216,0.728439c2.549535,4.006414 4.734853,8.377044 6.191732,12.747681c0.728439,2.185318 1.456879,4.37063 1.821095,6.555949c0.364216,2.185318 1.092656,4.37063 1.092656,6.920172l0,6.555949c0,2.185318 -0.364216,4.37063 -0.364216,6.555949l0,2.549535c0,2.913758 0.364216,5.827509 1.821095,8.377044c0.364216,0.364216 0.364216,0.728439 0.728439,1.092656c5.463293,-1.821095 10.926579,-3.642191 16.025656,-5.463293c2.549535,-4.734853 4.734853,-8.012828 8.012828,-10.926579c0.364216,-0.364216 1.092656,-0.364216 1.821095,-0.728439l8.741267,-3.277974l8.741267,-3.277974c0.728439,0.364216 1.092656,0.364216 1.821095,0.728439c1.092656,0.364216 2.185318,1.092656 2.913758,1.456879c2.549535,1.456879 4.734853,3.642191 8.377044,6.555949l43.70633,-9.469707c-0.364216,-0.364216 -0.364216,-0.728439 -0.728439,-1.456879s-0.728439,-1.821095 -0.728439,-2.549535c0,-0.364216 -0.364216,-0.728439 -0.364216,-1.456879c0,-1.092656 -0.364216,-1.821095 -0.364216,-2.913758l0,-1.456879c0,-8.741267 3.642191,-19.30363 1.821095,-27.680674c-0.364216,-1.092656 -0.364216,-1.821095 -0.728439,-2.913758c-0.364216,-1.092656 -0.728439,-1.821095 -1.456879,-2.549535c-0.728439,-1.456879 -1.821095,-2.549535 -3.277974,-3.642191c0.364216,-1.092656 0.364216,-2.185318 0.728439,-3.277974c1.092656,-2.913758 2.549535,-5.463293 5.09907,-7.648605l-0.728439,-2.549535l1.821095,0l1.092656,-4.37063c-1.092656,-1.456879 -2.913758,-2.549535 -4.37063,-3.642191c-1.456879,-0.728439 -2.549535,-1.456879 -4.006414,-1.821095c-0.728439,-0.364216 -1.821095,-0.728439 -2.549535,-1.456879c-0.364216,-0.364216 -0.728439,-0.364216 -1.092656,-0.728439c-2.185318,-1.456879 -4.006414,-3.642191 -4.37063,-7.648605c-0.728439,-9.469707 11.290802,-13.111898 9.469707,-23.67426c0,-0.728439 -1.821095,-2.185318 -3.277974,-3.277974l-1.456879,-1.456879c0,-0.364216 -0.364216,-0.364216 -0.364216,-0.728439c-0.364216,-0.728439 -0.364216,-1.092656 -0.364216,-1.821095l0,-0.364216l0,-1.821095l0,-0.728439c0,-0.728439 0.364216,-1.092656 0.728439,-1.821095s0.728439,-1.092656 1.092656,-1.821095c0,-0.364216 0.364216,-0.364216 0.364216,-0.728439c0.728439,-1.092656 1.456879,-2.185318 2.185318,-3.642191c2.185318,-4.734853 2.185318,-11.655019 1.821095,-17.118312l0,-2.185318c0,-2.549535 -0.728439,-4.734853 -1.821095,-6.555949s-2.549535,-3.642191 -4.37063,-5.09907c-0.728439,-0.364216 -1.092656,-1.092656 -1.821095,-1.456879c-0.728439,-0.364216 -1.456879,-1.092656 -2.185318,-1.456879c-0.728439,-0.364216 -1.092656,-0.728439 -1.821095,-1.092656c0,0 -0.364216,0 -0.364216,-0.364216c-0.364216,-0.364216 -1.092656,-0.364216 -1.821095,-0.728439l-0.364216,0c-0.728439,-0.364216 -1.456879,-0.364216 -1.821095,-0.364216l-1.821095,0l-2.185318,0c-0.728439,0 -1.092656,0.364216 -1.821095,0.364216l-0.728439,0c-0.364216,0 -0.728439,0.364216 -1.456879,0.364216c-0.364216,0 -0.364216,0 -0.728439,0.364216c-0.364216,0 -1.092656,0.364216 -1.456879,0.364216l-0.364216,0c-0.728439,0.364216 -1.092656,0.364216 -1.821095,0.728439c0,0 -0.364216,0 -0.364216,0.364216c-0.364216,0.364216 -0.728439,0.364216 -1.456879,0.728439c-0.364216,0 -0.364216,0.364216 -0.728439,0.364216c-0.364216,0.364216 -0.728439,0.364216 -1.092656,0.728439l-0.364216,0.364216c-0.364216,0.364216 -1.092656,0.728439 -1.456879,1.092656c-1.821095,1.456879 -3.642191,3.277974 -5.463293,4.734853c-3.642191,2.913758 -6.555949,5.463293 -10.198146,6.920172c-1.092656,0.364216 -1.821095,0.728439 -2.913758,1.092656c-0.364216,0 -0.728439,0 -1.092656,0.364216c-0.364216,0 -0.364216,-1.092656 -0.728439,-1.092656s-0.364216,-1.092656 -0.728439,-1.092656s-0.364216,1.092656 -0.728439,1.092656c0,0 0,0.364216 -0.364216,0.364216l-0.364216,0l-0.364216,0c-0.364216,0 -0.364216,0 -0.728439,-0.364216c-0.364216,0 -0.728439,-0.364216 -1.092656,-0.364216c-0.364216,0 -0.364216,-0.364216 -0.728439,-0.364216l-1.092656,0l-0.364216,0c0.364216,0 0.364216,0 0,0l-0.000073,0.000027zm11.290802,139.860257c0.364216,-0.364216 0.364216,-0.364216 0,0l0.364216,0l0.364216,0.364216c-0.364216,-0.364216 -0.364216,-0.364216 -0.728439,-0.364216l0.000007,0z" id="svg_20"/>
  <g stroke="null" id="svg_16" transform="matrix(3.6421941169182754,0,0,3.6421941169182754,-1688.8870457375815,-1281.6790608823112) ">
   <path stroke="null" fill="#666666" d="m499.310392,391.419573l-0.2,0l0.2,0z" id="svg_19"/>
   <path stroke="null" d="m499.110392,391.419573z" fill="#666666" id="svg_18"/>
   <path stroke="null" fill="#666666" d="m522.910392,361.619573c-1.2,0.6 -2.6,1.3 -3,2.5l-0.3,0l-1.3,-1c-0.1,0 -0.2,0.1 -0.3,0.1c-0.2,0 -0.3,-0.1 -0.5,-0.1c0,0 0,-0.1 -0.1,-0.1c-0.2,0 -0.3,0 -0.5,0.1l-0.1,0c-0.1,0.1 -0.3,0.1 -0.4,0.2l-0.1,0c-0.1,0.1 0.2,0.2 -0.5,0.3l-0.7,-0.2l-1.1,-2.6l-0.7,-0.1l-0.7,-0.1c-0.1,0.1 -0.1,0.3 -0.2,0.4c-0.4,0.6 -0.9,1.1 -1.5,1.4l0,0.6c0,0.6 0,1.3 -0.1,1.9c-0.1,1.4 -0.3,2.4 -0.6,3.4c-0.2,0.5 -0.4,1 -0.9,1.5c-1,1 -2.1,1.1 -2.8,1.2c-1,2.6 -2.4,5.7 -4.8,8.4c-0.8,0.9 -2,2.3 -4.1,2.2c-0.3,0 -0.7,0 -1,-0.1c-0.8,-0.2 -1.4,-0.5 -1.8,-0.8c-0.1,-0.1 -0.2,-0.1 -0.3,-0.2l-1.4,0c-0.3,0.1 -0.5,0.2 -0.8,0.2c0.2,0.6 0.2,1.2 -0.1,1.8c-1.2,2.4 -5.1,3.9 -6.9,4.2l-1,0c-0.1,0 -0.2,0 -0.3,-0.1c-1.2,-0.4 -1.7,-0.5 -2.6,-0.5l-0.7,0c-0.8,0 -1.5,-0.1 -2,-0.2c-0.9,-0.1 -2,-0.2 -3.3,-0.4c-0.7,0 -1.5,-0.1 -2.4,-0.4c-0.5,-0.2 -1,-0.5 -1.4,-0.7c-0.4,-0.2 -0.9,-0.5 -1.2,-0.5c-0.1,0 -0.1,0.1 -0.2,0.1c-0.7,0 -1.3,-0.3 -1.8,-0.8c-0.2,-0.2 -0.7,-0.4 -1.2,-0.4l-0.1,0l0,0.1c-0.1,1 -0.2,1.9 -0.2,2.9c0,0.6 0.2,1.2 0.3,1.9c0.2,0.6 0.3,1.2 0.3,1.8l-1,-0.1c0,0.3 0.1,0.6 0.1,0.9l0,2.7c0,0.6 0,1.2 -0.1,1.7c0.6,-0.3 1.3,-0.4 1.8,-0.4c1.9,0 3.4,1.3 4.5,2.3c0.3,0.2 0.6,0.6 0.8,0.7c0.2,0.1 0.4,0.2 0.9,0.2s1.2,-0.1 1.9,-0.3c0.4,-0.1 0.8,-0.2 1.2,-0.2l0.4,0c0.9,0 1.7,0.5 2.1,1.3c0.3,0.5 1,1.3 1.6,1.9c0.2,-0.1 0.4,-0.1 0.6,-0.1c0.2,0 0.4,0 0.6,0.1c0.1,0 0.2,0 0.4,0.1c0.9,0.2 2,0.3 2.8,1.1l0.1,0.1c0.2,0.2 0.7,0.7 0.8,1.3c0.1,0 0.1,0 0.2,-0.1l0.8,0c0.1,0 0.1,0 0.2,0.1l0.1,0c0.1,0 0.2,0.1 0.3,0.1l0.5,-0.4l0.9,-0.8l-0.1,-0.2l0,-0.1c0.3,-0.3 0.4,-0.7 0.6,-1.2c0.1,-0.4 0.2,-0.9 0.2,-1.3c0,-0.3 0,-0.6 -0.1,-0.9l1.2,-0.9c-0.3,-0.5 -0.6,-1 -0.8,-1.5c-0.1,-0.4 -0.2,-0.8 -0.1,-1.2c0,-0.1 0.1,-0.3 0.1,-0.4l0.2,0l0.4,0.3l0.9,-0.3l0.8,0.6l0,0.7l0.9,0.1c0.2,-0.3 0.3,-0.6 0.3,-0.9l0,-0.2c0,-0.2 -0.1,-0.5 -0.2,-0.7c0.2,0 0.3,0.1 0.5,0.1l0.6,0c0.1,0 0.3,-0.1 0.4,-0.1l0.1,0l-0.1,0c0.1,0 0.1,-0.1 0.1,-0.1l0,-0.1s0.3,-0.3 0.4,-0.3c0.1,0 0.3,0.1 0.3,0l0,-0.2l0.2,0.2c0.1,-0.7 0.1,-0.7 0.2,-0.7l0.1,0c0.1,0 0.1,-0.3 0.2,-0.4c0.2,0.1 0.4,0.1 0.5,0.1l1.2,0l0,-0.1s0,-0.2 0.1,-0.2l0.1,0c0,-0.1 0.3,-0.1 0.3,-0.2l0.2,0l0.2,-0.2c0.1,-0.1 0.1,-0.2 0.2,-0.3c0,-0.1 0.1,-0.2 0.1,-0.3c0,-0.1 0.1,-0.2 0.1,-0.3c0,-0.1 0.1,-0.2 0.1,-0.3c0,-0.1 0.1,-0.2 0.1,-0.3c0.1,-0.1 0.1,-0.2 0.2,-0.3c0.1,-0.1 0.1,-0.2 0.2,-0.3c0.1,-0.1 0.1,-0.2 0.2,-0.3c0.1,-0.1 0.2,-0.2 0.3,-0.2c0.1,-0.1 0.2,-0.1 0.3,-0.2c0.1,-0.1 0.3,-0.1 0.4,-0.2l0.7,0.3c0.1,-0.7 0.4,-1.4 0.8,-2c0.5,-0.7 1.1,-1.3 1.8,-1.8c0.5,-0.3 1,-0.6 1.5,-0.8c0.1,-0.1 0.3,-0.1 0.4,-0.1l0.4,-1.4l0.9,-0.5l0.1,-0.6l1.3,0.4c0.1,-0.3 0.2,-0.5 0.4,-0.7l0.3,-0.3c0.5,-0.4 1.1,-0.7 1.5,-1.2l0.8,0.1l0.8,0.1c0.7,-0.5 0.9,-1.4 0.9,-2.3l0.2,-0.1c0.1,0.1 0.2,0.2 0.3,0.2c0,0 0.1,0 0.1,0.1c0.1,0 0.2,0.1 0.2,0.1l0.2,0c0.1,0 0.2,0 0.2,0.1l0.6,0c0.1,0 0.1,-0.2 0.2,-0.2s0.1,-0.2 0.2,-0.2l0.2,0.3s0.1,0 0.2,-0.1l0.1,0c0.1,0 0.2,-0.1 0.3,-0.2l0.2,-0.6c0.2,0 0.4,-0.1 0.6,-0.1c0.1,-0.6 0.3,-1.2 0.5,-1.8c0.6,-1.9 1.3,-3.7 2,-5.5l0.3,-0.8c0.1,-0.4 0.3,-0.7 0.4,-1c0.3,-0.6 0.5,-1.2 0.6,-1.7l0,-0.6c0,-0.5 -0.1,-1.1 0,-1.7c0.3,-1.5 0.4,-1.8 0.6,-2.2z" id="svg_17"/>
  </g>
  <metadata stroke="null" transform="translate(-125.92974853515625,-79.45567321777344) translate(-2580.480224609375,-1592.52490234375) translate(4020.224365234375,0) translate(0,2693.1201171875) matrix(0.6670385943938623,0,0,0.6670385943938623,-1299.5762258675707,-998.9013727571124) ">geographygeography,cartogram,map,atlas,location,boundary,border,choropleth map,visualization,visualizebyewqsae</metadata>
 </g>
</svg>