<svg width="400" height="400" xmlns="http://www.w3.org/2000/svg">
 <!-- Created with Method Draw - http://github.com/duopixel/Method-Draw/ -->

 <g>
  <title>background</title>
  <rect fill="none" id="canvas_background" height="402" width="402" y="-1" x="-1"/>
  <g display="none" overflow="visible" y="0" x="0" height="100%" width="100%" id="canvasGrid">
   <rect fill="url(#gridpattern)" stroke-width="0" y="0" x="0" height="100%" width="100%"/>
  </g>
 </g>
 <g>
  <title>Layer 1</title>
  <g stroke="null" id="svg_22">
   <g stroke="null" transform="matrix(0.7889880021077164,0,0,0.8385175017760799,-2335.303227222682,-1773.5964085470223) " id="svg_5">
    <path stroke="null" id="svg_6" d="m3442.145008,2542.884845l0,24.941l-457.259,0l0,-428.152l24.941,0l0,403.218l432.318,0l0,-0.007zm-293.19,-150.189l33.633,-77.953l42.32,63.479l54.382,-46.826l37.333,38.886l75.645,-114.701l0,-78.496l-76.382,115.353l-37.412,-38.971l-56.117,48.323l-37.412,-56.117l-34.294,79.5l-63.912,-67.029l-67.029,29.617l0,77.655l69.724,-32.254l59.521,59.534zm243.307,-114.817l-76.382,115.354l-37.412,-38.971l-56.117,48.323l-37.412,-56.117l-34.294,79.5l-63.912,-73.265l-67.029,29.617l0,145.5l372.559,0l0,-249.941l-0.001,0z"/>
   </g>
   <g stroke="null" transform="matrix(0.7889880021077164,0,0,0.8385175017760799,-2335.303227222682,-1773.5964085470223) " id="svg_7"/>
   <g stroke="null" transform="matrix(0.7889880021077164,0,0,0.8385175017760799,-2335.303227222682,-1773.5964085470223) " id="svg_8"/>
   <g stroke="null" transform="matrix(0.7889880021077164,0,0,0.8385175017760799,-2335.303227222682,-1773.5964085470223) " id="svg_9"/>
   <g stroke="null" transform="matrix(0.7889880021077164,0,0,0.8385175017760799,-2335.303227222682,-1773.5964085470223) " id="svg_10"/>
   <g stroke="null" transform="matrix(0.7889880021077164,0,0,0.8385175017760799,-2335.303227222682,-1773.5964085470223) " id="svg_11"/>
   <g stroke="null" transform="matrix(0.7889880021077164,0,0,0.8385175017760799,-2335.303227222682,-1773.5964085470223) " id="svg_12"/>
   <g stroke="null" transform="matrix(0.7889880021077164,0,0,0.8385175017760799,-2335.303227222682,-1773.5964085470223) " id="svg_13"/>
   <g stroke="null" transform="matrix(0.7889880021077164,0,0,0.8385175017760799,-2335.303227222682,-1773.5964085470223) " id="svg_14"/>
   <g stroke="null" transform="matrix(0.7889880021077164,0,0,0.8385175017760799,-2335.303227222682,-1773.5964085470223) " id="svg_15"/>
   <g stroke="null" transform="matrix(0.7889880021077164,0,0,0.8385175017760799,-2335.303227222682,-1773.5964085470223) " id="svg_16"/>
   <g stroke="null" transform="matrix(0.7889880021077164,0,0,0.8385175017760799,-2335.303227222682,-1773.5964085470223) " id="svg_17"/>
   <g stroke="null" transform="matrix(0.7889880021077164,0,0,0.8385175017760799,-2335.303227222682,-1773.5964085470223) " id="svg_18"/>
   <g stroke="null" transform="matrix(0.7889880021077164,0,0,0.8385175017760799,-2335.303227222682,-1773.5964085470223) " id="svg_19"/>
   <g stroke="null" transform="matrix(0.7889880021077164,0,0,0.8385175017760799,-2335.303227222682,-1773.5964085470223) " id="svg_20"/>
   <g stroke="null" transform="matrix(0.7889880021077164,0,0,0.8385175017760799,-2335.303227222682,-1773.5964085470223) " id="svg_21"/>
  </g>
 </g>
</svg>