<?xml version="1.0" encoding="iso-8859-1"?>
<svg version="1.1" id="Capa_1" xmlns="http://www.w3.org/2000/svg" xmlns:xlink="http://www.w3.org/1999/xlink" x="0px" y="0px"
	 viewBox="0 0 512 512" style="enable-background:new 0 0 512 512;" xml:space="preserve">
<g>
	<g>
		<path d="M481,271H271c-8.291,0-15,6.709-15,15v211c0,8.291,6.709,15,15,15c124.072,0,225-101.928,225-226
			C496,277.709,489.291,271,481,271z"/>
	</g>
</g>
<g>
	<g>
		<path d="M241,0C116.928,0,16,101.928,16,226c0,119.009,92.928,217.465,210,225.24V234.699c0-1.952,0.396-3.895,1.154-5.728
			c0.764-1.846,1.868-3.508,3.259-4.896l163.061-164.06C353.337,22.894,299.857,0,241,0z"/>
	</g>
</g>
<g>
	<g>
		<path d="M414.269,81.641L256,240.91V241h195c8.291,0,15-6.709,15-15C466,171.565,446.556,120.597,414.269,81.641z"/>
	</g>
</g>
</svg>
