<svg width="405.333" height="405.333" xmlns="http://www.w3.org/2000/svg">
	<g>
	 <title>background</title>
	 <rect x="-1" y="-1" width="407.333" height="407.333" id="canvas_background" fill="none"/>
	</g>
   
	<g>
	 <title>Layer 1</title>
	 <g id="svg_1">
	  <g id="svg_2">
	   <g id="svg_3">
		<path d="m17.72582,227.01994c-5.867,0 -10.667,4.8 -10.667,10.666c0,5.867 4.8,10.667 10.667,10.667c5.867,0 10.667,-4.8 10.667,-10.667c-0.001,-5.866 -4.801,-10.666 -10.667,-10.666z" id="svg_4" fill="#ffffff"/>
		<path d="m13.60818,152.86241c-5.867,0 -10.667,4.8 -10.667,10.667c0,5.867 4.8,10.667 10.667,10.667c5.867,0 10.667,-4.8 10.667,-10.667c-0.001,-5.867 -4.801,-10.667 -10.667,-10.667z" id="svg_5" fill="#ffffff"/>
		<path d="m151.76471,370.47059c-5.867,0 -10.667,4.8 -10.667,10.667c0,5.867 4.8,10.667 10.667,10.667c5.867,0 10.667,-4.8 10.667,-10.667c0,-5.867 -4.8,-10.667 -10.667,-10.667z" id="svg_6" fill="#ffffff"/>
		<path stroke="null" d="m89.96112,50.98006c-22.40934,0 -40.74477,18.33543 -40.74477,40.74476s18.33352,40.74667 40.74477,40.74667s40.74476,-18.33543 40.74476,-40.74476s-18.33543,-40.74667 -40.74476,-40.74667z" id="svg_7" fill="#ffffff"/>
		<path d="m74.667,138.667c-11.733,0 -21.333,9.6 -21.333,21.333s9.6,21.333 21.333,21.333s21.333,-9.6 21.333,-21.333s-9.6,-21.333 -21.333,-21.333z" id="svg_8" fill="#ffffff"/>
		<path d="m63.49053,239.88235c-11.733,0 -21.333,9.6 -21.333,21.333c0,11.733 9.6,21.333 21.333,21.333s21.333,-9.599 21.333,-21.333c0,-11.733 -9.6,-21.333 -21.333,-21.333z" id="svg_9" fill="#ffffff"/>
		<path d="m381.13759,183.60818c5.867,0 10.667,-4.8 10.667,-10.667c0,-5.867 -4.8,-10.667 -10.667,-10.667c-5.867,0 -10.667,4.8 -10.667,10.667c0,5.867 4.8,10.667 10.667,10.667z" id="svg_10" fill="#ffffff"/>
		<path stroke="null" d="m240.92124,31.33259c8.29353,0 15.07876,-6.78524 15.07876,-15.07877c0,-8.29212 -6.78523,-15.07735 -15.07876,-15.07735c-8.29354,0 -15.07877,6.78523 -15.07877,15.07877c0.00141,8.29211 6.78665,15.07735 15.07877,15.07735z" id="svg_11" fill="#ffffff"/>
		<path d="m160,96c11.733,0 21.333,-9.6 21.333,-21.333s-9.6,-21.333 -21.333,-21.333s-21.333,9.6 -21.333,21.333s9.6,21.333 21.333,21.333z" id="svg_12" fill="#ffffff"/>
		<path d="m160,25.45065c5.867,0 10.667,-4.8 10.667,-10.667c0,-5.866 -4.8,-10.666 -10.667,-10.666c-5.867,0 -10.667,4.8 -10.667,10.667c0,5.866 4.8,10.666 10.667,10.666z" id="svg_13" fill="#ffffff"/>
		<path d="m260.03888,100.11765c11.733,0 21.333,-9.6 21.333,-21.333s-9.6,-21.333 -21.333,-21.333c-11.733,0 -21.333,9.6 -21.333,21.333s9.6,21.333 21.333,21.333z" id="svg_14" fill="#ffffff"/>
		<path d="m74.667,309.333c-11.733,0 -21.333,9.6 -21.333,21.333c0,11.733 9.6,21.333 21.333,21.333s21.333,-9.599 21.333,-21.332c0,-11.734 -9.6,-21.334 -21.333,-21.334z" id="svg_15" fill="#ffffff"/>
		<path d="m238.27418,119.76471c-17.707,0 -32,14.293 -32,32s14.293,32 32,32s32,-14.293 32,-32s-14.293,-32 -32,-32z" id="svg_16" fill="#ffffff"/>
		<path stroke="null" d="m334.19641,221.64706c-18.52703,0 -33.68594,15.1589 -33.68594,33.68593c0,18.52703 15.15891,33.68594 33.68594,33.68594c18.52703,0 33.68593,-15.15891 33.68593,-33.68594c0,-18.52703 -15.1589,-33.68593 -33.68593,-33.68593z" id="svg_17" fill="#ffffff"/>
		<path d="m330.667,309.333c-11.733,0 -21.333,9.6 -21.333,21.333c0,11.733 9.6,21.333 21.333,21.333c11.733,0.001 21.333,-9.599 21.333,-21.332c0,-11.734 -9.6,-21.334 -21.333,-21.334z" id="svg_18" fill="#ffffff"/>
		<path d="m330.667,138.667c-11.733,0 -21.333,9.6 -21.333,21.333s9.6,21.333 21.333,21.333c11.733,0 21.333,-9.6 21.333,-21.333s-9.6,-21.333 -21.333,-21.333z" id="svg_19" fill="#ffffff"/>
		<path d="m389.96112,229.37288c-5.867,0 -10.667,4.8 -10.667,10.667c0,5.866 4.8,10.666 10.667,10.666c5.867,0 10.667,-4.8 10.667,-10.667c-0.001,-5.866 -4.801,-10.666 -10.667,-10.666z" id="svg_20" fill="#ffffff"/>
		<path stroke="null" d="m345.96112,49.21535c-18.20351,0 -33.0977,14.8942 -33.0977,33.09771s14.89264,33.09925 33.0977,33.09925c18.2035,0 33.0977,-14.8942 33.0977,-33.0977s-14.8942,-33.09926 -33.0977,-33.09926z" id="svg_21" fill="#ffffff"/>
		<path d="m160,281.56829c-17.707,0 -32,14.293 -32,32s14.293,32 32,32s32,-14.293 32,-32s-14.293,-32 -32,-32z" id="svg_22" fill="#ffffff"/>
		<path stroke="null" d="m127.83131,202.16432c-15.45354,0 -28.0977,12.64417 -28.0977,28.09771c0,15.45354 12.64416,28.09771 28.0977,28.09771s28.09771,-12.64417 28.09771,-28.09771c0,-15.45354 -12.64416,-28.09771 -28.09771,-28.09771z" id="svg_23" fill="#ffffff"/>
		<path stroke="null" d="m159.70588,140.94118c-11.68532,0 -21.11764,9.43233 -21.11764,21.11764s9.43232,21.11765 21.11764,21.11765s21.11765,-9.43233 21.11765,-21.11765s-9.43233,-21.11764 -21.11765,-21.11764z" id="svg_24" fill="#ffffff"/>
		<path d="m245.333,309.333c-11.733,0 -21.333,9.6 -21.333,21.333c0,11.734 9.6,21.334 21.333,21.334c11.733,0 21.333,-9.6 21.333,-21.333c0.001,-11.734 -9.599,-21.334 -21.333,-21.334z" id="svg_25" fill="#ffffff"/>
		<path d="m246.50947,378.70588c-5.867,0 -10.667,4.8 -10.667,10.667c0,5.867 4.8,10.667 10.667,10.667c5.867,0 10.667,-4.8 10.667,-10.667c0,-5.867 -4.8,-10.667 -10.667,-10.667z" id="svg_26" fill="#ffffff"/>
		<path stroke="null" d="m237.68594,193.333c-27.47189,0 -49.64706,22.17517 -49.64706,49.64706s22.17517,49.64705 49.64706,49.64705s49.64705,-22.17517 49.64705,-49.64705s-22.17516,-49.64706 -49.64705,-49.64706z" id="svg_27" fill="#ffffff"/>
	   </g>
	  </g>
	 </g>
	</g>
   </svg>