<?xml version="1.0" encoding="windows-1252"?>
<!-- Generator: Adobe Illustrator 16.0.0, SVG Export Plug-In . SVG Version: 6.00 Build 0)  -->
<!DOCTYPE svg PUBLIC "-//W3C//DTD SVG 1.1//EN" "http://www.w3.org/Graphics/SVG/1.1/DTD/svg11.dtd">
<svg version="1.1" id="Capa_1" xmlns="http://www.w3.org/2000/svg" xmlns:xlink="http://www.w3.org/1999/xlink" x="0px" y="0px" width="48.749px" height="48.748px" viewBox="0 0 48.749 48.748" style="enable-background:new 0 0 48.749 48.748;" xml:space="preserve">
<g>
	<path d="M43.667,9.503c-0.001-0.046,0-0.087-0.001-0.133l-0.101,0.004C39.1,3.674,32.16,0,24.375,0C10.935,0,0,10.934,0,24.373   c0,13.439,10.934,24.375,24.373,24.375c13.439,0,24.374-10.936,24.374-24.375C48.749,18.778,46.848,13.621,43.667,9.503z    M40.384,31.814c-2.882,2.312-6.147,4.933-6.344,12.709l0.05,0.002c-2.484,1.203-5.225,1.953-8.113,2.158   c0.512-9.554,4.375-12.681,8.465-15.963c4.304-3.451,8.725-7.036,9.199-17.706c1.062,1.796,1.885,3.75,2.414,5.82l-0.103,0.004   C46.235,27.12,43.393,29.4,40.384,31.814z M41.674,10.204c0.225,11.937-4.002,15.36-8.484,18.957   c-4.281,3.437-8.692,7.006-9.215,17.577c-2.004-0.036-3.944-0.336-5.788-0.867c0.32-11.293,4.686-14.805,9.309-18.514   c4.913-3.941,9.981-8.019,10.045-21.059C39.078,7.423,40.469,8.733,41.674,10.204z M26.244,25.798   c-4.693,3.765-9.53,7.679-10.025,19.404c-1.813-0.713-3.511-1.652-5.059-2.789c0.412-10.853,4.72-14.297,9.286-17.922   c5.014-3.98,10.192-8.093,10.051-21.633c1.777,0.507,3.465,1.228,5.033,2.134C35.8,18.12,31.158,21.854,26.244,25.798z    M14.57,17.008c-4.545,2.831-9.623,6.026-10.84,15.987c-0.621-1.481-1.082-3.046-1.373-4.668   c0.217-8.516,3.681-10.674,7.348-12.958c3.472-2.163,7.05-4.403,6.848-11.956c1.95-0.729,4.029-1.19,6.191-1.348   C23.229,11.583,19.212,14.116,14.57,17.008z M14.562,4.272c-0.06,5.732-2.676,7.383-5.913,9.399   C6.54,14.984,4.273,16.4,2.643,19.067C4.23,12.561,8.67,7.159,14.562,4.272z M5.476,36.326C5.858,24.809,10.821,21.7,15.628,18.705   c4.746-2.956,9.631-6.034,9.113-16.696c1.276,0.021,2.528,0.149,3.745,0.376c0.26,12.952-4.377,16.645-9.284,20.54   c-4.517,3.587-9.175,7.292-9.963,17.908C7.795,39.505,6.53,37.989,5.476,36.326z M36.096,43.421   c0.428-5.94,2.914-7.938,5.541-10.047c1.784-1.433,3.598-2.897,4.826-5.448C45.415,34.468,41.522,40.07,36.096,43.421z"/>
</g>
<g>
</g>
<g>
</g>
<g>
</g>
<g>
</g>
<g>
</g>
<g>
</g>
<g>
</g>
<g>
</g>
<g>
</g>
<g>
</g>
<g>
</g>
<g>
</g>
<g>
</g>
<g>
</g>
<g>
</g>
</svg>