<svg width="340" height="340" xmlns="http://www.w3.org/2000/svg">
    <g>
     <title>background</title>
     <rect fill="none" id="canvas_background" height="342" width="342" y="-1" x="-1"/>
     <g display="none" id="canvasGrid">
      <rect fill="url(#gridpattern)" stroke-width="0" y="0" x="0" height="100%" width="100%" id="svg_1"/>
     </g>
    </g>
   
    <g>
     <title>Layer 1</title>
     <g stroke="null" transform="matrix(0.6670385943938623,0,0,0.6670385943938623,-862.1267391717629,-658.9013156573201) " id="svg_30">
      <title>background</title>
      <rect stroke="null" x="1291.8261" y="982.66045" width="514" height="514" id="svg_28" fill="none"/>
      <g stroke="null" id="svg_27" display="none">
       <rect stroke="null" id="svg_31" width="580" height="400" x="1292.8261" y="983.66045" stroke-width="0" fill="url(#gridpattern)"/>
      </g>
     </g>
     <path stroke="null" fill="#ffffff" d="m213.46889,179.64045c0.36422,-2.91376 0.36422,-5.4633 0.36422,-7.64861c-1.09266,-8.01283 -4.00641,-16.02566 -8.37705,-22.5816c-0.72843,-1.45688 -2.18531,-3.64219 -2.54953,-6.55595c-0.72844,-5.09907 1.8211,-8.37705 3.27797,-10.56237c1.45688,-2.18531 2.54954,-4.00641 3.6422,-6.55594l-5.4633,-4.37063l-7.28439,-5.4633c-3.27797,-2.54953 -4.37063,-6.92017 -2.54953,-10.56236c1.09266,-2.18532 1.82109,-4.00641 2.54953,-6.19173c-1.82109,0.36421 -3.64219,0.72844 -5.09907,0.72844c-1.09265,2.18531 -2.91375,4.00641 -4.73485,5.46329c-1.45688,0.72844 -2.91376,1.45688 -4.73485,1.45688l-0.72844,0l-2.18532,-0.36422c-0.36421,0.36422 -1.09265,0.72844 -1.45688,1.09266c-1.09265,0.72844 -1.82109,1.09266 -1.82109,1.45688c-1.09266,3.27797 -4.37063,5.09907 -7.64861,5.09907l-1.45688,0l-0.36421,1.45688c-0.72844,2.54953 -2.54954,4.73485 -5.4633,5.46329c-4.73485,1.45688 -9.83392,5.46329 -11.2908,11.2908c-0.36421,2.18532 -1.82109,4.37063 -4.00641,5.46329c-1.09266,0.72844 -2.54954,0.72844 -3.64219,0.72844l-1.09266,0c-0.36421,0.72844 -0.72844,1.8211 -1.09265,2.54954c-1.45688,4.00641 -4.73486,12.01924 -14.56878,12.38346c-1.8211,2.54953 -4.37063,4.00641 -6.92017,5.09907c-0.36422,1.45688 -1.09266,2.91375 -1.8211,4.00641c-1.45688,2.18532 -4.00641,3.64219 -6.55595,3.64219l-1.45688,0c-0.36421,2.18532 -1.45688,4.00642 -2.91375,5.09907l-0.72844,0.72844c0,3.27797 -0.72844,6.92017 -2.18532,9.83392c0,2.18532 -1.09266,4.00642 -2.54954,5.4633l-5.09907,4.37063c-1.45688,1.45688 -3.27797,2.18531 -5.46329,2.18531c-1.09266,0 -2.54953,-0.36421 -3.64219,-0.72843c-1.45688,1.09265 -3.27797,1.82109 -5.46329,1.82109l-1.09266,0c-0.36422,0.36422 -0.36422,0.72844 -0.72844,1.09266l0,0.36421c1.09266,4.37063 3.27798,9.46971 5.82751,14.20456l0.72844,1.45688c1.82109,3.27798 2.54953,4.37063 2.91376,4.73485l0.36421,0c1.09266,0 2.54954,0.36422 4.37063,0.72844c5.4633,1.8211 8.74127,7.28439 7.64861,12.38346c-0.36422,1.8211 -1.45688,3.27798 -2.18532,4.00642c0,0.72843 0.72844,1.82109 1.8211,3.64219l4.37063,6.92017l1.82109,2.91376l5.46329,0c5.09907,0 9.46971,0.36421 13.1119,1.45688c1.45688,-0.36422 3.27798,-0.72844 5.09907,-0.36422c1.45688,0 2.91376,0 4.00642,0.36422l2.54953,0c1.09266,0 1.45688,0 1.45688,-0.36422c1.45688,-1.09266 2.91376,-1.45688 4.73485,-1.45688c1.45688,0 2.54954,0.36422 4.00642,1.09266l5.09907,2.54953c2.91375,1.45688 4.73485,4.73485 4.37063,7.64861c1.09265,1.45688 1.45688,3.27797 1.45688,5.09907c1.45687,1.45688 2.54953,2.91375 3.27797,4.00641c0.36422,0.36422 0.36422,0.72844 0.72844,1.09266l1.09265,0c0.72844,0 1.45688,-0.36422 2.54954,-0.36422c0.72844,-0.72844 1.82109,-1.09266 2.91376,-1.45688l5.46329,-1.09265c2.18532,-0.36422 4.37063,-0.72844 5.82751,-1.09266c0.72844,-0.36422 1.45688,-0.36422 2.18532,-0.36422c0.72844,0 1.45688,0 2.18532,0.36422c0.72843,-0.36422 1.82109,-0.36422 2.54953,-0.36422c1.09266,0 2.54954,0.36422 3.64219,0.72844c1.8211,-0.36421 3.64219,-0.36421 5.09907,-0.36421l1.8211,0l0,-1.45688c0.36421,-1.8211 0.72844,-4.00642 2.18531,-6.19173c1.8211,-2.54954 4.37063,-4.00642 6.55595,-5.09907c2.54954,-1.09266 5.09907,-1.8211 8.01283,-2.54954c-0.72844,-3.27797 -0.72844,-6.55595 -0.72844,-9.83392c0,-3.64219 2.54954,-6.92017 6.55595,-7.64861c1.8211,-0.36421 3.64219,-0.72844 5.46329,-0.72844c-0.36421,-2.18531 -0.72843,-4.73485 -0.72843,-6.92017c0,-2.18532 0,-4.37063 0.36421,-6.55595c0,-1.09265 0.36422,-2.54953 0.36422,-3.64219c-0.72844,-0.36421 -2.18532,-0.72844 -2.91376,-1.09265c-4.00641,-1.45688 -9.46971,-3.6422 -12.38346,-9.10549c-1.45688,-3.27797 -1.09265,-6.92017 1.8211,-9.46971l1.09265,-1.09265c-0.36421,-5.09907 0,-9.46971 0.36422,-13.47612l0.00003,-0.00002l0,0.00001z" id="svg_26"/>
     <path stroke="null" fill="#ffffff" d="m32.63626,73.27906c0,6.46676 0,13.20296 0.30412,19.66971c0,4.04172 1.52061,10.23903 -0.30412,14.28075c-0.30412,0.5389 -0.60825,1.07779 -1.21649,1.61669c2.12887,0.26945 3.9536,0.5389 5.77834,1.34724c1.21649,0.5389 2.12887,1.07779 3.04123,1.88614l2.73711,0c0.30412,0 0.60825,0 0.60825,0.26945c0.30412,0 0.30412,0 0.60825,0.26944c0.30412,0 0.60825,0.26945 0.60825,0.26945c0.30412,0 0.30412,0 0.60825,0.26944c0.30412,0 0.60824,0.26945 0.91236,0.26945c0.30412,0 0.30412,0.26945 0.60825,0.26945c0.30412,0.26944 0.60825,0.26944 0.91237,0.53889c0.30412,0 0.60825,0.26945 0.91236,0.26945c0.30412,0 0.30412,0 0.60825,0.26945s0.91237,0.26944 1.21649,0.5389c1.21649,0.26944 2.12887,0.53889 3.04123,0.53889c0.91237,0 1.82474,0.26945 2.73711,0.26945c1.52061,0.26945 3.34535,0.5389 5.1701,0.5389c1.82474,0.26945 3.64948,0.26945 5.1701,0.5389c0.30412,0 0.91237,0 1.21649,0.26944l10.94844,0c0.30412,0 0.60825,0 0.60825,0.26945l0.60824,0c0.30412,0 0.60825,0 0.91237,0.26945l0.60825,0c0.30412,0 0.60825,0.26944 0.91237,0.26944l0.60824,0c0.60825,0.26945 0.91237,0.26945 1.52062,0.5389c4.86597,-0.80834 14.59791,-4.58062 16.72678,-8.35289l-3.95361,-4.58062c1.82474,-2.42504 4.86597,-2.42504 7.90721,-2.69448c0.60825,0 1.21649,-0.26945 1.52062,-0.26945c0.91236,-0.26945 1.52061,-0.5389 2.12886,-0.80835c0.30412,0 0.60825,0.26945 0.91237,0.26945l4.86597,0c0.30412,0 0.60825,0 0.91236,0.26945c0.60825,0 0.91237,0.26944 1.52062,0.5389s0.91236,0.53889 1.52061,0.80834c0.91237,0.5389 1.82474,1.07779 3.04123,1.07779c0.60825,0 0.91237,0 1.52062,0.26945l1.82474,0c0.30412,0 0.91236,-0.26945 1.21649,-0.26945l0.30412,0c0.30412,0 0.60825,-0.26945 0.60825,-0.26945s0.30412,0 0.30412,-0.26944c0.30412,0 0.30412,-0.26945 0.60825,-0.26945l0.30412,-0.26944l0.60825,-0.5389l0.30412,-0.26945l0.60825,-0.5389l0.30412,-0.26944l0.91237,-0.80835c3.04123,-3.23337 5.77834,-6.7362 7.90721,-10.23903c0.60824,-0.80834 1.21649,-1.88613 1.52061,-2.69448c0.91237,-1.61669 1.82474,-3.23337 2.43299,-4.85007c0.30412,-0.26944 0.30412,-0.80834 0.60825,-1.07779c0.30412,-0.26944 0.30412,-0.80834 0.60825,-1.07779c0.30412,-0.5389 0.60825,-1.07779 0.60825,-1.61669l0.91236,-1.61669c0.91237,-0.80835 1.82474,-1.07779 3.04123,-1.07779l3.64948,0c0.60825,-0.26945 1.52062,-0.5389 2.12887,-1.07779c0.30412,-0.26944 0.60825,-0.80834 0.91236,-1.34724c0,-0.26945 0.30412,-0.5389 0.30412,-0.80835c0.60825,-1.34724 0.91237,-2.69448 1.21649,-4.04172c0.30412,-1.07779 0.30412,-2.15559 0.60825,-3.23337l0,-1.88614l0,-1.07779c0,-1.88613 0,-3.50282 0.30412,-5.38896c0,0 -0.30412,-0.26945 -0.60825,-0.26945l-0.30412,0l-0.30412,-0.26945s-0.30412,0 -0.30412,-0.26944c0,0 -0.30412,0 -0.30412,-0.26945c0,0 -0.30412,0 -0.30412,-0.26944c-0.30412,0 -0.30412,-0.26945 -0.60824,-0.26945c0,0 -0.30412,0 -0.30412,-0.26945c-0.30412,0 -0.30412,0 -0.60825,-0.26944c-0.30412,0 -0.30412,-0.26945 -0.60825,-0.26945c0,0 -0.30412,0 -0.30412,-0.26944c-0.30412,0 -0.30412,0 -0.60825,-0.26945c-0.30412,0 -0.30412,0 -0.60825,-0.26945c-0.30412,0 -0.30412,0 -0.60825,-0.26944c-0.30412,0 -0.30412,0 -0.60825,-0.26945c-0.30412,0 -0.30412,0 -0.60825,-0.26944c-0.30412,0 -0.30412,0 -0.60825,-0.26945c-0.30412,0 -0.30412,0 -0.60825,-0.26945c-0.30412,0 -0.30412,0 -0.60825,-0.26944l-0.60825,0c-0.30412,0 -0.30412,0 -0.60825,-0.26945l-0.91236,0l-0.91237,0l-0.91236,0l-0.30412,0l-0.30412,0l-0.30412,0l-0.30412,0l0.30412,-2.15559c-1.21649,0.26945 -2.73711,0.5389 -3.9536,0.80835c-9.1237,2.69448 -16.72678,8.62234 -24.32987,13.20296l-0.30412,0.26945s-0.30412,0 -0.30412,0.26944l-0.30412,0l-0.30412,0l-0.30412,0l-0.30412,0l-0.30412,0c-0.30412,0 -0.60825,-0.26944 -0.60825,-0.5389l-0.30412,-0.26944c-0.91237,-1.07779 -2.12887,-2.15559 -3.04124,-3.23337c-1.82473,-2.15559 -3.64948,-4.58062 -5.1701,-7.00565c-0.60825,-1.07779 -1.52061,-2.42503 -2.12886,-3.77227c0,-0.26945 0,-0.26945 -0.30412,-0.5389c-0.60825,-1.07779 -0.91236,-1.88613 -2.12886,-2.69448l-1.82474,-0.80835c-0.60825,0 -1.21649,-0.26944 -1.82474,-0.26944l-1.21649,0c-0.60825,0 -1.21649,0.26944 -2.12886,0.26944c-0.60825,0 -0.91237,0.26945 -1.52062,0.26945l-0.30412,0l0,-0.26945l-4.56186,0c-0.60825,0 -0.91236,-0.26944 -1.52061,-0.26944c-1.21649,-0.26945 -2.12887,-0.80835 -3.04123,-1.07779c-0.60825,-0.26945 -0.91237,-0.5389 -1.52062,-0.80835l-2.73711,-1.61668c-1.21649,-1.34724 -2.43299,-2.42504 -3.95361,-2.96393c-0.30412,-0.26944 -0.91236,-0.5389 -1.52061,-0.5389c0,0 -0.30412,0 -0.60825,-0.26944s-0.91237,-0.26945 -1.21649,-0.5389c-0.30412,0 -0.30412,0 -0.60825,-0.26945c-0.60825,-0.26944 -1.21649,-0.26944 -1.82474,-0.5389l-0.30412,0c-0.30412,-0.26944 -0.91237,-0.26944 -1.52062,-0.5389c-0.30412,0 -0.30412,0 -0.60825,-0.26944c-0.60824,0 -1.21649,-0.26945 -1.52061,-0.26945l-0.60825,0c-0.60825,-0.26944 -1.52061,-0.26944 -2.12886,-0.26944l-0.30412,0c-0.60825,0 -1.21649,-0.26945 -1.82474,-0.26945l-4.86597,0l-0.30412,0c-0.60825,0 -1.21649,0 -1.52062,0.26945l-0.60825,0c-0.30412,0 -0.91236,0.26944 -1.21649,0.26944c-0.30412,0 -0.30412,0 -0.60825,0.26945c-0.60824,0 -0.91236,0.26944 -1.52061,0.5389c-1.52062,1.07779 -1.82474,2.42503 -1.82474,4.04172c0,0.5389 0,1.07779 0.30412,1.34724l0,2.15559c0,0.80835 -0.30412,1.61669 -0.60825,2.42504c-0.30412,0.5389 -0.30412,1.07779 -0.60825,1.34724c-0.60825,1.88614 -1.52062,3.50282 -1.21649,5.38896c-0.91237,0.80835 -2.12886,1.34724 -3.04123,2.15559c-0.60825,0.5389 -1.52062,1.07779 -2.12887,1.61669l-1.82473,1.61668c-0.30412,0.26945 -0.60825,0.5389 -0.60825,0.80835c-1.82474,2.42503 -2.12887,5.38896 0.60825,8.89179l-4.56186,3.77227l-0.00002,-0.00004l-0.00001,-0.00001z" id="svg_25"/>
     <path stroke="null" fill="#ffffff" d="m169.01009,270.88525c-0.61504,0 -0.92256,0.62367 -1.23008,0.62367l0,0.31184c-0.30751,0 -0.92255,0.31184 -1.23008,0.31184c-0.30751,0 -0.92255,0.31183 -1.23008,0.31183l-1.23008,0l0,0.31184l-0.61503,0l-0.92256,0l-0.30752,0c-0.30751,0 -0.30751,0 -0.61504,-0.31184l-0.30751,0c-0.30752,0 -0.61504,-0.31183 -0.61504,-0.31183c-1.84511,-1.24736 -2.76766,-3.11839 -3.99774,-4.67758c-0.61504,-0.62368 -1.23008,-1.24736 -1.84511,-1.55919c-0.30752,-0.31184 -0.92256,-0.31184 -1.23008,-0.62368c-0.30752,-0.62368 -0.61504,-1.55919 -0.61504,-2.18287c0,-0.31183 0,-0.62367 0.30752,-0.93551c0,-0.31184 0.30751,-0.62368 0.61504,-0.93552c-0.92256,-0.93551 -1.23008,-1.87103 -1.23008,-3.11838c0,-0.31183 0,-0.62368 0.30751,-1.24736l-4.30526,-2.18286c-0.30751,0.31183 -0.61504,0.62368 -1.23008,0.62368l-0.30751,0c-0.30752,0 -0.61504,0.31183 -0.92256,0.31183l-0.30751,0c-0.30752,0 -0.92256,0.31184 -1.23008,0.31184l-1.23008,0l-0.30752,0l-1.23008,0l-0.92255,0c0.92255,1.24736 1.53759,2.49471 1.8451,3.74206l0.30752,0.62368c1.23008,2.4947 0.61504,5.30125 -1.23008,7.17228l-2.46015,2.18287c-1.23008,1.24736 -3.07518,1.87103 -4.92029,1.87103c-0.92255,0 -1.8451,-0.31183 -2.46014,-0.62367c0,0 -0.30752,0.31183 -0.92256,0.62367c-1.23008,0.93552 -2.76766,1.55919 -4.30526,1.55919l-1.23008,0c-0.92255,0.62368 -2.15262,0.62368 -3.07518,0.62368c-0.92256,0 -1.84511,-0.31184 -2.76766,-0.62368l-0.92256,-0.31184l-0.30752,0c-4.61277,1.24736 -7.99547,1.55919 -11.37818,1.55919c-4.92029,0 -9.22555,-0.93552 -14.76088,-3.43023c-0.30752,0 -0.92256,0.31184 -1.23008,0.31184c-0.61504,0.31184 -1.53759,0.31184 -2.15263,0.62368c-1.23007,2.18286 -3.3827,3.43022 -5.84285,3.43022l-1.23008,0c-0.30751,0.62368 -0.92255,1.24736 -1.53759,1.55919c-0.30752,1.24736 -1.23008,2.49471 -2.46015,3.11838c0,0.31184 0,0.31184 -0.30752,0.62368c-0.92255,1.87103 -2.15262,3.11838 -3.69022,4.36574c-0.30751,0.31183 -0.30751,0.93551 -0.61503,1.24736c0,1.24736 -0.30752,2.49471 -1.23008,3.74206c-0.61504,0.93551 -1.23008,1.55919 -2.15263,1.87103c-0.30751,1.24735 -1.23008,2.4947 -2.46015,3.43022c-3.99774,2.80654 -9.53307,3.11838 -13.22328,3.11838l-2.76766,0c0.61504,0.93552 1.53759,1.55919 2.76766,1.87103l-0.30752,1.55919c0.30752,0.31184 0.61504,0.93552 0.92256,1.24736c0.61504,0.93552 1.53759,1.55919 2.15263,2.18287c0.30751,0.31183 0.92255,0.62368 1.23007,1.24736l0.61504,-0.31184l0.92256,0.93552l0,0.62368l-1.84511,0l0.61504,1.55919l-0.61504,0c-0.92255,1.87103 -0.92255,3.74206 -0.30751,5.61309l5.84285,1.87103l0.30751,0.31183l0.30752,0.31184c0.61504,0 1.23008,0 1.84511,0.31184c1.84511,0.31183 3.69022,1.24735 5.22781,2.4947c0,-0.62368 0.30752,-1.24736 0.30752,-1.55919c0.30751,0 0.61503,0.31183 0.61503,0.31183l1.84511,0s0.30752,0 0.30752,-0.31183l0.30751,0s0.30752,0 0.30752,-0.31184l0.30752,-0.31183l0.30751,-0.31184l0.30752,-0.31184l0.30751,-0.31183l0,-0.31184l0.30752,-0.31183c0,-0.31184 0.30752,-0.31184 0.30752,-0.62368l0,-0.31184s0,-0.31183 0.30751,-0.31183l0,-0.31184s0,-0.31184 0.30752,-0.31184c0,0 0,-0.31183 0.30751,-0.31183c0,0 0,-0.31184 0.30752,-0.31184c0,0 0,-0.31183 0.30752,-0.31183l0,-0.31184s0,-0.31184 0.30751,-0.31184l0,-0.31183c0,-0.31184 0.30752,-0.31184 0.30752,-0.62368c0,0 0.30751,-0.31184 0.30751,-0.62368c0.92256,-1.24736 1.53759,-2.49471 2.46015,-4.0539c0.61504,-0.93552 1.53759,-2.18287 2.15263,-3.11838c1.23008,-1.55919 2.46015,-2.80655 3.99774,-3.74206c0.30752,-0.31184 0.61504,-0.31184 1.23008,-0.62368c0,0 0.30752,0 0.30752,-0.31184c0.30751,0 0.61503,-0.31184 0.92255,-0.31184c0.30752,0 0.30752,0 0.61504,-0.31183c0.30752,0 0.61504,-0.31184 0.92256,-0.31184c0.30751,0 0.30751,0 0.61504,-0.31183c0.30751,0 0.61503,-0.31184 0.92255,-0.31184c0.30752,0 0.30752,0 0.61504,-0.31184c0.30752,0 0.61504,-0.31183 1.23008,-0.31183l0.30752,0c0.61503,0 0.92255,-0.31184 1.53759,-0.31184l1.84511,0c0.30751,0 0.92255,0 1.23008,0.31184l0.30751,-0.62368l0.30752,-0.31184l1.23008,0c1.23008,0 2.15262,0.31184 3.3827,0.31184c1.84511,0.31184 3.07518,0.93552 4.30526,2.18286c1.23008,0.93552 1.84511,0.93552 3.07518,0.93552c1.23008,0.31184 2.15263,1.24736 3.07518,1.87103c0.61504,0.62368 1.23008,1.55919 1.84511,2.18286c0.30752,0.31184 1.23008,1.55919 2.46015,2.80655c0.61504,0.62368 0.92256,1.24736 1.53759,1.87103c0.92255,0.93551 1.53759,1.87103 2.46014,2.80654c1.53759,1.87103 2.76767,3.11838 2.76767,3.11838c0,0.31184 -1.23008,1.87103 -1.23008,1.87103c0.61504,0.62368 1.53759,0.93551 2.46015,0.93551c0.30751,0 0.61504,0 0.92255,0.31184c0.61504,0 1.23008,0.31184 1.84511,0.31184c0.61504,0 1.23008,0.31183 1.84511,0.31183l3.07518,0c0.30752,0 0.92256,-0.93551 1.53759,-1.87103c0.61504,-1.24735 1.84511,-2.80654 2.76767,-4.0539c0,-0.31183 0.30751,-0.31183 0.30751,-0.62368c-0.30751,-0.31183 -0.61503,-0.62368 -0.61503,-0.93551l-0.92256,-1.24736c-1.23008,-1.55919 -1.53759,-3.74206 -0.92256,-5.61309c0.61504,-1.87103 2.15263,-3.43023 3.99774,-4.0539c1.53759,-0.31184 3.07518,-0.62368 4.61277,-0.62368l1.84511,0l0.30751,-0.62368c0.92256,-1.55919 2.76767,-2.80655 4.92029,-3.11838l0.30752,-0.31184c0,-3.11838 2.46015,-5.92493 5.53533,-6.5486c0.92255,-1.87103 2.46015,-3.43023 4.30526,-4.67758c0,-0.62368 0.30751,-1.24736 0.30751,-1.55919c0,-0.31184 0,-0.62368 0.30752,-0.62368c-0.30752,-2.49471 0.61504,-4.98941 2.76766,-6.54861c0.61504,-0.31183 1.53759,-1.55919 2.46015,-2.4947c0.30752,-0.31184 0.92256,-1.55919 1.23008,-1.87103c-0.92256,0.62368 -1.53759,0 -1.84511,0l0.00007,-0.00004l0.00001,0z" id="svg_24"/>
     <path stroke="null" fill="#ffffff" d="m38.92125,281.08465c0.26243,0.32899 0.26243,0.65798 0.52487,1.31596c0.26243,0.32899 0.52487,0.98697 1.04973,1.64495c0.26243,0 0.26243,0.32898 0.52487,0.32898l0.52487,0.65798l0.78729,0.98697c1.31216,1.64494 2.3619,2.9609 2.3619,3.28989l0.26243,1.97394l8.66027,0c0.52487,0 1.04973,-0.32899 1.5746,-0.32899l0.26243,0c0.52487,0 1.04973,-0.32899 1.31216,-0.65798l0.26243,0c0.52487,-0.32898 0.78729,-0.32898 1.31216,-0.65798l0.26243,-1.64494l-1.5746,-1.97394l-0.78729,-0.98697l0.78729,-0.65797c0.26243,0.32898 0.52487,0.65797 0.7873,0.65797l0.26243,0c0.26243,0 0.26243,0.32899 0.52487,0.32899l2.09946,0l-0.26243,-1.31596l-0.26243,-0.65798l1.31216,-1.64494l-0.52487,-1.64495c0.7873,-0.32898 1.5746,-0.65798 2.3619,-1.31596c0.78729,-0.65798 1.31216,-1.31596 1.5746,-2.30292l-0.52487,-1.31596l-0.26243,-0.65798l2.62432,-0.98697l0.26243,-1.64494l0,-0.65798l1.5746,-0.98697l0,-1.97393c0.26243,-0.32899 0.52487,-0.32899 0.78729,-0.65798l0.26243,0c0.26243,0 0.26243,-0.32899 0.52487,-0.32899l3.14919,0c0.26243,0 0.78729,0.32899 1.04973,0.32899c0.26243,-2.30293 0.52486,-1.31596 1.04973,-1.97394c0.52486,-0.32899 0.78729,-0.98697 1.31216,-1.31596c1.83703,-0.98697 3.93649,-1.31596 5.77352,-2.30292l1.5746,0.98696c0.26243,0 0.26243,0.32899 0.52486,0.32899c0.26243,0.32898 0.7873,0.32898 1.04973,0.65798c0.26243,0 0.26243,0.32898 0.52487,0.32898s0.52487,0.32899 1.04973,0.32899c0.26243,0 0.26243,0 0.52487,0.32898c0.26243,0 0.7873,0.32899 1.04973,0.32899l0.26243,0c0.52486,0 0.78729,0.32899 1.31216,0.32899l0.26243,0c0.26243,0 0.52487,0 1.04973,0.32898l5.24864,0c0.52487,0 1.04973,0 1.5746,-0.32898l0.26243,0c0.52487,0 1.31216,-0.32899 1.83702,-0.32899c0.26243,0 0.26243,-0.98697 0.52487,-0.98697c0.52487,-0.32898 1.31216,-1.31595 2.09946,-1.31595c0,0 0.26243,0.32898 0.52487,0c0.52487,-0.65798 1.31216,-0.65798 2.09946,-0.98697l0.26243,1.97394l2.09946,1.31596l2.36189,-1.64495l0.7873,0.65798l0.7873,0.65798c0.26243,-0.32899 0.52487,-0.65798 0.78729,-0.65798c0,0 0.26243,0 0.26243,-0.32899c0.26243,-0.32898 0.52487,-0.32898 0.78729,-0.32898l0.26243,0c0.26243,0 0.7873,-0.32899 1.04973,-0.32899l2.62432,0c0.26243,0 0.7873,0.32899 1.04973,0.32899l2.09946,-2.30293l-0.7873,-1.97393c-0.26243,-0.32899 -0.26243,-0.65798 -0.52487,-0.98697c-0.26243,-0.32899 -0.26243,-0.65798 -0.52487,-0.65798c-0.26243,-0.32899 -0.78729,-0.65798 -1.04973,-0.65798l0,-0.32898l0,-0.32899l0,-0.32899l-0.26243,-0.32898l-0.26243,-0.32899s-0.26243,0 -0.52487,-0.32898l-0.26243,0l-0.26243,0l-0.78729,0l-0.7873,0l-1.04973,0l-0.7873,0l-0.78729,0l-0.7873,0l-1.04973,0l-1.04973,0l-0.26243,-0.32899c-0.26243,0 -0.52487,-0.32899 -0.52487,-0.32899l-1.31216,0c-0.26243,0 -0.78729,0.32899 -1.04972,0.32899l-0.26243,0.32899l-1.83703,0l-1.04972,0l-2.09946,0c-2.09946,-4.27686 -4.46135,-8.55372 -6.56082,-12.83058c-1.04973,-1.97394 -2.62432,-4.60584 -2.62432,-7.23776c0,-0.32899 0.52487,-0.98697 0.52487,-1.31596c0,-0.65798 0.52487,-1.31596 0.7873,-1.97394c0,-0.32899 0.26243,-0.32899 0.52487,-0.65798l0.26243,-0.32898l0.26243,-0.32899c0.26243,-0.32899 0.26243,-0.32899 0.26243,-0.65798c0.26243,-0.65798 -0.26243,-1.64494 -0.78729,-1.97394c-0.26243,0 -0.26243,-0.32898 -0.52487,-0.32898s-0.52487,0 -0.52487,-0.32899l-2.09946,0c-0.26243,0 -0.52487,0 -0.78729,-0.32899c-0.26243,0 -0.52487,-0.32898 -0.7873,-0.32898c-0.52487,-0.32899 -0.7873,-0.65798 -1.04973,-0.98697c-0.78729,-0.65798 -1.31216,-1.64494 -2.09946,-2.63192c-0.78729,-1.31595 -1.31216,-2.63191 -1.83702,-3.94787l-2.3619,-5.92179c-0.52486,-1.31596 -1.04972,-2.63192 -1.31216,-3.94787c-0.26243,-0.65798 -0.52487,-1.31596 -0.52487,-1.97394c-0.26243,-1.31596 -0.7873,-2.63192 -1.04973,-4.27686c0,-0.65797 -0.26243,-0.98696 -0.26243,-1.31595l0,-1.64495c0.26243,-1.64494 1.04972,-1.97394 2.09946,-4.60584c0.52487,-1.31596 1.04973,-1.64494 1.31216,-1.64494c0.26243,0 0,-0.32899 -0.26243,-0.65798l-0.52487,-0.65798s-0.26243,-0.32899 -0.52487,-0.32899c-0.26243,-0.32898 -0.78729,-0.32898 -1.31216,-0.65798c-0.52487,0 -1.04973,-0.32898 -1.5746,-0.32898c-0.52487,0 -0.78729,0 -1.04973,-0.32899c-0.26243,0 -0.78729,0 -0.78729,-0.32899l-1.31216,1.31596c-0.52487,0 -0.78729,-0.32898 -1.31216,-0.32898c-1.04973,-0.65798 -2.3619,-1.64495 -3.67405,-3.28989l-1.31216,-1.64495c-0.78729,-0.98696 -1.31216,-1.97394 -1.83702,-2.63192c-0.52487,-0.98696 -1.04973,-1.64494 -1.31216,-2.63191c0,-0.32899 -0.26243,-0.32899 -0.26243,-0.65798c-0.26243,0 -0.7873,0 -1.04973,0.32898l-0.26243,0c-0.26243,0 -0.52487,0 -0.7873,0.32899l-0.52486,0c-0.26243,0 -0.52487,0 -0.7873,0.32898s-0.52487,0 -0.7873,0.32899l-0.26243,0c-0.26243,0 -0.7873,0 -1.04973,0.32899l-1.04973,0l-1.04973,0l-1.04973,0l-1.5746,0l-0.26243,0c-0.26243,0 -0.7873,0 -1.04973,-0.32899l-0.26243,0c-0.52487,0 -0.78729,-0.32899 -1.31216,-0.65798l-0.26243,0c-0.52487,-0.32898 -0.78729,-0.32898 -1.31216,-0.65798c-0.26243,0 -0.52487,-0.32898 -0.52487,-0.65798c0,0 -0.26243,0 -0.26243,-0.32898c-0.26243,0 -0.26243,-0.32899 -0.52487,-0.32899c0,0 -0.26243,0 -0.26243,-0.32898l-0.52487,-0.65798l-0.7873,-0.98697c-0.26243,-0.32899 -0.52487,-0.32899 -0.52487,-0.65798l-0.26243,-0.32899l-0.52487,-0.65797l-0.26243,-0.32899l-0.78729,-0.98697l-0.26243,-0.32898c-1.04973,-1.64495 -1.31216,-1.64495 -1.5746,-1.97394c0,0 -0.26243,0 -0.26243,-0.32899c-0.26243,-0.32898 -0.26243,-0.32898 -0.52487,-0.32898c0,0 -0.26243,0 -0.26243,-0.32899c-0.26243,-0.32898 -0.52487,-0.32898 -0.7873,-0.65798c-0.26243,0 -0.52486,-0.32898 -0.78729,-0.32898l-0.7873,0l-0.78729,0l-0.26243,0c-0.26243,0 -0.26243,0 -0.52487,0.32898l-0.26243,0c-0.26243,0 -0.26243,0.32899 -0.52487,0.32899c0,0 -0.26243,0 -0.26243,0.32898l-0.7873,0.98697c-0.78729,1.31596 -1.31216,3.28989 -1.31216,5.59281l0,3.61889c0,1.31596 0,2.63191 0.26243,3.94787c0,0.65798 0,1.31596 0.26243,1.97393c0,0.65798 0,1.31596 0.26243,1.97394c0.26243,3.94787 0.78729,7.56675 0.78729,9.86967l0,3.94787c0.26243,4.27686 1.31216,8.22473 3.67405,11.18563c-2.36189,1.97394 -3.93649,4.60584 -4.72379,7.56674c-0.26243,0.98697 -0.52486,1.64495 -0.78729,2.63192c-0.7873,3.28989 -0.7873,6.90877 -0.7873,10.19866c0,2.30293 0.26243,4.60584 0,6.90877c0,0.65798 -0.26243,1.64494 -0.26243,2.30292l-0.7873,1.97394c-0.26243,0.65798 -0.52487,1.64495 -0.7873,2.30293c-0.26243,0.32898 -0.26243,0.98696 -0.52486,1.31596c-2.3619,7.89573 1.31216,16.44944 4.72378,23.6872c0.52487,3.28989 1.5746,5.59281 2.62433,8.22472l-0.00004,-0.00003l-0.00001,-0.00002z" id="svg_23"/>
     <path stroke="null" fill="#ffffff" d="m197.80745,271.78796l-0.72844,0l-1.82109,0c-0.72844,0 -1.09266,0 -1.8211,0.36421l-0.36421,0c-0.36422,0 -0.72844,0.36422 -1.45688,0.36422l-0.36422,0c-0.36421,0 -1.09265,0.36422 -1.45688,0.36422l-0.36421,0c-0.36422,0 -0.72844,0.36421 -1.09266,0.36421l-0.36421,0c-0.36422,0.36422 -1.09266,0.36422 -1.45688,0.72844l-0.36422,0c-0.36421,0.36422 -0.72844,0.36422 -1.09265,0.72844c0,0 -0.36422,0 -0.36422,0.36422l-1.09266,1.09265c-0.36421,0 -0.72844,-0.36421 -1.09265,-0.36421l-0.36422,-0.36422l-0.36421,0l-0.72844,0.36422l0,-0.36422l0.36421,0s-0.36421,0.36422 0,0.36422l0,-0.36422l-0.72844,0l-0.36421,0l-0.36422,0.72844l0,0.36422l-0.36421,0.36421l-0.36422,0.36422l-0.36422,0.36421l-0.36421,0.36422l-0.36422,0.36422l-0.36421,0.36421l-0.36422,0.36422l-0.36422,0.36421l-0.36421,0.36422l-0.36422,0.36422l-0.36421,0.36421l-0.36422,0.36422l-0.72844,0.72844l-0.36422,0.36421l-0.36421,0.36422l-0.36422,0.36421l-0.36421,0.36422l-0.36422,0.36422l-0.36422,0.36421l-0.36421,0.36422l-0.36422,0.36421c-0.36421,0.36422 -0.36421,0.36422 -0.72844,0.36422l0,2.18532c0,0.36421 0,0.72844 -0.36421,1.09265c-0.36422,1.8211 -1.09266,3.27798 -0.36422,5.4633c-0.36421,0 -1.09265,0.36421 -1.45688,0.36421c-0.36421,0.36422 -0.72844,0.36422 -1.45688,0.72844c-0.36421,0.36422 -0.72843,0.36422 -1.09265,0.72844l-0.36422,0.36422c-0.36421,0 -0.36421,0.36421 -0.72844,0.36421c-0.36421,0.36422 -0.72844,0.72844 -0.72844,1.09266c-0.36421,0.72844 -0.72844,1.45688 -1.09265,2.54953l0,1.45688l-1.45688,0.36422l-3.27797,0.36422l0,1.82109c0,0.36422 0,0.36422 -0.36422,0.72844c0,0.36422 -0.36422,0.36422 -0.36422,0.72844c-0.72844,1.09265 -1.45688,1.82109 -2.54953,2.54953l0.72844,1.45688l-5.09907,0l-0.72844,1.09266l0.72844,1.09265l0.36421,0.72844c-0.36421,0.36422 -0.72844,0.36422 -1.09265,0.72844l-0.36422,0c-0.36421,0 -0.72844,0.36422 -0.72844,0.36422c-0.36421,0 -0.72844,0 -1.09265,0.36421l-1.45688,0l-2.18532,0c-0.72844,0 -2.18532,-1.09265 -2.18532,-1.09265l0,-1.09266l-0.36421,0c-0.36422,0 -0.72844,1.09266 -1.45688,1.09266l0,0.72844s-0.72844,0.36421 -1.45688,0.36421l0.72844,1.09266l0.36421,0.72844c3.27798,0 6.55595,0.72844 9.83393,1.09265c9.83392,1.8211 20.39628,5.4633 30.2302,8.37705c4.37063,1.45688 8.74127,2.54953 12.74769,3.64219c0.72843,-0.36422 1.45687,-1.09266 2.18531,-1.45688c2.91376,-2.18532 6.19174,-4.73485 9.46971,-6.55595c0.72844,-0.36421 1.8211,-0.72844 2.54954,-1.09265c0.36421,-0.36422 0.72843,-0.36422 1.45687,-0.36422c1.45688,-0.36422 2.54954,-0.72844 4.00642,-0.72844l6.19173,0c0.72844,0 1.8211,-0.36422 2.54954,-0.36422c1.09265,0 1.82109,-0.72843 3.27797,-0.72843c0.72844,0 1.09266,0 1.45688,-0.36422l0.72844,0c0.36421,0 0.72844,-0.36422 1.09265,-0.36422c0.36422,0 0.72844,0 1.09266,-0.36421l0.36422,-0.72844c0.36421,0 0.72843,-0.72844 1.09265,-0.72844c0.36422,0 0.72844,0.72844 1.09266,0.72844c0,0 0,0.36421 0.36421,0.36421s0.72844,0.36422 1.09266,0.36422c0,0 0.36422,-0.36422 0.36422,0c0.36421,0 1.45687,0.36422 1.45687,0.36422l0.36422,-1.09266c-0.72844,-0.36422 -1.45688,-0.36422 -1.82109,-0.72844c-1.45688,-1.09265 -2.91376,-2.54953 -4.37063,-3.64219c-1.45688,-1.09266 -3.6422,-3.27797 -5.09908,-4.00641c-1.45687,1.09265 -2.91375,1.45688 -4.73485,1.45688c-1.45688,0 -2.91376,-0.36422 -4.37063,-1.09266c-2.54953,-1.45688 -4.00641,-4.37063 -4.00641,-7.64861c-1.09266,0 -2.18532,-0.72843 -3.27798,-1.09265c-0.36421,-0.36422 -0.72844,-0.36422 -0.72844,-0.36422l-1.82109,0c-3.27797,0 -6.55595,-2.18532 -7.64861,-5.09907l-1.09265,-2.91376c-1.09266,-2.54953 -0.72844,-5.09907 0.72844,-6.92017c0.36421,-0.36421 0.72844,-0.72844 0.72844,-1.09265c1.82109,-2.54954 2.18531,-2.91376 2.18531,-3.64219c0,-1.8211 -0.36421,-3.6422 -0.36421,-5.82751l0,-1.09266l-1.8211,0l-0.00011,0.00008l-0.00002,0.00002z" id="svg_22"/>
     <path stroke="null" fill="#ffffff" d="m262.26372,203.20039c-4.15139,0 -5.81193,-4.15138 -9.13304,-5.81193c-1.66055,-0.83027 -3.04434,0.27676 -4.7049,0.83028c-1.93731,0.83028 -4.98166,1.3838 -6.6422,2.49082c-3.3211,2.49083 -3.59787,7.19573 -7.74925,8.85627c-2.21407,0.83028 -4.42814,1.3838 -6.64221,2.21407c-2.21407,0.83028 -4.7049,1.93731 -7.19572,2.21407c2.21406,0.83028 5.25841,1.66055 6.6422,3.87462c1.3838,2.21407 0.55352,5.53517 0.27676,8.026c-0.27676,2.49083 0,5.25841 0.27675,7.74925c0.27676,1.38379 0.83028,2.76758 1.10704,4.15138c0.27676,0.83028 -0.27675,1.66055 0.83028,1.93731l0,-0.83028c-1.3838,0 -2.49082,0.55352 -3.87462,0.83028c-1.66055,0.27675 -3.59786,0.27675 -5.25841,0.55352c-0.27676,0 -0.83028,0 -1.10704,0.27675c-0.83028,0 -1.10704,0.27676 -0.83028,1.10704c-0.27675,1.10704 0.27676,3.04434 0.27676,4.15138c0.27675,2.49083 0.83027,4.7049 1.66055,6.91897c-2.76758,0 -5.53517,0.55352 -8.026,1.38379c-1.93731,0.55352 -4.7049,1.10704 -5.53517,3.04435c-1.93731,3.87462 0.55351,9.40978 0.27675,13.28441c0,1.93731 -0.83027,3.59786 -1.93731,5.25841c-1.10704,1.66055 -1.66055,1.93731 -0.83028,3.87462c0.27676,0.83028 0.55352,1.93731 1.93731,1.93731c0.55351,0 1.10703,-0.83028 1.38379,-1.10704c0.55352,-0.27676 1.10704,0 1.66055,0l1.10704,0c0,0.27675 0.27675,0.55352 0.55352,0.55352c0,-0.55352 0.55352,-0.55352 0.83027,-0.83028c0.83028,0.83028 1.93731,1.10704 3.04435,1.3838c0.55352,0.27675 2.49082,0.27675 2.76758,0.55352c0.27675,0.27675 0.27675,1.38379 0.27675,1.66055c-0.27675,0.55352 -1.38379,0.55352 -1.66055,1.10704c0,1.10704 0,2.49083 -0.27676,3.3211c0.27676,-0.27675 0.55352,-0.27675 0.83028,-0.55352c0,0 1.38379,-0.27675 1.66055,-0.55352c0,-0.83027 4.98166,1.3838 5.25842,1.66055c1.93731,1.3838 3.59786,3.3211 5.53517,4.7049c1.66055,1.3838 2.21407,0 3.59787,0c2.49082,0 4.42814,1.3838 7.19572,0.55352c1.3838,1.10704 2.49083,2.49083 4.15139,2.49083c0.55352,0 2.21406,0 3.04434,-0.27676c0.83028,-0.27675 1.3838,-1.10704 2.49082,-1.38379c2.76759,-0.55352 11.07035,4.15138 9.96331,7.19572c0,-0.27675 0.83028,-1.66055 1.10704,-1.66055c-0.27675,0 0.83028,1.10703 0.83028,1.38379c0.83027,0.55352 1.93731,0.55352 2.76758,0.55352c1.93731,0.27676 4.42814,1.38379 6.08869,1.38379c0.55352,0 0.55352,0.27676 0.83027,0c0.27676,0 0,-0.83027 0.27676,-0.83027c0.83027,-0.27676 0,0 0.55352,0.83027c1.38379,1.3838 4.42814,0.83028 6.08869,0.27676c3.04434,-1.10704 3.3211,-3.3211 3.04434,-6.36544c0,-4.42814 0.27676,-8.85627 1.38379,-13.28442c1.10704,-4.7049 3.04435,-8.57952 4.7049,-13.00765c0.55352,-1.3838 1.10704,-3.04434 0.27675,-4.15138c-0.83027,-1.3838 -2.49082,-1.10704 -3.04434,-2.49083c-1.66055,-3.3211 2.76758,-6.91896 4.98166,-8.57952c1.10704,-0.83028 4.98166,-5.25841 5.53517,-3.59786c0,0 0.27675,-0.55352 0.55351,-0.55352l0.83028,0.27675s0.27676,0.27676 0.27676,0c0,0 0.83027,-0.55351 0.55352,-0.55351c0.83027,-0.55352 2.21406,-0.55352 3.04434,-1.3838c0.83028,-0.55352 0.55352,-0.83028 0.55352,-1.93731c-0.27676,-2.49083 -0.27676,-4.98166 1.10704,-7.47249c-4.15139,-1.66055 -5.25841,-5.81192 -4.98166,-9.96331c0.27675,-4.42813 0.55352,-8.57952 0,-13.00765c-0.27676,-1.10704 -0.55352,-2.49082 -0.55352,-3.59786c-0.55352,-0.55352 -0.55352,-0.83028 0,-1.10704c0.27676,0 0.27676,-0.27676 0.55352,-0.27676s0.27675,-0.27675 0.55352,-0.27675l0,-1.66055l0,-3.59786c-0.27676,-2.21407 -0.83028,-3.3211 -1.93731,-4.98166c-0.55352,-0.27676 -0.83027,-0.55352 -0.27675,-1.3838c0.27675,-0.55352 0.27675,-1.10704 0.55352,-1.66055c0.27675,-1.10704 0.83027,-2.21407 1.10703,-3.3211c-5.53517,1.10703 -11.3471,2.49082 -16.88227,3.59786c-3.59786,0.83027 -7.47248,1.66055 -11.07034,2.49082c-2.49083,0.27676 -4.42814,1.10704 -6.64221,1.10704l0.00002,-0.00001l0.00001,0z" id="svg_21"/>
     <path stroke="null" fill="#ffffff" d="m244.09523,67.10867c-0.26982,0 -0.26982,0 -0.53964,0.28638c-0.53965,0.28637 -1.0793,0.85912 -1.88877,1.1455c-0.26982,0 -0.53965,0.28637 -0.53965,0.28637c-0.53965,0.28638 -0.80947,0.28638 -1.34912,0.57275c-0.26982,0 -0.53965,0.28638 -0.80947,0.28638c-0.26982,0 -0.80947,0.28637 -1.0793,0.28637c-0.26982,0 -0.53965,0 -0.80947,0.28638c-0.26982,0 -0.80947,0.28638 -1.0793,0.28638c-0.26982,0 -0.53965,0 -0.80947,0.28637c-0.26982,0 -0.80947,0 -1.0793,0.28638l-5.12666,0l-0.26982,0c-0.53964,0 -0.80947,0.28637 -0.80947,0.28637l-1.61895,0l-2.96806,0l-1.34912,0l-0.80947,0l-0.80947,0l-0.26982,0c-0.26982,0 -0.26982,0 -0.53965,0.28638c-0.26982,0 -0.26982,0.28638 -0.53965,0.28638l-0.26982,0l-0.26982,0.28637l-0.26982,0.28638s-0.26982,0.28637 -0.26982,0.57275c0,0 0,0.28637 -0.26982,0.28637c0,0.28638 -0.26982,0.28638 -0.26982,0.57275l0,0.28638c0,0.28637 -0.26982,0.57275 -0.26982,1.1455c-0.26982,1.1455 0,2.291 0,3.4365l0,3.4365c-0.53965,3.15012 -2.1586,6.01387 -2.96806,8.87763l-1.61895,4.29563c-1.34912,4.00925 -2.96806,8.30488 -4.04736,12.31413c0,0.28638 -0.26982,0.85913 -0.26982,1.1455c-0.80947,2.86375 -1.34912,5.44114 -1.88876,8.30488l0,0.28637c-0.26982,1.71825 -0.80947,3.15013 -1.0793,4.86838c-0.53965,1.43187 -0.80947,2.86375 -1.61895,4.29563c-0.26982,0.85912 -0.80947,1.71825 -1.0793,2.291c0.53965,0.57274 1.0793,0.85912 1.61895,1.43187c0.26982,0 0.26982,0.28638 0.53965,0.28638c1.0793,0.85912 1.88876,1.71825 2.96806,2.291c1.61895,1.43188 3.50772,2.57738 5.12666,4.00925c0.53965,0.28638 1.0793,0.85913 1.34912,1.1455c0.53965,0.57275 0.80947,0.85913 0.80947,1.71825l0,1.71825c0,0.57275 -0.26982,0.85913 -0.53965,1.43187c-0.53965,1.43188 -1.0793,2.57738 -1.88877,3.72288c-0.26982,0.28637 -0.53965,0.85912 -0.80947,1.1455c-0.53965,0.85912 -0.80947,1.43187 -1.34912,2.291l-0.26982,0.28638c0,0.28638 -0.26982,0.28638 -0.26982,0.57275c-0.53965,0.85913 -0.80947,1.71825 -1.0793,2.57737l0,0.57275c0,0.57275 0.26982,1.43188 0.80947,2.00463c0,0.28637 0.26982,0.28637 0.26982,0.57275c1.88877,3.15012 3.50771,6.58662 4.58701,10.02313c0.53965,1.71825 1.0793,3.4365 1.34912,5.15475c0.26982,1.71825 0.80947,3.4365 0.80947,5.44113l0,5.15475c0,1.71825 -0.26982,3.4365 -0.26982,5.15475l0,2.00462c0,2.291 0.26982,4.582 1.34912,6.58663c0.26982,0.28637 0.26982,0.57274 0.53965,0.85912c4.04737,-1.43187 8.09472,-2.86375 11.87227,-4.29563c1.88876,-3.72287 3.50771,-6.30025 5.93613,-8.59125c0.26982,-0.28638 0.80947,-0.28638 1.34912,-0.57275l6.47578,-2.57737l6.47578,-2.57738c0.53964,0.28638 0.80947,0.28638 1.34912,0.57275c0.80947,0.28638 1.61895,0.85913 2.1586,1.1455c1.88876,1.1455 3.50771,2.86375 6.20595,5.15475l32.3789,-7.44576c-0.26982,-0.28637 -0.26982,-0.57275 -0.53965,-1.1455s-0.53965,-1.43187 -0.53965,-2.00462c0,-0.28638 -0.26982,-0.57275 -0.26982,-1.1455c0,-0.85913 -0.26982,-1.43188 -0.26982,-2.291l0,-1.1455c0,-6.873 2.69824,-15.17788 1.34912,-21.7645c-0.26982,-0.85913 -0.26982,-1.43188 -0.53965,-2.291c-0.26982,-0.85912 -0.53965,-1.43187 -1.0793,-2.00462c-0.53965,-1.1455 -1.34912,-2.00463 -2.42841,-2.86375c0.26982,-0.85913 0.26982,-1.71825 0.53964,-2.57738c0.80947,-2.291 1.88877,-4.29563 3.77754,-6.01387l-0.53964,-2.00463l1.34912,0l0.80947,-3.4365c-0.80947,-1.1455 -2.1586,-2.00462 -3.23789,-2.86375c-1.0793,-0.57275 -1.88877,-1.1455 -2.96807,-1.43187c-0.53965,-0.28638 -1.34912,-0.57275 -1.88876,-1.1455c-0.26982,-0.28638 -0.53965,-0.28638 -0.80947,-0.57275c-1.61895,-1.1455 -2.96806,-2.86375 -3.23789,-6.01388c-0.53965,-7.44575 8.36455,-10.3095 7.01543,-18.61438c0,-0.57275 -1.34912,-1.71825 -2.42842,-2.57737l-1.07929,-1.1455c0,-0.28638 -0.26982,-0.28638 -0.26982,-0.57275c-0.26982,-0.57275 -0.26982,-0.85913 -0.26982,-1.43187l0,-0.28638l0,-1.43188l0,-0.57274c0,-0.57275 0.26982,-0.85913 0.53965,-1.43188s0.53965,-0.85913 0.80947,-1.43187c0,-0.28638 0.26982,-0.28638 0.26982,-0.57275c0.53965,-0.85913 1.0793,-1.71825 1.61895,-2.86375c1.61895,-3.72288 1.61895,-9.164 1.34912,-13.45964l0,-1.71825c0,-2.00462 -0.53965,-3.72287 -1.34912,-5.15474s-1.88876,-2.86376 -3.23789,-4.00925c-0.53965,-0.28638 -0.80947,-0.85913 -1.34912,-1.1455c-0.53965,-0.28638 -1.0793,-0.85913 -1.61895,-1.1455c-0.53965,-0.28638 -0.80947,-0.57275 -1.34912,-0.85913c0,0 -0.26982,0 -0.26982,-0.28637c-0.26982,-0.28638 -0.80947,-0.28638 -1.34912,-0.57275l-0.26982,0c-0.53965,-0.28638 -1.0793,-0.28638 -1.34912,-0.28638l-1.34912,0l-1.61895,0c-0.53965,0 -0.80947,0.28638 -1.34912,0.28638l-0.53964,0c-0.26982,0 -0.53965,0.28637 -1.0793,0.28637c-0.26982,0 -0.26982,0 -0.53965,0.28638c-0.26982,0 -0.80947,0.28637 -1.0793,0.28637l-0.26982,0c-0.53965,0.28638 -0.80947,0.28638 -1.34912,0.57275c0,0 -0.26982,0 -0.26982,0.28638c-0.26982,0.28638 -0.53965,0.28638 -1.0793,0.57275c-0.26982,0 -0.26982,0.28637 -0.53965,0.28637c-0.26982,0.28638 -0.53965,0.28638 -0.80947,0.57275l-0.26982,0.28638c-0.26982,0.28638 -0.80947,0.57275 -1.0793,0.85913c-1.34912,1.14549 -2.69824,2.57737 -4.04736,3.72287c-2.69824,2.291 -4.85683,4.29563 -7.55508,5.44113c-0.80947,0.28638 -1.34912,0.57275 -2.15859,0.85913c-0.26982,0 -0.53965,0 -0.80947,0.28637c-0.26982,0 -0.26982,-0.85912 -0.53965,-0.85912s-0.26982,-0.85913 -0.53965,-0.85913s-0.26982,0.85913 -0.53965,0.85913c0,0 0,0.28637 -0.26982,0.28637l-0.26982,0l-0.26982,0c-0.26982,0 -0.26982,0 -0.53964,-0.28637c-0.26982,0 -0.53965,-0.28638 -0.80947,-0.28638c-0.26982,0 -0.26982,-0.28638 -0.53965,-0.28638l-0.80947,0l-0.26982,0c0.26982,0 0.26982,0 0,0l-0.00005,0.00002l-0.00002,0.00001zm8.36455,109.96804c0.26982,-0.28638 0.26982,-0.28638 0,0l0.26982,0l0.26982,0.28637c-0.26982,-0.28637 -0.26982,-0.28637 -0.53965,-0.28637l0.00001,0z" id="svg_20"/>
     <g stroke="null" id="svg_16" transform="matrix(3.6421941169182754,0,0,3.385479289932084,-1688.8870457375815,-1178.1731537019868) ">
      <path stroke="null" fill="#ffffff" d="m499.31039,391.12419l-0.2,0l0.2,0z" id="svg_19"/>
      <path stroke="null" d="m499.11039,391.12419z" fill="#ffffff" id="svg_18"/>
      <path stroke="null" fill="#ffffff" d="m522.91039,361.32419c-1.2,0.6 -2.6,1.3 -3,2.5l-0.3,0l-1.3,-1c-0.1,0 -0.2,0.1 -0.3,0.1c-0.2,0 -0.3,-0.1 -0.5,-0.1c0,0 0,-0.1 -0.1,-0.1c-0.2,0 -0.3,0 -0.5,0.1l-0.1,0c-0.1,0.1 -0.3,0.1 -0.4,0.2l-0.1,0c-0.1,0.1 0.2,0.2 -0.5,0.3l-0.7,-0.2l-1.1,-2.6l-0.7,-0.1l-0.7,-0.1c-0.1,0.1 -0.1,0.3 -0.2,0.4c-0.4,0.6 -0.9,1.1 -1.5,1.4l0,0.6c0,0.6 0,1.3 -0.1,1.9c-0.1,1.4 -0.3,2.4 -0.6,3.4c-0.2,0.5 -0.4,1 -0.9,1.5c-1,1 -2.1,1.1 -2.8,1.2c-1,2.6 -2.4,5.7 -4.8,8.4c-0.8,0.9 -2,2.3 -4.1,2.2c-0.3,0 -0.7,0 -1,-0.1c-0.8,-0.2 -1.4,-0.5 -1.8,-0.8c-0.1,-0.1 -0.2,-0.1 -0.3,-0.2l-1.4,0c-0.3,0.1 -0.5,0.2 -0.8,0.2c0.2,0.6 0.2,1.2 -0.1,1.8c-1.2,2.4 -5.1,3.9 -6.9,4.2l-1,0c-0.1,0 -0.2,0 -0.3,-0.1c-1.2,-0.4 -1.7,-0.5 -2.6,-0.5l-0.7,0c-0.8,0 -1.5,-0.1 -2,-0.2c-0.9,-0.1 -2,-0.2 -3.3,-0.4c-0.7,0 -1.5,-0.1 -2.4,-0.4c-0.5,-0.2 -1,-0.5 -1.4,-0.7c-0.4,-0.2 -0.9,-0.5 -1.2,-0.5c-0.1,0 -0.1,0.1 -0.2,0.1c-0.7,0 -1.3,-0.3 -1.8,-0.8c-0.2,-0.2 -0.7,-0.4 -1.2,-0.4l-0.1,0l0,0.1c-0.1,1 -0.2,1.9 -0.2,2.9c0,0.6 0.2,1.2 0.3,1.9c0.2,0.6 0.3,1.2 0.3,1.8l-1,-0.1c0,0.3 0.1,0.6 0.1,0.9l0,2.7c0,0.6 0,1.2 -0.1,1.7c0.6,-0.3 1.3,-0.4 1.8,-0.4c1.9,0 3.4,1.3 4.5,2.3c0.3,0.2 0.6,0.6 0.8,0.7c0.2,0.1 0.4,0.2 0.9,0.2s1.2,-0.1 1.9,-0.3c0.4,-0.1 0.8,-0.2 1.2,-0.2l0.4,0c0.9,0 1.7,0.5 2.1,1.3c0.3,0.5 1,1.3 1.6,1.9c0.2,-0.1 0.4,-0.1 0.6,-0.1c0.2,0 0.4,0 0.6,0.1c0.1,0 0.2,0 0.4,0.1c0.9,0.2 2,0.3 2.8,1.1l0.1,0.1c0.2,0.2 0.7,0.7 0.8,1.3c0.1,0 0.1,0 0.2,-0.1l0.8,0c0.1,0 0.1,0 0.2,0.1l0.1,0c0.1,0 0.2,0.1 0.3,0.1l0.5,-0.4l0.9,-0.8l-0.1,-0.2l0,-0.1c0.3,-0.3 0.4,-0.7 0.6,-1.2c0.1,-0.4 0.2,-0.9 0.2,-1.3c0,-0.3 0,-0.6 -0.1,-0.9l1.2,-0.9c-0.3,-0.5 -0.6,-1 -0.8,-1.5c-0.1,-0.4 -0.2,-0.8 -0.1,-1.2c0,-0.1 0.1,-0.3 0.1,-0.4l0.2,0l0.4,0.3l0.9,-0.3l0.8,0.6l0,0.7l0.9,0.1c0.2,-0.3 0.3,-0.6 0.3,-0.9l0,-0.2c0,-0.2 -0.1,-0.5 -0.2,-0.7c0.2,0 0.3,0.1 0.5,0.1l0.6,0c0.1,0 0.3,-0.1 0.4,-0.1l0.1,0l-0.1,0c0.1,0 0.1,-0.1 0.1,-0.1l0,-0.1s0.3,-0.3 0.4,-0.3c0.1,0 0.3,0.1 0.3,0l0,-0.2l0.2,0.2c0.1,-0.7 0.1,-0.7 0.2,-0.7l0.1,0c0.1,0 0.1,-0.3 0.2,-0.4c0.2,0.1 0.4,0.1 0.5,0.1l1.2,0l0,-0.1s0,-0.2 0.1,-0.2l0.1,0c0,-0.1 0.3,-0.1 0.3,-0.2l0.2,0l0.2,-0.2c0.1,-0.1 0.1,-0.2 0.2,-0.3c0,-0.1 0.1,-0.2 0.1,-0.3c0,-0.1 0.1,-0.2 0.1,-0.3c0,-0.1 0.1,-0.2 0.1,-0.3c0,-0.1 0.1,-0.2 0.1,-0.3c0.1,-0.1 0.1,-0.2 0.2,-0.3c0.1,-0.1 0.1,-0.2 0.2,-0.3c0.1,-0.1 0.1,-0.2 0.2,-0.3c0.1,-0.1 0.2,-0.2 0.3,-0.2c0.1,-0.1 0.2,-0.1 0.3,-0.2c0.1,-0.1 0.3,-0.1 0.4,-0.2l0.7,0.3c0.1,-0.7 0.4,-1.4 0.8,-2c0.5,-0.7 1.1,-1.3 1.8,-1.8c0.5,-0.3 1,-0.6 1.5,-0.8c0.1,-0.1 0.3,-0.1 0.4,-0.1l0.4,-1.4l0.9,-0.5l0.1,-0.6l1.3,0.4c0.1,-0.3 0.2,-0.5 0.4,-0.7l0.3,-0.3c0.5,-0.4 1.1,-0.7 1.5,-1.2l0.8,0.1l0.8,0.1c0.7,-0.5 0.9,-1.4 0.9,-2.3l0.2,-0.1c0.1,0.1 0.2,0.2 0.3,0.2c0,0 0.1,0 0.1,0.1c0.1,0 0.2,0.1 0.2,0.1l0.2,0c0.1,0 0.2,0 0.2,0.1l0.6,0c0.1,0 0.1,-0.2 0.2,-0.2s0.1,-0.2 0.2,-0.2l0.2,0.3s0.1,0 0.2,-0.1l0.1,0c0.1,0 0.2,-0.1 0.3,-0.2l0.2,-0.6c0.2,0 0.4,-0.1 0.6,-0.1c0.1,-0.6 0.3,-1.2 0.5,-1.8c0.6,-1.9 1.3,-3.7 2,-5.5l0.3,-0.8c0.1,-0.4 0.3,-0.7 0.4,-1c0.3,-0.6 0.5,-1.2 0.6,-1.7l0,-0.6c0,-0.5 -0.1,-1.1 0,-1.7c0.3,-1.5 0.4,-1.8 0.6,-2.2z" id="svg_17"/>
     </g>
    </g>
   </svg>