<svg id="Layer_1" enable-background="new 0 0 511.448 511.448" height="512" viewBox="0 0 511.448 511.448" width="512" xmlns="http://www.w3.org/2000/svg">
    <path fill="white" d="m436.507 74.94c-99.913-99.913-261.64-99.927-361.567 0-99.913 99.913-99.928 261.64 0 361.567 99.913 99.913 261.639 99.928 361.567 0 99.914-99.911 99.93-261.639 0-361.567zm-180.783 394.451c-117.816 0-213.667-95.851-213.667-213.666s95.851-213.667 213.667-213.667 213.667 95.851 213.667 213.667-95.851 213.666-213.667 213.666z" />
    <path fill="white" d="m247.283 239.148-96-74.667c-13.775-10.714-33.893-.864-33.893 16.577v149.333c0 17.563 20.25 27.186 33.893 16.577l96-74.667c10.795-8.397 10.81-24.746 0-33.153zm-87.893 48.305v-63.458l40.795 31.729z" />
    <path fill="white" d="m309.057 160.058c-11.598 0-21 9.402-21 21v149.333c0 11.598 9.402 21 21 21s21-9.402 21-21v-149.333c0-11.598-9.402-21-21-21z" />
    <path fill="white" d="m383.724 160.058c-11.598 0-21 9.402-21 21v149.333c0 11.598 9.402 21 21 21s21-9.402 21-21v-149.333c0-11.598-9.402-21-21-21z" />
</svg>