<svg width="100" height="100" xmlns="http://www.w3.org/2000/svg">
 <!-- Created with Method Draw - http://github.com/duopixel/Method-Draw/ -->

 <g>
  <title>background</title>
  <rect fill="none" id="canvas_background" height="102" width="102" y="-1" x="-1"/>
  <g display="none" overflow="visible" y="0" x="0" height="100%" width="100%" id="canvasGrid">
   <rect fill="url(#gridpattern)" stroke-width="0" y="0" x="0" height="100%" width="100%"/>
  </g>
 </g>
 <g>
  <title>Layer 1</title>
  <g stroke="null" transform="rotate(45 50.709930419921896,48.4358787536621) " id="svg_23">
   <g stroke="null" transform="matrix(0.18580035315945323,0,0,0.18580035315945323,-69.17590000278598,-45.55090258135414) " id="svg_5">
    <g stroke="null" id="svg_6">
     <path stroke="null" id="svg_7" d="m741.808139,647.033303l20.555,-21.923l-48.679,-45.639l0,-63.986l28.124,26.368l20.555,-21.923l-48.679,-45.639l0,-63.986l28.124,26.367l20.555,-21.923l-48.679,-45.639l0,-63.986l28.124,26.368l20.555,-21.923l-63.699,-59.721l-53.422,50.086l-53.425,-50.086l-63.7,59.72l20.555,21.923l28.113,-26.357l0,63.987l-48.667,45.627l20.555,21.923l28.113,-26.357l0,63.987l-48.667,45.627l20.555,21.923l28.113,-26.357l0,63.987l-48.667,45.627l20.555,21.923l28.113,-26.357l0,63.987l-48.667,45.627l20.555,21.923l43.145,-40.451l53.421,50.088l53.422,-50.086l43.144,40.451l20.555,-21.923l-48.679,-45.639l0,-63.986l28.124,26.368zm-58.176,37.629l-38.39,35.993l-38.406,-36.006l0,-63.987l38.406,36.006l38.39,-35.993l0,63.987zm0,-105.18l-38.39,35.993l-38.406,-36.005l0,-63.987l38.406,36.006l38.39,-35.994l0,63.987zm0,-105.18l-38.39,35.992l-38.406,-36.005l0,-63.987l38.406,36.006l38.39,-35.993l0,63.987zm0,-105.18l-38.39,35.993l-38.406,-36.005l0,-63.988l38.406,36.006l38.39,-35.993l0,63.987z"/>
    </g>
   </g>
   <g stroke="null" transform="matrix(0.18580035315945323,0,0,0.18580035315945323,-69.17590000278598,-45.55090258135414) " id="svg_8"/>
   <g stroke="null" transform="matrix(0.18580035315945323,0,0,0.18580035315945323,-69.17590000278598,-45.55090258135414) " id="svg_9"/>
   <g stroke="null" transform="matrix(0.18580035315945323,0,0,0.18580035315945323,-69.17590000278598,-45.55090258135414) " id="svg_10"/>
   <g stroke="null" transform="matrix(0.18580035315945323,0,0,0.18580035315945323,-69.17590000278598,-45.55090258135414) " id="svg_11"/>
   <g stroke="null" transform="matrix(0.18580035315945323,0,0,0.18580035315945323,-69.17590000278598,-45.55090258135414) " id="svg_12"/>
   <g stroke="null" transform="matrix(0.18580035315945323,0,0,0.18580035315945323,-69.17590000278598,-45.55090258135414) " id="svg_13"/>
   <g stroke="null" transform="matrix(0.18580035315945323,0,0,0.18580035315945323,-69.17590000278598,-45.55090258135414) " id="svg_14"/>
   <g stroke="null" transform="matrix(0.18580035315945323,0,0,0.18580035315945323,-69.17590000278598,-45.55090258135414) " id="svg_15"/>
   <g stroke="null" transform="matrix(0.18580035315945323,0,0,0.18580035315945323,-69.17590000278598,-45.55090258135414) " id="svg_16"/>
   <g stroke="null" transform="matrix(0.18580035315945323,0,0,0.18580035315945323,-69.17590000278598,-45.55090258135414) " id="svg_17"/>
   <g stroke="null" transform="matrix(0.18580035315945323,0,0,0.18580035315945323,-69.17590000278598,-45.55090258135414) " id="svg_18"/>
   <g stroke="null" transform="matrix(0.18580035315945323,0,0,0.18580035315945323,-69.17590000278598,-45.55090258135414) " id="svg_19"/>
   <g stroke="null" transform="matrix(0.18580035315945323,0,0,0.18580035315945323,-69.17590000278598,-45.55090258135414) " id="svg_20"/>
   <g stroke="null" transform="matrix(0.18580035315945323,0,0,0.18580035315945323,-69.17590000278598,-45.55090258135414) " id="svg_21"/>
   <g stroke="null" transform="matrix(0.18580035315945323,0,0,0.18580035315945323,-69.17590000278598,-45.55090258135414) " id="svg_22"/>
  </g>
 </g>
</svg>