<svg width="60" height="60" xmlns="http://www.w3.org/2000/svg">

 <metadata>image/svg+xmlOpenclipart</metadata>
 <g>
  <title>background</title>
  <rect fill="none" id="canvas_background" height="402" width="582" y="-1" x="-1"/>
 </g>
 <g>
  <title>Layer 1</title>
  <path stroke-linejoin="round" stroke="#ffffff" stroke-linecap="round" stroke-width="10.92" fill="none" d="m26.869182,30l20.889617,0" id="path1781"/>
  <path stroke-linejoin="round" stroke="#ffffff" stroke-linecap="round" stroke-width="10.92" fill="none" d="m26.869182,10.6279l25.469887,0" id="path1770"/>
  <path stroke-linejoin="round" stroke="#000000" stroke-linecap="round" stroke-width="5.4601" fill="none" d="m26.869182,10.6279l25.469887,0" id="path841"/>
  <path stroke-linejoin="round" stroke="#ffffff" stroke-linecap="round" stroke-width="8.125" fill="none" d="m6.2436,4.6879l8.768,0c0.862,0 1.556,0.694 1.556,1.556l0,8.767c0,0.863 -0.694,1.557 -1.556,1.557l-8.768,0c-0.8621,0 -1.5562,-0.694 -1.5562,-1.557l0.00005,-8.767c0,-0.862 0.69405,-1.556 1.5562,-1.556l-0.00005,0z" id="rect1719"/>
  <path stroke-linejoin="round" fill-rule="evenodd" stroke="#9e0142" stroke-linecap="round" stroke-width="3.125" fill="#9e0142" d="m6.2436,4.6875l8.7674,0c0.862,0 1.556,0.694 1.556,1.5561l0,8.7674c0,0.862 -0.694,1.556 -1.556,1.556l-8.7674,0c-0.8621,0 -1.5561,-0.694 -1.5561,-1.556l0,-8.7674c0,-0.8621 0.694,-1.5561 1.5561,-1.5561z" id="rect1717"/>
  <path stroke-linejoin="round" stroke="#000000" stroke-linecap="round" stroke-width="5.4601" fill="none" d="m26.869182,30l20.889617,0" id="path1729"/>
  <path stroke-linejoin="round" stroke="#ffffff" stroke-linecap="round" stroke-width="8.125" fill="none" d="m6.2436,24.06l8.768,0c0.862,0 1.556,0.694 1.556,1.556l0,8.767c0,0.863 -0.694,1.557 -1.556,1.557l-8.768,0c-0.8621,0 -1.5562,-0.694 -1.5562,-1.557l0.00005,-8.767c0,-0.862 0.69405,-1.556 1.5562,-1.556l-0.00005,0z" id="rect1731"/>
  <path stroke-linejoin="round" fill-rule="evenodd" stroke="#fdbe70" stroke-linecap="round" stroke-width="3.125" fill="#fdbe70" d="m6.2436,24.06l8.7674,0c0.862,0 1.556,0.694 1.556,1.556l0,8.768c0,0.862 -0.694,1.556 -1.556,1.556l-8.7674,0c-0.8621,0 -1.5561,-0.694 -1.5561,-1.556l0,-8.768c0,-0.862 0.694,-1.556 1.5561,-1.556z" id="rect1732"/>
  <path stroke-linejoin="round" stroke="#ffffff" stroke-linecap="round" stroke-width="10.92" fill="none" d="m26.869182,49.373l27.505935,0" id="path1734"/>
  <path stroke-linejoin="round" stroke="#000000" stroke-linecap="round" stroke-width="5.4601" fill="none" d="m26.869182,49.373l27.505935,0" id="path1735"/>
  <path stroke-linejoin="round" stroke="#ffffff" stroke-linecap="round" stroke-width="8.125" fill="none" d="m6.2436,43.433l8.768,0c0.862,0 1.556,0.694 1.556,1.556l0,8.767c0,0.863 -0.694,1.557 -1.556,1.557l-8.768,0c-0.8621,0 -1.5562,-0.694 -1.5562,-1.557l0.00005,-8.767c0,-0.862 0.69405,-1.556 1.5562,-1.556l-0.00005,0z" id="rect1737"/>
  <path stroke-linejoin="round" fill-rule="evenodd" stroke="#bee5a0" stroke-linecap="round" stroke-width="3.125" fill="#bee5a0" d="m6.2436,43.433l8.7674,0c0.862,0 1.556,0.694 1.556,1.556l0,8.767c0,0.862 -0.694,1.556 -1.556,1.556l-8.7674,0c-0.8621,0 -1.5561,-0.694 -1.5561,-1.556l0,-8.767c0,-0.862 0.694,-1.556 1.5561,-1.556z" id="rect1738"/>
 </g>
</svg>