<svg width="400.00000000000006" height="400.00000000000006" xmlns="http://www.w3.org/2000/svg">
 <!-- Created with Method Draw - http://github.com/duopixel/Method-Draw/ -->

 <g>
  <title>background</title>
  <rect fill="none" id="canvas_background" height="402" width="402" y="-1" x="-1"/>
  <g display="none" overflow="visible" y="0" x="0" height="100%" width="100%" id="canvasGrid">
   <rect fill="url(#gridpattern)" stroke-width="0" y="0" x="0" height="100%" width="100%"/>
  </g>
 </g>
 <g>
  <title>Layer 1</title>
  <g stroke="null" id="svg_18">
   <polygon stroke="null" id="svg_12" points="285.7265143079794,241.60270794958706 311.13492085632697,274.4318999919087 378.24405365064104,163.89678166204612 368.4969505910931,157.96098473963866 309.99321843083544,254.2811262254436 287.77807216322344,225.61085510735938 219.15825922293243,278.2904007727084 206.85319402053665,263.4530650018751 198.24357374001647,270.9897272817652 217.41573208121645,294.0590483305896 "/>
   <polygon stroke="null" id="svg_13" points="50.83189448115172,232.91149745700022 129.62796487553805,188.34377835465784 182.75385882697537,252.28107608422943 191.3120336760703,244.74869573340766 132.28040972961116,173.67814015414115 50.83189448115172,219.7651966845042 "/>
   <polygon stroke="null" id="svg_14" points="371.8275440150401,349.70002285158625 60.8321529725481,349.70002285158625 44.393955736894895,349.70002285158625 44.393955736894895,331.7338892958105 44.393955736894895,243.9504040192005 44.393955736894895,216.00975804371774 44.393955736894895,22.26639175415039 21.0628609008063,22.26639175415039 21.0628609008063,373.03108654637253 371.8275440150401,373.03108654637253 "/>
   <polygon stroke="null" id="svg_15" points="141.03600486473533,257.10097115011376 167.4701903407049,289.41513276409023 376.3985266515165,106.08835692923822 368.84884730725844,97.47438465171945 185.775390396092,258.19540107869034 182.03282868381302,261.49163007553216 182.02851561344232,261.48736371711493 168.85650769588483,273.04988013644834 141.71413786395806,239.8816215945153 50.83189448115172,334.3261847244612 50.83189448115172,343.2620568586899 58.08959297489946,343.2620568586899 "/>
   <text stroke="null" transform="matrix(4.2919595929214,0,0,4.2919595929214,-58.92685668797777,418.92166562024505) " id="svg_16" font-family="'Helvetica Neue', Helvetica, Arial-Unicode, Arial, Sans-serif" font-weight="bold" font-size="5px" fill="#000000" y="11.444778" x="12.387108">Created by glyph.faisalovers</text>
   <text stroke="null" transform="matrix(4.2919595929214,0,0,4.2919595929214,-58.92685668797777,418.92166562024505) " id="svg_17" font-family="'Helvetica Neue', Helvetica, Arial-Unicode, Arial, Sans-serif" font-weight="bold" font-size="5px" fill="#000000" y="16.444778" x="12.387108">from the Noun Project</text>
  </g>
 </g>
</svg>