<svg width="512" height="512" xmlns="http://www.w3.org/2000/svg">
 <!-- Created with Method Draw - http://github.com/duopixel/Method-Draw/ -->

 <g>
  <title>background</title>
  <rect fill="none" id="canvas_background" height="514" width="514" y="-1" x="-1"/>
  <g display="none" overflow="visible" y="0" x="0" height="100%" width="100%" id="canvasGrid">
   <rect fill="url(#gridpattern)" stroke-width="0" y="0" x="0" height="100%" width="100%"/>
  </g>
 </g>
 <g>
  <title>Layer 1</title>
  <!-- generated by https://loading.io/ -->
  <path stroke="null" id="svg_5" d="m319.66775,273.45086c0.54602,-4.3682 0.54602,-8.19037 0.54602,-11.46651c-1.63807,-12.01254 -6.00627,-24.02508 -12.55856,-33.85352c-1.09205,-2.1841 -3.27615,-5.46024 -3.82217,-9.82844c-1.09205,-7.64434 2.73012,-12.55856 4.91422,-15.83471c2.1841,-3.27615 3.82217,-6.00627 5.46024,-9.82844l-8.19037,-6.55229l-10.92049,-8.19037c-4.91422,-3.82217 -6.55229,-10.37447 -3.82217,-15.83471c1.63807,-3.27615 2.73012,-6.00627 3.82217,-9.28242c-2.73012,0.54602 -5.46024,1.09205 -7.64434,1.09205c-1.63807,3.27615 -4.3682,6.00627 -7.09832,8.19037c-2.1841,1.09205 -4.3682,2.1841 -7.09832,2.1841l-1.09205,0l-3.27615,-0.54602c-0.54602,0.54602 -1.63807,1.09205 -2.1841,1.63807c-1.63807,1.09205 -2.73012,1.63807 -2.73012,2.1841c-1.63807,4.91422 -6.55229,7.64434 -11.46651,7.64434l-2.1841,0l-0.54602,2.1841c-1.09205,3.82217 -3.82217,7.09832 -8.19037,8.19037c-7.09832,2.1841 -14.74266,8.19037 -16.92676,16.92676c-0.54602,3.27615 -2.73012,6.55229 -6.00627,8.19037c-1.63807,1.09205 -3.82217,1.09205 -5.46024,1.09205l-1.63807,0c-0.54602,1.09205 -1.09205,2.73012 -1.63807,3.82217c-2.1841,6.00627 -7.09832,18.01881 -21.84098,18.56483c-2.73012,3.82217 -6.55229,6.00627 -10.37447,7.64434c-0.54602,2.1841 -1.63807,4.3682 -2.73012,6.00627c-2.1841,3.27615 -6.00627,5.46024 -9.82844,5.46024l-2.1841,0c-0.54602,3.27615 -2.1841,6.00627 -4.3682,7.64434l-1.09205,1.09205c0,4.91422 -1.09205,10.37447 -3.27615,14.74266c0,3.27615 -1.63807,6.00627 -3.82217,8.19037l-7.64434,6.55229c-2.1841,2.1841 -4.91422,3.27615 -8.19037,3.27615c-1.63807,0 -3.82217,-0.54602 -5.46024,-1.09205c-2.1841,1.63807 -4.91422,2.73012 -8.19037,2.73012l-1.63807,0c-0.54602,0.54602 -0.54602,1.09205 -1.09205,1.63807l0,0.54602c1.63807,6.55229 4.91422,14.19664 8.73639,21.29496l1.09205,2.1841c2.73012,4.91422 3.82217,6.55229 4.3682,7.09832l0.54602,0c1.63807,0 3.82217,0.54602 6.55229,1.09205c8.19037,2.73012 13.10459,10.92049 11.46651,18.56483c-0.54602,2.73012 -2.1841,4.91422 -3.27615,6.00627c0,1.09205 1.09205,2.73012 2.73012,5.46024l6.55229,10.37447l2.73012,4.3682l8.19037,0c7.64434,0 14.19664,0.54602 19.65688,2.1841c2.1841,-0.54602 4.91422,-1.09205 7.64434,-0.54602c2.1841,0 4.3682,0 6.00627,0.54602l3.82217,0c1.63807,0 2.1841,0 2.1841,-0.54602c2.1841,-1.63807 4.3682,-2.1841 7.09832,-2.1841c2.1841,0 3.82217,0.54602 6.00627,1.63807l7.64434,3.82217c4.3682,2.1841 7.09832,7.09832 6.55229,11.46651c1.63807,2.1841 2.1841,4.91422 2.1841,7.64434c2.1841,2.1841 3.82217,4.3682 4.91422,6.00627c0.54602,0.54602 0.54602,1.09205 1.09205,1.63807l1.63807,0c1.09205,0 2.1841,-0.54602 3.82217,-0.54602c1.09205,-1.09205 2.73012,-1.63807 4.3682,-2.1841l8.19037,-1.63807c3.27615,-0.54602 6.55229,-1.09205 8.73639,-1.63807c1.09205,-0.54602 2.1841,-0.54602 3.27615,-0.54602c1.09205,0 2.1841,0 3.27615,0.54602c1.09205,-0.54602 2.73012,-0.54602 3.82217,-0.54602c1.63807,0 3.82217,0.54602 5.46024,1.09205c2.73012,-0.54602 5.46024,-0.54602 7.64434,-0.54602l2.73012,0l0,-2.1841c0.54602,-2.73012 1.09205,-6.00627 3.27615,-9.28242c2.73012,-3.82217 6.55229,-6.00627 9.82844,-7.64434c3.82217,-1.63807 7.64434,-2.73012 12.01254,-3.82217c-1.09205,-4.91422 -1.09205,-9.82844 -1.09205,-14.74266c0,-5.46024 3.82217,-10.37447 9.82844,-11.46651c2.73012,-0.54602 5.46024,-1.09205 8.19037,-1.09205c-0.54602,-3.27615 -1.09205,-7.09832 -1.09205,-10.37447c0,-3.27615 0,-6.55229 0.54602,-9.82844c0,-1.63807 0.54602,-3.82217 0.54602,-5.46024c-1.09205,-0.54602 -3.27615,-1.09205 -4.3682,-1.63807c-6.00627,-2.1841 -14.19664,-5.46024 -18.56483,-13.65061c-2.1841,-4.91422 -1.63807,-10.37447 2.73012,-14.19664l1.63807,-1.63807c-0.54602,-7.64434 0,-14.19664 0.54602,-20.20291z" fill="rgb(51, 51, 51)"/>
  <path stroke="null" id="svg_6" d="m20.44632,89.98663c0,13.10459 0,26.7552 0.54602,39.85979c0,8.19037 2.73012,20.74893 -0.54602,28.9393c-0.54602,1.09205 -1.09205,2.1841 -2.1841,3.27615c3.82217,0.54602 7.09832,1.09205 10.37447,2.73012c2.1841,1.09205 3.82217,2.1841 5.46024,3.82217l4.91422,0c0.54602,0 1.09205,0 1.09205,0.54602c0.54602,0 0.54602,0 1.09205,0.54602c0.54602,0 1.09205,0.54602 1.09205,0.54602c0.54602,0 0.54602,0 1.09205,0.54602c0.54602,0 1.09205,0.54602 1.63807,0.54602c0.54602,0 0.54602,0.54602 1.09205,0.54602c0.54602,0.54602 1.09205,0.54602 1.63807,1.09205c0.54602,0 1.09205,0.54602 1.63807,0.54602c0.54602,0 0.54602,0 1.09205,0.54602s1.63807,0.54602 2.1841,1.09205c2.1841,0.54602 3.82217,1.09205 5.46024,1.09205c1.63807,0 3.27615,0.54602 4.91422,0.54602c2.73012,0.54602 6.00627,1.09205 9.28242,1.09205c3.27615,0.54602 6.55229,0.54602 9.28242,1.09205c0.54602,0 1.63807,0 2.1841,0.54602l19.65688,0c0.54602,0 1.09205,0 1.09205,0.54602l1.09205,0c0.54602,0 1.09205,0 1.63807,0.54602l1.09205,0c0.54602,0 1.09205,0.54602 1.63807,0.54602l1.09205,0c1.09205,0.54602 1.63807,0.54602 2.73012,1.09205c8.73639,-1.63807 26.20918,-9.28242 30.03135,-16.92676l-7.09832,-9.28242c3.27615,-4.91422 8.73639,-4.91422 14.19664,-5.46024c1.09205,0 2.1841,-0.54602 2.73012,-0.54602c1.63807,-0.54602 2.73012,-1.09205 3.82217,-1.63807c0.54602,0 1.09205,0.54602 1.63807,0.54602l8.73639,0c0.54602,0 1.09205,0 1.63807,0.54602c1.09205,0 1.63807,0.54602 2.73012,1.09205s1.63807,1.09205 2.73012,1.63807c1.63807,1.09205 3.27615,2.1841 5.46024,2.1841c1.09205,0 1.63807,0 2.73012,0.54602l3.27615,0c0.54602,0 1.63807,-0.54602 2.1841,-0.54602l0.54602,0c0.54602,0 1.09205,-0.54602 1.09205,-0.54602s0.54602,0 0.54602,-0.54602c0.54602,0 0.54602,-0.54602 1.09205,-0.54602l0.54602,-0.54602l1.09205,-1.09205l0.54602,-0.54602l1.09205,-1.09205l0.54602,-0.54602l1.63807,-1.63807c5.46024,-6.55229 10.37447,-13.65061 14.19664,-20.74893c1.09205,-1.63807 2.1841,-3.82217 2.73012,-5.46024c1.63807,-3.27615 3.27615,-6.55229 4.3682,-9.82844c0.54602,-0.54602 0.54602,-1.63807 1.09205,-2.1841c0.54602,-0.54602 0.54602,-1.63807 1.09205,-2.1841c0.54602,-1.09205 1.09205,-2.1841 1.09205,-3.27615l1.63807,-3.27615c1.63807,-1.63807 3.27615,-2.1841 5.46024,-2.1841l6.55229,0c1.09205,-0.54602 2.73012,-1.09205 3.82217,-2.1841c0.54602,-0.54602 1.09205,-1.63807 1.63807,-2.73012c0,-0.54602 0.54602,-1.09205 0.54602,-1.63807c1.09205,-2.73012 1.63807,-5.46024 2.1841,-8.19037c0.54602,-2.1841 0.54602,-4.3682 1.09205,-6.55229l0,-3.82217l0,-2.1841c0,-3.82217 0,-7.09832 0.54602,-10.92049c0,0 -0.54602,-0.54602 -1.09205,-0.54602l-0.54602,0l-0.54602,-0.54602s-0.54602,0 -0.54602,-0.54602c0,0 -0.54602,0 -0.54602,-0.54602c0,0 -0.54602,0 -0.54602,-0.54602c-0.54602,0 -0.54602,-0.54602 -1.09205,-0.54602c0,0 -0.54602,0 -0.54602,-0.54602c-0.54602,0 -0.54602,0 -1.09205,-0.54602c-0.54602,0 -0.54602,-0.54602 -1.09205,-0.54602c0,0 -0.54602,0 -0.54602,-0.54602c-0.54602,0 -0.54602,0 -1.09205,-0.54602c-0.54602,0 -0.54602,0 -1.09205,-0.54602c-0.54602,0 -0.54602,0 -1.09205,-0.54602c-0.54602,0 -0.54602,0 -1.09205,-0.54602c-0.54602,0 -0.54602,0 -1.09205,-0.54602c-0.54602,0 -0.54602,0 -1.09205,-0.54602c-0.54602,0 -0.54602,0 -1.09205,-0.54602c-0.54602,0 -0.54602,0 -1.09205,-0.54602l-1.09205,0c-0.54602,0 -0.54602,0 -1.09205,-0.54602l-1.63807,0l-1.63807,0l-1.63807,0l-0.54602,0l-0.54602,0l-0.54602,0l-0.54602,0l0.54602,-4.3682c-2.1841,0.54602 -4.91422,1.09205 -7.09832,1.63807c-16.38073,5.46024 -30.03135,17.47278 -43.68196,26.7552l-0.54602,0.54602s-0.54602,0 -0.54602,0.54602l-0.54602,0l-0.54602,0l-0.54602,0l-0.54602,0l-0.54602,0c-0.54602,0 -1.09205,-0.54602 -1.09205,-1.09205l-0.54602,-0.54602c-1.63807,-2.1841 -3.82217,-4.3682 -5.46024,-6.55229c-3.27615,-4.3682 -6.55229,-9.28242 -9.28242,-14.19664c-1.09205,-2.1841 -2.73012,-4.91422 -3.82217,-7.64434c0,-0.54602 0,-0.54602 -0.54602,-1.09205c-1.09205,-2.1841 -1.63807,-3.82217 -3.82217,-5.46024l-3.27615,-1.63807c-1.09205,0 -2.1841,-0.54602 -3.27615,-0.54602l-2.1841,0c-1.09205,0 -2.1841,0.54602 -3.82217,0.54602c-1.09205,0 -1.63807,0.54602 -2.73012,0.54602l-0.54602,0l0,-0.54602l-8.19037,0c-1.09205,0 -1.63807,-0.54602 -2.73012,-0.54602c-2.1841,-0.54602 -3.82217,-1.63807 -5.46024,-2.1841c-1.09205,-0.54602 -1.63807,-1.09205 -2.73012,-1.63807l-4.91422,-3.27615c-2.1841,-2.73012 -4.3682,-4.91422 -7.09832,-6.00627c-0.54602,-0.54602 -1.63807,-1.09205 -2.73012,-1.09205c0,0 -0.54602,0 -1.09205,-0.54602s-1.63807,-0.54602 -2.1841,-1.09205c-0.54602,0 -0.54602,0 -1.09205,-0.54602c-1.09205,-0.54602 -2.1841,-0.54602 -3.27615,-1.09205l-0.54602,0c-0.54602,-0.54602 -1.63807,-0.54602 -2.73012,-1.09205c-0.54602,0 -0.54602,0 -1.09205,-0.54602c-1.09205,0 -2.1841,-0.54602 -2.73012,-0.54602l-1.09205,0c-1.09205,-0.54602 -2.73012,-0.54602 -3.82217,-0.54602l-0.54602,0c-1.09205,0 -2.1841,-0.54602 -3.27615,-0.54602l-8.73639,0l-0.54602,0c-1.09205,0 -2.1841,0 -2.73012,0.54602l-1.09205,0c-0.54602,0 -1.63807,0.54602 -2.1841,0.54602c-0.54602,0 -0.54602,0 -1.09205,0.54602c-1.09205,0 -1.63807,0.54602 -2.73012,1.09205c-2.73012,2.1841 -3.27615,4.91422 -3.27615,8.19037c0,1.09205 0,2.1841 0.54602,2.73012l0,4.3682c0,1.63807 -0.54602,3.27615 -1.09205,4.91422c-0.54602,1.09205 -0.54602,2.1841 -1.09205,2.73012c-1.09205,3.82217 -2.73012,7.09832 -2.1841,10.92049c-1.63807,1.63807 -3.82217,2.73012 -5.46024,4.3682c-1.09205,1.09205 -2.73012,2.1841 -3.82217,3.27615l-3.27615,3.27615c-0.54602,0.54602 -1.09205,1.09205 -1.09205,1.63807c-3.27615,4.91422 -3.82217,10.92049 1.09205,18.01881l-8.19037,7.64434z" fill="#444444"/>
  <path stroke="null" id="svg_7" d="m252.50673,414.32518c-1.09205,0 -1.63807,1.09205 -2.1841,1.09205l0,0.54602c-0.54602,0 -1.63807,0.54602 -2.1841,0.54602c-0.54602,0 -1.63807,0.54602 -2.1841,0.54602l-2.1841,0l0,0.54602l-1.09205,0l-1.63807,0l-0.54602,0c-0.54602,0 -0.54602,0 -1.09205,-0.54602l-0.54602,0c-0.54602,0 -1.09205,-0.54602 -1.09205,-0.54602c-3.27615,-2.1841 -4.91422,-5.46024 -7.09832,-8.19037c-1.09205,-1.09205 -2.1841,-2.1841 -3.27615,-2.73012c-0.54602,-0.54602 -1.63807,-0.54602 -2.1841,-1.09205c-0.54602,-1.09205 -1.09205,-2.73012 -1.09205,-3.82217c0,-0.54602 0,-1.09205 0.54602,-1.63807c0,-0.54602 0.54602,-1.09205 1.09205,-1.63807c-1.63807,-1.63807 -2.1841,-3.27615 -2.1841,-5.46024c0,-0.54602 0,-1.09205 0.54602,-2.1841l-7.64434,-3.82217c-0.54602,0.54602 -1.09205,1.09205 -2.1841,1.09205l-0.54602,0c-0.54602,0 -1.09205,0.54602 -1.63807,0.54602l-0.54602,0c-0.54602,0 -1.63807,0.54602 -2.1841,0.54602l-2.1841,0l-0.54602,0l-2.1841,0l-1.63807,0c1.63807,2.1841 2.73012,4.3682 3.27615,6.55229l0.54602,1.09205c2.1841,4.3682 1.09205,9.28242 -2.1841,12.55856l-4.3682,3.82217c-2.1841,2.1841 -5.46024,3.27615 -8.73639,3.27615c-1.63807,0 -3.27615,-0.54602 -4.3682,-1.09205c0,0 -0.54602,0.54602 -1.63807,1.09205c-2.1841,1.63807 -4.91422,2.73012 -7.64434,2.73012l-2.1841,0c-1.63807,1.09205 -3.82217,1.09205 -5.46024,1.09205c-1.63807,0 -3.27615,-0.54602 -4.91422,-1.09205l-1.63807,-0.54602l-0.54602,0c-8.19037,2.1841 -14.19664,2.73012 -20.20291,2.73012c-8.73639,0 -16.38073,-1.63807 -26.20918,-6.00627c-0.54602,0 -1.63807,0.54602 -2.1841,0.54602c-1.09205,0.54602 -2.73012,0.54602 -3.82217,1.09205c-2.1841,3.82217 -6.00627,6.00627 -10.37447,6.00627l-2.1841,0c-0.54602,1.09205 -1.63807,2.1841 -2.73012,2.73012c-0.54602,2.1841 -2.1841,4.3682 -4.3682,5.46024c0,0.54602 0,0.54602 -0.54602,1.09205c-1.63807,3.27615 -3.82217,5.46024 -6.55229,7.64434c-0.54602,0.54602 -0.54602,1.63807 -1.09205,2.1841c0,2.1841 -0.54602,4.3682 -2.1841,6.55229c-1.09205,1.63807 -2.1841,2.73012 -3.82217,3.27615c-0.54602,2.1841 -2.1841,4.3682 -4.3682,6.00627c-7.09832,4.91422 -16.92676,5.46024 -23.47905,5.46024l-4.91422,0c1.09205,1.63807 2.73012,2.73012 4.91422,3.27615l-0.54602,2.73012c0.54602,0.54602 1.09205,1.63807 1.63807,2.1841c1.09205,1.63807 2.73012,2.73012 3.82217,3.82217c0.54602,0.54602 1.63807,1.09205 2.1841,2.1841l1.09205,-0.54602l1.63807,1.63807l0,1.09205l-3.27615,0l1.09205,2.73012l-1.09205,0c-1.63807,3.27615 -1.63807,6.55229 -0.54602,9.82844l10.37447,3.27615l0.54602,0.54602l0.54602,0.54602c1.09205,0 2.1841,0 3.27615,0.54602c3.27615,0.54602 6.55229,2.1841 9.28242,4.3682c0,-1.09205 0.54602,-2.1841 0.54602,-2.73012c0.54602,0 1.09205,0.54602 1.09205,0.54602l3.27615,0s0.54602,0 0.54602,-0.54602l0.54602,0s0.54602,0 0.54602,-0.54602l0.54602,-0.54602l0.54602,-0.54602l0.54602,-0.54602l0.54602,-0.54602l0,-0.54602l0.54602,-0.54602c0,-0.54602 0.54602,-0.54602 0.54602,-1.09205l0,-0.54602s0,-0.54602 0.54602,-0.54602l0,-0.54602s0,-0.54602 0.54602,-0.54602c0,0 0,-0.54602 0.54602,-0.54602c0,0 0,-0.54602 0.54602,-0.54602c0,0 0,-0.54602 0.54602,-0.54602l0,-0.54602s0,-0.54602 0.54602,-0.54602l0,-0.54602c0,-0.54602 0.54602,-0.54602 0.54602,-1.09205c0,0 0.54602,-0.54602 0.54602,-1.09205c1.63807,-2.1841 2.73012,-4.3682 4.3682,-7.09832c1.09205,-1.63807 2.73012,-3.82217 3.82217,-5.46024c2.1841,-2.73012 4.3682,-4.91422 7.09832,-6.55229c0.54602,-0.54602 1.09205,-0.54602 2.1841,-1.09205c0,0 0.54602,0 0.54602,-0.54602c0.54602,0 1.09205,-0.54602 1.63807,-0.54602c0.54602,0 0.54602,0 1.09205,-0.54602c0.54602,0 1.09205,-0.54602 1.63807,-0.54602c0.54602,0 0.54602,0 1.09205,-0.54602c0.54602,0 1.09205,-0.54602 1.63807,-0.54602c0.54602,0 0.54602,0 1.09205,-0.54602c0.54602,0 1.09205,-0.54602 2.1841,-0.54602l0.54602,0c1.09205,0 1.63807,-0.54602 2.73012,-0.54602l3.27615,0c0.54602,0 1.63807,0 2.1841,0.54602l0.54602,-1.09205l0.54602,-0.54602l2.1841,0c2.1841,0 3.82217,0.54602 6.00627,0.54602c3.27615,0.54602 5.46024,1.63807 7.64434,3.82217c2.1841,1.63807 3.27615,1.63807 5.46024,1.63807c2.1841,0.54602 3.82217,2.1841 5.46024,3.27615c1.09205,1.09205 2.1841,2.73012 3.27615,3.82217c0.54602,0.54602 2.1841,2.73012 4.3682,4.91422c1.09205,1.09205 1.63807,2.1841 2.73012,3.27615c1.63807,1.63807 2.73012,3.27615 4.3682,4.91422c2.73012,3.27615 4.91422,5.46024 4.91422,5.46024c0,0.54602 -2.1841,3.27615 -2.1841,3.27615c1.09205,1.09205 2.73012,1.63807 4.3682,1.63807c0.54602,0 1.09205,0 1.63807,0.54602c1.09205,0 2.1841,0.54602 3.27615,0.54602c1.09205,0 2.1841,0.54602 3.27615,0.54602l5.46024,0c0.54602,0 1.63807,-1.63807 2.73012,-3.27615c1.09205,-2.1841 3.27615,-4.91422 4.91422,-7.09832c0,-0.54602 0.54602,-0.54602 0.54602,-1.09205c-0.54602,-0.54602 -1.09205,-1.09205 -1.09205,-1.63807l-1.63807,-2.1841c-2.1841,-2.73012 -2.73012,-6.55229 -1.63807,-9.82844c1.09205,-3.27615 3.82217,-6.00627 7.09832,-7.09832c2.73012,-0.54602 5.46024,-1.09205 8.19037,-1.09205l3.27615,0l0.54602,-1.09205c1.63807,-2.73012 4.91422,-4.91422 8.73639,-5.46024l0.54602,-0.54602c0,-5.46024 4.3682,-10.37447 9.82844,-11.46651c1.63807,-3.27615 4.3682,-6.00627 7.64434,-8.19037c0,-1.09205 0.54602,-2.1841 0.54602,-2.73012c0,-0.54602 0,-1.09205 0.54602,-1.09205c-0.54602,-4.3682 1.09205,-8.73639 4.91422,-11.46651c1.09205,-0.54602 2.73012,-2.73012 4.3682,-4.3682c0.54602,-0.54602 1.63807,-2.73012 2.1841,-3.27615c-1.63807,1.09205 -2.73012,0 -3.27615,0z" fill="#BBBBBB"/>
  <path stroke="null" id="svg_8" d="m23.72247,432.89001c0.54602,0.54602 0.54602,1.09205 1.09205,2.1841c0.54602,0.54602 1.09205,1.63807 2.1841,2.73012c0.54602,0 0.54602,0.54602 1.09205,0.54602l1.09205,1.09205l1.63807,1.63807c2.73012,2.73012 4.91422,4.91422 4.91422,5.46024l0.54602,3.27615l18.01881,0c1.09205,0 2.1841,-0.54602 3.27615,-0.54602l0.54602,0c1.09205,0 2.1841,-0.54602 2.73012,-1.09205l0.54602,0c1.09205,-0.54602 1.63807,-0.54602 2.73012,-1.09205l0.54602,-2.73012l-3.27615,-3.27615l-1.63807,-1.63807l1.63807,-1.09205c0.54602,0.54602 1.09205,1.09205 1.63807,1.09205l0.54602,0c0.54602,0 0.54602,0.54602 1.09205,0.54602l4.3682,0l-0.54602,-2.1841l-0.54602,-1.09205l2.73012,-2.73012l-1.09205,-2.73012c1.63807,-0.54602 3.27615,-1.09205 4.91422,-2.1841c1.63807,-1.09205 2.73012,-2.1841 3.27615,-3.82217l-1.09205,-2.1841l-0.54602,-1.09205l5.46024,-1.63807l0.54602,-2.73012l0,-1.09205l3.27615,-1.63807l0,-3.27615c0.54602,-0.54602 1.09205,-0.54602 1.63807,-1.09205l0.54602,0c0.54602,0 0.54602,-0.54602 1.09205,-0.54602l6.55229,0c0.54602,0 1.63807,0.54602 2.1841,0.54602c0.54602,-3.82217 1.09205,-2.1841 2.1841,-3.27615c1.09205,-0.54602 1.63807,-1.63807 2.73012,-2.1841c3.82217,-1.63807 8.19037,-2.1841 12.01254,-3.82217l3.27615,1.63807c0.54602,0 0.54602,0.54602 1.09205,0.54602c0.54602,0.54602 1.63807,0.54602 2.1841,1.09205c0.54602,0 0.54602,0.54602 1.09205,0.54602s1.09205,0.54602 2.1841,0.54602c0.54602,0 0.54602,0 1.09205,0.54602c0.54602,0 1.63807,0.54602 2.1841,0.54602l0.54602,0c1.09205,0 1.63807,0.54602 2.73012,0.54602l0.54602,0c0.54602,0 1.09205,0 2.1841,0.54602l10.92049,0c1.09205,0 2.1841,0 3.27615,-0.54602l0.54602,0c1.09205,0 2.73012,-0.54602 3.82217,-0.54602c0.54602,0 0.54602,-1.63807 1.09205,-1.63807c1.09205,-0.54602 2.73012,-2.1841 4.3682,-2.1841c0,0 0.54602,0.54602 1.09205,0c1.09205,-1.09205 2.73012,-1.09205 4.3682,-1.63807l0.54602,3.27615l4.3682,2.1841l4.91422,-2.73012l1.63807,1.09205l1.63807,1.09205c0.54602,-0.54602 1.09205,-1.09205 1.63807,-1.09205c0,0 0.54602,0 0.54602,-0.54602c0.54602,-0.54602 1.09205,-0.54602 1.63807,-0.54602l0.54602,0c0.54602,0 1.63807,-0.54602 2.1841,-0.54602l5.46024,0c0.54602,0 1.63807,0.54602 2.1841,0.54602l4.3682,-3.82217l-1.63807,-3.27615c-0.54602,-0.54602 -0.54602,-1.09205 -1.09205,-1.63807c-0.54602,-0.54602 -0.54602,-1.09205 -1.09205,-1.09205c-0.54602,-0.54602 -1.63807,-1.09205 -2.1841,-1.09205l0,-0.54602l0,-0.54602l0,-0.54602l-0.54602,-0.54602l-0.54602,-0.54602s-0.54602,0 -1.09205,-0.54602l-0.54602,0l-0.54602,0l-1.63807,0l-1.63807,0l-2.1841,0l-1.63807,0l-1.63807,0l-1.63807,0l-2.1841,0l-2.1841,0l-0.54602,-0.54602c-0.54602,0 -1.09205,-0.54602 -1.09205,-0.54602l-2.73012,0c-0.54602,0 -1.63807,0.54602 -2.1841,0.54602l-0.54602,0.54602l-3.82217,0l-2.1841,0l-4.3682,0c-4.3682,-7.09832 -9.28242,-14.19664 -13.65061,-21.29496c-2.1841,-3.27615 -5.46024,-7.64434 -5.46024,-12.01254c0,-0.54602 1.09205,-1.63807 1.09205,-2.1841c0,-1.09205 1.09205,-2.1841 1.63807,-3.27615c0,-0.54602 0.54602,-0.54602 1.09205,-1.09205l0.54602,-0.54602l0.54602,-0.54602c0.54602,-0.54602 0.54602,-0.54602 0.54602,-1.09205c0.54602,-1.09205 -0.54602,-2.73012 -1.63807,-3.27615c-0.54602,0 -0.54602,-0.54602 -1.09205,-0.54602s-1.09205,0 -1.09205,-0.54602l-4.3682,0c-0.54602,0 -1.09205,0 -1.63807,-0.54602c-0.54602,0 -1.09205,-0.54602 -1.63807,-0.54602c-1.09205,-0.54602 -1.63807,-1.09205 -2.1841,-1.63807c-1.63807,-1.09205 -2.73012,-2.73012 -4.3682,-4.3682c-1.63807,-2.1841 -2.73012,-4.3682 -3.82217,-6.55229l-4.91422,-9.82844c-1.09205,-2.1841 -2.1841,-4.3682 -2.73012,-6.55229c-0.54602,-1.09205 -1.09205,-2.1841 -1.09205,-3.27615c-0.54602,-2.1841 -1.63807,-4.3682 -2.1841,-7.09832c0,-1.09205 -0.54602,-1.63807 -0.54602,-2.1841l0,-2.73012c0.54602,-2.73012 2.1841,-3.27615 4.3682,-7.64434c1.09205,-2.1841 2.1841,-2.73012 2.73012,-2.73012c0.54602,0 0,-0.54602 -0.54602,-1.09205l-1.09205,-1.09205s-0.54602,-0.54602 -1.09205,-0.54602c-0.54602,-0.54602 -1.63807,-0.54602 -2.73012,-1.09205c-1.09205,0 -2.1841,-0.54602 -3.27615,-0.54602c-1.09205,0 -1.63807,0 -2.1841,-0.54602c-0.54602,0 -1.63807,0 -1.63807,-0.54602l-2.73012,2.1841c-1.09205,0 -1.63807,-0.54602 -2.73012,-0.54602c-2.1841,-1.09205 -4.91422,-2.73012 -7.64434,-5.46024l-2.73012,-2.73012c-1.63807,-1.63807 -2.73012,-3.27615 -3.82217,-4.3682c-1.09205,-1.63807 -2.1841,-2.73012 -2.73012,-4.3682c0,-0.54602 -0.54602,-0.54602 -0.54602,-1.09205c-0.54602,0 -1.63807,0 -2.1841,0.54602l-0.54602,0c-0.54602,0 -1.09205,0 -1.63807,0.54602l-1.09205,0c-0.54602,0 -1.09205,0 -1.63807,0.54602s-1.09205,0 -1.63807,0.54602l-0.54602,0c-0.54602,0 -1.63807,0 -2.1841,0.54602l-2.1841,0l-2.1841,0l-2.1841,0l-3.27615,0l-0.54602,0c-0.54602,0 -1.63807,0 -2.1841,-0.54602l-0.54602,0c-1.09205,0 -1.63807,-0.54602 -2.73012,-1.09205l-0.54602,0c-1.09205,-0.54602 -1.63807,-0.54602 -2.73012,-1.09205c-0.54602,0 -1.09205,-0.54602 -1.09205,-1.09205c0,0 -0.54602,0 -0.54602,-0.54602c-0.54602,0 -0.54602,-0.54602 -1.09205,-0.54602c0,0 -0.54602,0 -0.54602,-0.54602l-1.09205,-1.09205l-1.63807,-1.63807c-0.54602,-0.54602 -1.09205,-0.54602 -1.09205,-1.09205l-0.54602,-0.54602l-1.09205,-1.09205l-0.54602,-0.54602l-1.63807,-1.63807l-0.54602,-0.54602c-2.1841,-2.73012 -2.73012,-2.73012 -3.27615,-3.27615c0,0 -0.54602,0 -0.54602,-0.54602c-0.54602,-0.54602 -0.54602,-0.54602 -1.09205,-0.54602c0,0 -0.54602,0 -0.54602,-0.54602c-0.54602,-0.54602 -1.09205,-0.54602 -1.63807,-1.09205c-0.54602,0 -1.09205,-0.54602 -1.63807,-0.54602l-1.63807,0l-1.63807,0l-0.54602,0c-0.54602,0 -0.54602,0 -1.09205,0.54602l-0.54602,0c-0.54602,0 -0.54602,0.54602 -1.09205,0.54602c0,0 -0.54602,0 -0.54602,0.54602l-1.63807,1.63807c-1.63807,2.1841 -2.73012,5.46024 -2.73012,9.28242l0,6.00627c0,2.1841 0,4.3682 0.54602,6.55229c0,1.09205 0,2.1841 0.54602,3.27615c0,1.09205 0,2.1841 0.54602,3.27615c0.54602,6.55229 1.63807,12.55856 1.63807,16.38073l0,6.55229c0.54602,7.09832 2.73012,13.65061 7.64434,18.56483c-4.91422,3.27615 -8.19037,7.64434 -9.82844,12.55856c-0.54602,1.63807 -1.09205,2.73012 -1.63807,4.3682c-1.63807,5.46024 -1.63807,11.46651 -1.63807,16.92676c0,3.82217 0.54602,7.64434 0,11.46651c0,1.09205 -0.54602,2.73012 -0.54602,3.82217l-1.63807,3.27615c-0.54602,1.09205 -1.09205,2.73012 -1.63807,3.82217c-0.54602,0.54602 -0.54602,1.63807 -1.09205,2.1841c-4.91422,13.10459 2.73012,27.30122 9.82844,39.31376c1.09205,5.46024 3.27615,9.28242 5.46024,13.65061z" fill="rgb(51, 51, 51)"/>
  <path stroke="null" id="svg_9" d="m296.18869,411.59506l-1.09205,0l-2.73012,0c-1.09205,0 -1.63807,0 -2.73012,0.54602l-0.54602,0c-0.54602,0 -1.09205,0.54602 -2.1841,0.54602l-0.54602,0c-0.54602,0 -1.63807,0.54602 -2.1841,0.54602l-0.54602,0c-0.54602,0 -1.09205,0.54602 -1.63807,0.54602l-0.54602,0c-0.54602,0.54602 -1.63807,0.54602 -2.1841,1.09205l-0.54602,0c-0.54602,0.54602 -1.09205,0.54602 -1.63807,1.09205c0,0 -0.54602,0 -0.54602,0.54602l-1.63807,1.63807c-0.54602,0 -1.09205,-0.54602 -1.63807,-0.54602l-0.54602,-0.54602l-0.54602,0l-1.09205,0.54602l0,-0.54602l0.54602,0s-0.54602,0.54602 0,0.54602l0,-0.54602l-1.09205,0l-0.54602,0l-0.54602,1.09205l0,0.54602l-0.54602,0.54602l-0.54602,0.54602l-0.54602,0.54602l-0.54602,0.54602l-0.54602,0.54602l-0.54602,0.54602l-0.54602,0.54602l-0.54602,0.54602l-0.54602,0.54602l-0.54602,0.54602l-0.54602,0.54602l-0.54602,0.54602l-1.09205,1.09205l-0.54602,0.54602l-0.54602,0.54602l-0.54602,0.54602l-0.54602,0.54602l-0.54602,0.54602l-0.54602,0.54602l-0.54602,0.54602l-0.54602,0.54602c-0.54602,0.54602 -0.54602,0.54602 -1.09205,0.54602l0,3.27615c0,0.54602 0,1.09205 -0.54602,1.63807c-0.54602,2.73012 -1.63807,4.91422 -0.54602,8.19037c-0.54602,0 -1.63807,0.54602 -2.1841,0.54602c-0.54602,0.54602 -1.09205,0.54602 -2.1841,1.09205c-0.54602,0.54602 -1.09205,0.54602 -1.63807,1.09205l-0.54602,0.54602c-0.54602,0 -0.54602,0.54602 -1.09205,0.54602c-0.54602,0.54602 -1.09205,1.09205 -1.09205,1.63807c-0.54602,1.09205 -1.09205,2.1841 -1.63807,3.82217l0,2.1841l-2.1841,0.54602l-4.91422,0.54602l0,2.73012c0,0.54602 0,0.54602 -0.54602,1.09205c0,0.54602 -0.54602,0.54602 -0.54602,1.09205c-1.09205,1.63807 -2.1841,2.73012 -3.82217,3.82217l1.09205,2.1841l-7.64434,0l-1.09205,1.63807l1.09205,1.63807l0.54602,1.09205c-0.54602,0.54602 -1.09205,0.54602 -1.63807,1.09205l-0.54602,0c-0.54602,0 -1.09205,0.54602 -1.09205,0.54602c-0.54602,0 -1.09205,0 -1.63807,0.54602l-2.1841,0l-3.27615,0c-1.09205,0 -3.27615,-1.63807 -3.27615,-1.63807l0,-1.63807l-0.54602,0c-0.54602,0 -1.09205,1.63807 -2.1841,1.63807l0,1.09205s-1.09205,0.54602 -2.1841,0.54602l1.09205,1.63807l0.54602,1.09205c4.91422,0 9.82844,1.09205 14.74266,1.63807c14.74266,2.73012 30.57737,8.19037 45.32003,12.55856c6.55229,2.1841 13.10459,3.82217 19.11086,5.46024c1.09205,-0.54602 2.1841,-1.63807 3.27615,-2.1841c4.3682,-3.27615 9.28242,-7.09832 14.19664,-9.82844c1.09205,-0.54602 2.73012,-1.09205 3.82217,-1.63807c0.54602,-0.54602 1.09205,-0.54602 2.1841,-0.54602c2.1841,-0.54602 3.82217,-1.09205 6.00627,-1.09205l9.28242,0c1.09205,0 2.73012,-0.54602 3.82217,-0.54602c1.63807,0 2.73012,-1.09205 4.91422,-1.09205c1.09205,0 1.63807,0 2.1841,-0.54602l1.09205,0c0.54602,0 1.09205,-0.54602 1.63807,-0.54602c0.54602,0 1.09205,0 1.63807,-0.54602l0.54602,-1.09205c0.54602,0 1.09205,-1.09205 1.63807,-1.09205c0.54602,0 1.09205,1.09205 1.63807,1.09205c0,0 0,0.54602 0.54602,0.54602s1.09205,0.54602 1.63807,0.54602c0,0 0.54602,-0.54602 0.54602,0c0.54602,0 2.1841,0.54602 2.1841,0.54602l0.54602,-1.63807c-1.09205,-0.54602 -2.1841,-0.54602 -2.73012,-1.09205c-2.1841,-1.63807 -4.3682,-3.82217 -6.55229,-5.46024c-2.1841,-1.63807 -5.46024,-4.91422 -7.64434,-6.00627c-2.1841,1.63807 -4.3682,2.1841 -7.09832,2.1841c-2.1841,0 -4.3682,-0.54602 -6.55229,-1.63807c-3.82217,-2.1841 -6.00627,-6.55229 -6.00627,-11.46651c-1.63807,0 -3.27615,-1.09205 -4.91422,-1.63807c-0.54602,-0.54602 -1.09205,-0.54602 -1.09205,-0.54602l-2.73012,0c-4.91422,0 -9.82844,-3.27615 -11.46651,-7.64434l-1.63807,-4.3682c-1.63807,-3.82217 -1.09205,-7.64434 1.09205,-10.37447c0.54602,-0.54602 1.09205,-1.09205 1.09205,-1.63807c2.73012,-3.82217 3.27615,-4.3682 3.27615,-5.46024c0,-2.73012 -0.54602,-5.46024 -0.54602,-8.73639l0,-1.63807l-2.73012,0z" fill="rgb(51, 51, 51)"/>
  <path stroke="null" id="svg_10" d="m419.04421,288.19352c-8.19037,0 -11.46651,-8.19037 -18.01881,-11.46651c-3.27615,-1.63807 -6.00627,0.54602 -9.28242,1.63807c-3.82217,1.63807 -9.82844,2.73012 -13.10459,4.91422c-6.55229,4.91422 -7.09832,14.19664 -15.28869,17.47278c-4.3682,1.63807 -8.73639,2.73012 -13.10459,4.3682c-4.3682,1.63807 -9.28242,3.82217 -14.19664,4.3682c4.3682,1.63807 10.37447,3.27615 13.10459,7.64434c2.73012,4.3682 1.09205,10.92049 0.54602,15.83471c-0.54602,4.91422 0,10.37447 0.54602,15.28869c0.54602,2.73012 1.63807,5.46024 2.1841,8.19037c0.54602,1.63807 -0.54602,3.27615 1.63807,3.82217l0,-1.63807c-2.73012,0 -4.91422,1.09205 -7.64434,1.63807c-3.27615,0.54602 -7.09832,0.54602 -10.37447,1.09205c-0.54602,0 -1.63807,0 -2.1841,0.54602c-1.63807,0 -2.1841,0.54602 -1.63807,2.1841c-0.54602,2.1841 0.54602,6.00627 0.54602,8.19037c0.54602,4.91422 1.63807,9.28242 3.27615,13.65061c-5.46024,0 -10.92049,1.09205 -15.83471,2.73012c-3.82217,1.09205 -9.28242,2.1841 -10.92049,6.00627c-3.82217,7.64434 1.09205,18.56483 0.54602,26.20918c0,3.82217 -1.63807,7.09832 -3.82217,10.37447c-2.1841,3.27615 -3.27615,3.82217 -1.63807,7.64434c0.54602,1.63807 1.09205,3.82217 3.82217,3.82217c1.09205,0 2.1841,-1.63807 2.73012,-2.1841c1.09205,-0.54602 2.1841,0 3.27615,0l2.1841,0c0,0.54602 0.54602,1.09205 1.09205,1.09205c0,-1.09205 1.09205,-1.09205 1.63807,-1.63807c1.63807,1.63807 3.82217,2.1841 6.00627,2.73012c1.09205,0.54602 4.91422,0.54602 5.46024,1.09205c0.54602,0.54602 0.54602,2.73012 0.54602,3.27615c-0.54602,1.09205 -2.73012,1.09205 -3.27615,2.1841c0,2.1841 0,4.91422 -0.54602,6.55229c0.54602,-0.54602 1.09205,-0.54602 1.63807,-1.09205c0,0 2.73012,-0.54602 3.27615,-1.09205c0,-1.63807 9.82844,2.73012 10.37447,3.27615c3.82217,2.73012 7.09832,6.55229 10.92049,9.28242c3.27615,2.73012 4.3682,0 7.09832,0c4.91422,0 8.73639,2.73012 14.19664,1.09205c2.73012,2.1841 4.91422,4.91422 8.19037,4.91422c1.09205,0 4.3682,0 6.00627,-0.54602c1.63807,-0.54602 2.73012,-2.1841 4.91422,-2.73012c5.46024,-1.09205 21.84098,8.19037 19.65688,14.19664c0,-0.54602 1.63807,-3.27615 2.1841,-3.27615c-0.54602,0 1.63807,2.1841 1.63807,2.73012c1.63807,1.09205 3.82217,1.09205 5.46024,1.09205c3.82217,0.54602 8.73639,2.73012 12.01254,2.73012c1.09205,0 1.09205,0.54602 1.63807,0c0.54602,0 0,-1.63807 0.54602,-1.63807c1.63807,-0.54602 0,0 1.09205,1.63807c2.73012,2.73012 8.73639,1.63807 12.01254,0.54602c6.00627,-2.1841 6.55229,-6.55229 6.00627,-12.55856c0,-8.73639 0.54602,-17.47278 2.73012,-26.20918c2.1841,-9.28242 6.00627,-16.92676 9.28242,-25.66315c1.09205,-2.73012 2.1841,-6.00627 0.54602,-8.19037c-1.63807,-2.73012 -4.91422,-2.1841 -6.00627,-4.91422c-3.27615,-6.55229 5.46024,-13.65061 9.82844,-16.92676c2.1841,-1.63807 9.82844,-10.37447 10.92049,-7.09832c0,0 0.54602,-1.09205 1.09205,-1.09205l1.63807,0.54602s0.54602,0.54602 0.54602,0c0,0 1.63807,-1.09205 1.09205,-1.09205c1.63807,-1.09205 4.3682,-1.09205 6.00627,-2.73012c1.63807,-1.09205 1.09205,-1.63807 1.09205,-3.82217c-0.54602,-4.91422 -0.54602,-9.82844 2.1841,-14.74266c-8.19037,-3.27615 -10.37447,-11.46651 -9.82844,-19.65688c0.54602,-8.73639 1.09205,-16.92676 0,-25.66315c-0.54602,-2.1841 -1.09205,-4.91422 -1.09205,-7.09832c-1.09205,-1.09205 -1.09205,-1.63807 0,-2.1841c0.54602,0 0.54602,-0.54602 1.09205,-0.54602s0.54602,-0.54602 1.09205,-0.54602l0,-3.27615l0,-7.09832c-0.54602,-4.3682 -1.63807,-6.55229 -3.82217,-9.82844c-1.09205,-0.54602 -1.63807,-1.09205 -0.54602,-2.73012c0.54602,-1.09205 0.54602,-2.1841 1.09205,-3.27615c0.54602,-2.1841 1.63807,-4.3682 2.1841,-6.55229c-10.92049,2.1841 -22.387,4.91422 -33.30749,7.09832c-7.09832,1.63807 -14.74266,3.27615 -21.84098,4.91422c-4.91422,0.54602 -8.73639,2.1841 -13.10459,2.1841z" fill="#666666"/>
  <path stroke="null" id="svg_11" d="m387.37478,51.76491c-0.54602,0 -0.54602,0 -1.09205,0.54602c-1.09205,0.54602 -2.1841,1.63807 -3.82217,2.1841c-0.54602,0 -1.09205,0.54602 -1.09205,0.54602c-1.09205,0.54602 -1.63807,0.54602 -2.73012,1.09205c-0.54602,0 -1.09205,0.54602 -1.63807,0.54602c-0.54602,0 -1.63807,0.54602 -2.1841,0.54602c-0.54602,0 -1.09205,0 -1.63807,0.54602c-0.54602,0 -1.63807,0.54602 -2.1841,0.54602c-0.54602,0 -1.09205,0 -1.63807,0.54602c-0.54602,0 -1.63807,0 -2.1841,0.54602l-10.37447,0l-0.54602,0c-1.09205,0 -1.63807,0.54602 -1.63807,0.54602l-3.27615,0l-6.00627,0l-2.73012,0l-1.63807,0l-1.63807,0l-0.54602,0c-0.54602,0 -0.54602,0 -1.09205,0.54602c-0.54602,0 -0.54602,0.54602 -1.09205,0.54602l-0.54602,0l-0.54602,0.54602l-0.54602,0.54602s-0.54602,0.54602 -0.54602,1.09205c0,0 0,0.54602 -0.54602,0.54602c0,0.54602 -0.54602,0.54602 -0.54602,1.09205l0,0.54602c0,0.54602 -0.54602,1.09205 -0.54602,2.1841c-0.54602,2.1841 0,4.3682 0,6.55229l0,6.55229c-1.09205,6.00627 -4.3682,11.46651 -6.00627,16.92676l-3.27615,8.19037c-2.73012,7.64434 -6.00627,15.83471 -8.19037,23.47905c0,0.54602 -0.54602,1.63807 -0.54602,2.1841c-1.63807,5.46024 -2.73012,10.37447 -3.82217,15.83471l0,0.54602c-0.54602,3.27615 -1.63807,6.00627 -2.1841,9.28242c-1.09205,2.73012 -1.63807,5.46024 -3.27615,8.19037c-0.54602,1.63807 -1.63807,3.27615 -2.1841,4.3682c1.09205,1.09205 2.1841,1.63807 3.27615,2.73012c0.54602,0 0.54602,0.54602 1.09205,0.54602c2.1841,1.63807 3.82217,3.27615 6.00627,4.3682c3.27615,2.73012 7.09832,4.91422 10.37447,7.64434c1.09205,0.54602 2.1841,1.63807 2.73012,2.1841c1.09205,1.09205 1.63807,1.63807 1.63807,3.27615l0,3.27615c0,1.09205 -0.54602,1.63807 -1.09205,2.73012c-1.09205,2.73012 -2.1841,4.91422 -3.82217,7.09832c-0.54602,0.54602 -1.09205,1.63807 -1.63807,2.1841c-1.09205,1.63807 -1.63807,2.73012 -2.73012,4.3682l-0.54602,0.54602c0,0.54602 -0.54602,0.54602 -0.54602,1.09205c-1.09205,1.63807 -1.63807,3.27615 -2.1841,4.91422l0,1.09205c0,1.09205 0.54602,2.73012 1.63807,3.82217c0,0.54602 0.54602,0.54602 0.54602,1.09205c3.82217,6.00627 7.09832,12.55856 9.28242,19.11086c1.09205,3.27615 2.1841,6.55229 2.73012,9.82844c0.54602,3.27615 1.63807,6.55229 1.63807,10.37447l0,9.82844c0,3.27615 -0.54602,6.55229 -0.54602,9.82844l0,3.82217c0,4.3682 0.54602,8.73639 2.73012,12.55856c0.54602,0.54602 0.54602,1.09205 1.09205,1.63807c8.19037,-2.73012 16.38073,-5.46024 24.02508,-8.19037c3.82217,-7.09832 7.09832,-12.01254 12.01254,-16.38073c0.54602,-0.54602 1.63807,-0.54602 2.73012,-1.09205l13.10459,-4.91422l13.10459,-4.91422c1.09205,0.54602 1.63807,0.54602 2.73012,1.09205c1.63807,0.54602 3.27615,1.63807 4.3682,2.1841c3.82217,2.1841 7.09832,5.46024 12.55856,9.82844l65.52294,-14.19664c-0.54602,-0.54602 -0.54602,-1.09205 -1.09205,-2.1841s-1.09205,-2.73012 -1.09205,-3.82217c0,-0.54602 -0.54602,-1.09205 -0.54602,-2.1841c0,-1.63807 -0.54602,-2.73012 -0.54602,-4.3682l0,-2.1841c0,-13.10459 5.46024,-28.9393 2.73012,-41.49786c-0.54602,-1.63807 -0.54602,-2.73012 -1.09205,-4.3682c-0.54602,-1.63807 -1.09205,-2.73012 -2.1841,-3.82217c-1.09205,-2.1841 -2.73012,-3.82217 -4.91422,-5.46024c0.54602,-1.63807 0.54602,-3.27615 1.09205,-4.91422c1.63807,-4.3682 3.82217,-8.19037 7.64434,-11.46651l-1.09205,-3.82217l2.73012,0l1.63807,-6.55229c-1.63807,-2.1841 -4.3682,-3.82217 -6.55229,-5.46024c-2.1841,-1.09205 -3.82217,-2.1841 -6.00627,-2.73012c-1.09205,-0.54602 -2.73012,-1.09205 -3.82217,-2.1841c-0.54602,-0.54602 -1.09205,-0.54602 -1.63807,-1.09205c-3.27615,-2.1841 -6.00627,-5.46024 -6.55229,-11.46651c-1.09205,-14.19664 16.92676,-19.65688 14.19664,-35.49159c0,-1.09205 -2.73012,-3.27615 -4.91422,-4.91422l-2.1841,-2.1841c0,-0.54602 -0.54602,-0.54602 -0.54602,-1.09205c-0.54602,-1.09205 -0.54602,-1.63807 -0.54602,-2.73012l0,-0.54602l0,-2.73012l0,-1.09205c0,-1.09205 0.54602,-1.63807 1.09205,-2.73012s1.09205,-1.63807 1.63807,-2.73012c0,-0.54602 0.54602,-0.54602 0.54602,-1.09205c1.09205,-1.63807 2.1841,-3.27615 3.27615,-5.46024c3.27615,-7.09832 3.27615,-17.47278 2.73012,-25.66315l0,-3.27615c0,-3.82217 -1.09205,-7.09832 -2.73012,-9.82844s-3.82217,-5.46024 -6.55229,-7.64434c-1.09205,-0.54602 -1.63807,-1.63807 -2.73012,-2.1841c-1.09205,-0.54602 -2.1841,-1.63807 -3.27615,-2.1841c-1.09205,-0.54602 -1.63807,-1.09205 -2.73012,-1.63807c0,0 -0.54602,0 -0.54602,-0.54602c-0.54602,-0.54602 -1.63807,-0.54602 -2.73012,-1.09205l-0.54602,0c-1.09205,-0.54602 -2.1841,-0.54602 -2.73012,-0.54602l-2.73012,0l-3.27615,0c-1.09205,0 -1.63807,0.54602 -2.73012,0.54602l-1.09205,0c-0.54602,0 -1.09205,0.54602 -2.1841,0.54602c-0.54602,0 -0.54602,0 -1.09205,0.54602c-0.54602,0 -1.63807,0.54602 -2.1841,0.54602l-0.54602,0c-1.09205,0.54602 -1.63807,0.54602 -2.73012,1.09205c0,0 -0.54602,0 -0.54602,0.54602c-0.54602,0.54602 -1.09205,0.54602 -2.1841,1.09205c-0.54602,0 -0.54602,0.54602 -1.09205,0.54602c-0.54602,0.54602 -1.09205,0.54602 -1.63807,1.09205l-0.54602,0.54602c-0.54602,0.54602 -1.63807,1.09205 -2.1841,1.63807c-2.73012,2.1841 -5.46024,4.91422 -8.19037,7.09832c-5.46024,4.3682 -9.82844,8.19037 -15.28869,10.37447c-1.63807,0.54602 -2.73012,1.09205 -4.3682,1.63807c-0.54602,0 -1.09205,0 -1.63807,0.54602c-0.54602,0 -0.54602,-1.63807 -1.09205,-1.63807s-0.54602,-1.63807 -1.09205,-1.63807s-0.54602,1.63807 -1.09205,1.63807c0,0 0,0.54602 -0.54602,0.54602l-0.54602,0l-0.54602,0c-0.54602,0 -0.54602,0 -1.09205,-0.54602c-0.54602,0 -1.09205,-0.54602 -1.63807,-0.54602c-0.54602,0 -0.54602,-0.54602 -1.09205,-0.54602l-1.63807,0l-0.54602,0c0.54602,0 0.54602,0 0,0zm16.92676,209.67341c0.54602,-0.54602 0.54602,-0.54602 0,0l0.54602,0l0.54602,0.54602c-0.54602,-0.54602 -0.54602,-0.54602 -1.09205,-0.54602z" fill="#444444"/>
  <g transform="matrix(5.460244950635781,0,0,5.460244950635781,-1239.4489816846283,-933.6457447277234) " stroke="null" id="svg_12">
   <path stroke="null" id="svg_13" d="m262.5397,211.27005l-0.2,0l0.2,0z" fill="#666666"/>
   <path stroke="null" id="svg_14" fill="#666666" d="m262.3397,211.27005z"/>
   <path stroke="null" id="svg_15" d="m286.1397,181.47005c-1.2,0.6 -2.6,1.3 -3,2.5l-0.3,0l-1.3,-1c-0.1,0 -0.2,0.1 -0.3,0.1c-0.2,0 -0.3,-0.1 -0.5,-0.1c0,0 0,-0.1 -0.1,-0.1c-0.2,0 -0.3,0 -0.5,0.1l-0.1,0c-0.1,0.1 -0.3,0.1 -0.4,0.2l-0.1,0c-0.1,0.1 0.2,0.2 -0.5,0.3l-0.7,-0.2l-1.1,-2.6l-0.7,-0.1l-0.7,-0.1c-0.1,0.1 -0.1,0.3 -0.2,0.4c-0.4,0.6 -0.9,1.1 -1.5,1.4l0,0.6c0,0.6 0,1.3 -0.1,1.9c-0.1,1.4 -0.3,2.4 -0.6,3.4c-0.2,0.5 -0.4,1 -0.9,1.5c-1,1 -2.1,1.1 -2.8,1.2c-1,2.6 -2.4,5.7 -4.8,8.4c-0.8,0.9 -2,2.3 -4.1,2.2c-0.3,0 -0.7,0 -1,-0.1c-0.8,-0.2 -1.4,-0.5 -1.8,-0.8c-0.1,-0.1 -0.2,-0.1 -0.3,-0.2l-1.4,0c-0.3,0.1 -0.5,0.2 -0.8,0.2c0.2,0.6 0.2,1.2 -0.1,1.8c-1.2,2.4 -5.1,3.9 -6.9,4.2l-1,0c-0.1,0 -0.2,0 -0.3,-0.1c-1.2,-0.4 -1.7,-0.5 -2.6,-0.5l-0.7,0c-0.8,0 -1.5,-0.1 -2,-0.2c-0.9,-0.1 -2,-0.2 -3.3,-0.4c-0.7,0 -1.5,-0.1 -2.4,-0.4c-0.5,-0.2 -1,-0.5 -1.4,-0.7c-0.4,-0.2 -0.9,-0.5 -1.2,-0.5c-0.1,0 -0.1,0.1 -0.2,0.1c-0.7,0 -1.3,-0.3 -1.8,-0.8c-0.2,-0.2 -0.7,-0.4 -1.2,-0.4l-0.1,0l0,0.1c-0.1,1 -0.2,1.9 -0.2,2.9c0,0.6 0.2,1.2 0.3,1.9c0.2,0.6 0.3,1.2 0.3,1.8l-1,-0.1c0,0.3 0.1,0.6 0.1,0.9l0,2.7c0,0.6 0,1.2 -0.1,1.7c0.6,-0.3 1.3,-0.4 1.8,-0.4c1.9,0 3.4,1.3 4.5,2.3c0.3,0.2 0.6,0.6 0.8,0.7c0.2,0.1 0.4,0.2 0.9,0.2s1.2,-0.1 1.9,-0.3c0.4,-0.1 0.8,-0.2 1.2,-0.2l0.4,0c0.9,0 1.7,0.5 2.1,1.3c0.3,0.5 1,1.3 1.6,1.9c0.2,-0.1 0.4,-0.1 0.6,-0.1c0.2,0 0.4,0 0.6,0.1c0.1,0 0.2,0 0.4,0.1c0.9,0.2 2,0.3 2.8,1.1l0.1,0.1c0.2,0.2 0.7,0.7 0.8,1.3c0.1,0 0.1,0 0.2,-0.1l0.8,0c0.1,0 0.1,0 0.2,0.1l0.1,0c0.1,0 0.2,0.1 0.3,0.1l0.5,-0.4l0.9,-0.8l-0.1,-0.2l0,-0.1c0.3,-0.3 0.4,-0.7 0.6,-1.2c0.1,-0.4 0.2,-0.9 0.2,-1.3c0,-0.3 0,-0.6 -0.1,-0.9l1.2,-0.9c-0.3,-0.5 -0.6,-1 -0.8,-1.5c-0.1,-0.4 -0.2,-0.8 -0.1,-1.2c0,-0.1 0.1,-0.3 0.1,-0.4l0.2,0l0.4,0.3l0.9,-0.3l0.8,0.6l0,0.7l0.9,0.1c0.2,-0.3 0.3,-0.6 0.3,-0.9l0,-0.2c0,-0.2 -0.1,-0.5 -0.2,-0.7c0.2,0 0.3,0.1 0.5,0.1l0.6,0c0.1,0 0.3,-0.1 0.4,-0.1l0.1,0l-0.1,0c0.1,0 0.1,-0.1 0.1,-0.1l0,-0.1s0.3,-0.3 0.4,-0.3c0.1,0 0.3,0.1 0.3,0l0,-0.2l0.2,0.2c0.1,-0.7 0.1,-0.7 0.2,-0.7l0.1,0c0.1,0 0.1,-0.3 0.2,-0.4c0.2,0.1 0.4,0.1 0.5,0.1l1.2,0l0,-0.1s0,-0.2 0.1,-0.2l0.1,0c0,-0.1 0.3,-0.1 0.3,-0.2l0.2,0l0.2,-0.2c0.1,-0.1 0.1,-0.2 0.2,-0.3c0,-0.1 0.1,-0.2 0.1,-0.3c0,-0.1 0.1,-0.2 0.1,-0.3c0,-0.1 0.1,-0.2 0.1,-0.3c0,-0.1 0.1,-0.2 0.1,-0.3c0.1,-0.1 0.1,-0.2 0.2,-0.3c0.1,-0.1 0.1,-0.2 0.2,-0.3c0.1,-0.1 0.1,-0.2 0.2,-0.3c0.1,-0.1 0.2,-0.2 0.3,-0.2c0.1,-0.1 0.2,-0.1 0.3,-0.2c0.1,-0.1 0.3,-0.1 0.4,-0.2l0.7,0.3c0.1,-0.7 0.4,-1.4 0.8,-2c0.5,-0.7 1.1,-1.3 1.8,-1.8c0.5,-0.3 1,-0.6 1.5,-0.8c0.1,-0.1 0.3,-0.1 0.4,-0.1l0.4,-1.4l0.9,-0.5l0.1,-0.6l1.3,0.4c0.1,-0.3 0.2,-0.5 0.4,-0.7l0.3,-0.3c0.5,-0.4 1.1,-0.7 1.5,-1.2l0.8,0.1l0.8,0.1c0.7,-0.5 0.9,-1.4 0.9,-2.3l0.2,-0.1c0.1,0.1 0.2,0.2 0.3,0.2c0,0 0.1,0 0.1,0.1c0.1,0 0.2,0.1 0.2,0.1l0.2,0c0.1,0 0.2,0 0.2,0.1l0.6,0c0.1,0 0.1,-0.2 0.2,-0.2s0.1,-0.2 0.2,-0.2l0.2,0.3s0.1,0 0.2,-0.1l0.1,0c0.1,0 0.2,-0.1 0.3,-0.2l0.2,-0.6c0.2,0 0.4,-0.1 0.6,-0.1c0.1,-0.6 0.3,-1.2 0.5,-1.8c0.6,-1.9 1.3,-3.7 2,-5.5l0.3,-0.8c0.1,-0.4 0.3,-0.7 0.4,-1c0.3,-0.6 0.5,-1.2 0.6,-1.7l0,-0.6c0,-0.5 -0.1,-1.1 0,-1.7c0.3,-1.5 0.4,-1.8 0.6,-2.2z" fill="#666666"/>
  </g>
  <metadata stroke="null" transform="translate(-0.3700581192970276,-0.3700581192970276) translate(0.555087149143219,2.220348596572876) translate(-96.26889038085938,-72.0917739868164) translate(319.1235656738281,0) translate(0,238.41152954101562) matrix(5.460244950635781,0,0,5.460244950635781,-244.6372666874954,-183.5661460676498) ">geographygeography,cartogram,map,atlas,location,boundary,border,choropleth map,visualization,visualizebyewqsae</metadata>
 </g>
</svg>