<?xml version="1.0" encoding="utf-8"?><svg viewBox="0 0 100 100" xmlns="http://www.w3.org/2000/svg" width="128px" height="128px" xmlns:xlink="http://www.w3.org/1999/xlink" style="width:100%;height:100%;background-color:rgb(255, 255, 255);animation-play-state:paused" ><g class="ldl-scale" style="transform-origin:50% 50% 0px;transform:rotate(0deg) scale(0.8);animation-play-state:paused" ><path fill="#333" d="M62 39.3c0-5.4 3.8-9.9 8.8-11 .2-.6 1.2-1.4 1.2-2.3 0-1.7-1.3-3.3-1.9-4.4-.5-.8-2.5-.3-2.5-1.3 0-.3.8-.2.8-.9-.2-1-.6-.5-1.1-.6-.5-.1-.5-.4-.8-.5-.1 2.5-2.1 4.5-4.7 4.5s-4.7-2.1-4.7-4.7c0-.8.2-1.5.6-2.2h-.2c-.5-.1-.8-.3-.9-.4-.3-.4-3-.2-3.3-.4-.8-.7-.2-1.6-1.9-1.8-.1 0-.1 1.2-.4 1.2h-3.2c-6.3-.1-12.6-.7-18.8-1.7-2.6-.4-5.2-1-7.8-1.5-1.3-.3-2.7-.6-4-.9-.7-.2-3.6-1.5-4.3-1.2-.6.3.1 1-.5 1.5-.4.3-1 0-1.6-.3-.6-.4-2.3-1.1-1.3.6.4.7.1 2.2.2 2.8.3-.1.7-.1 1-.1 2.4 0 4.4 2 4.4 4.4s-2 4.4-4.4 4.4c-1.6 0-3-.9-3.8-2.2-.1.2-.2.3-.3.5-.7 1.2-.2 2.5-.6 3.8-.5 1.4-.9 1.6-1 2.9-.1 1.7.2 3.3.6 4.9.2.8.8 1.9.9 2.8 0 .4 0 1 .2 1.8.2.9.7 1.2.9 2 .1.5-.6 1.4.1 2 .7.6 2.1 1 2.6 1.4.3.2 1.7 1.1 1.9 1.4.8 1-.3 2 1.3 2.3.7.1 1.6.1 2.3.3.8.2.7.4 1 .6 3.2 1.6 10 4.5 11.8 4.2 1.8-.3 2-1 2.9-.5.6.3 2.2 2.3 2.6 2.9.6 1.1 1 3.6 2.8 3.6 1.5 0 1.5-2.7 3.8-1.3 1.2.7 1.1 2.8 2 3.4 1.2.7 1.1 2.8 2 3.8.9 1 1.5.7 2 1 .6.3.9.7 1.5.6.5-.1.4-1.1.2-1.8-.2-.9-.1-1.8.2-2.6.3-.8 3.6-2.7 5.3-3.5 1.9-.9 4.9.2 5.7.3.8.1 3.1.7 3.7.3.6-.3.3-1.2.2-1.3-.1-.4.3-1.1.4-1.4.1-.3 1.2-.4 1.8-.2 1.4.3 3.3-1 5.3.8.8.7 1.6-.6 2.1-1.2s3.5 2 3.1 3.3c-.7 2.1 2.4 3.9 3 5.3 1.2-.9.7 1.6 1.7 1.2 1-.4 1.5-.9 1.6-1.9.3-3.4-2.4-5.7-3.6-8.4-.7-1.5-.7-2.8-.1-4.2-1.6.8-3.4 1.3-5.3 1.3-6.4-.1-11.5-5.1-11.5-11.4zm4.5-16.8s0-.1 0 0zM18.3 44.6c-4.6 0-8.4-3.8-8.4-8.4 0-4.6 3.8-8.4 8.4-8.4s8.4 3.8 8.4 8.4c0 4.6-3.8 8.4-8.4 8.4zm18.1-15.5c-2.3 0-4.3-1.9-4.3-4.3 0-2.3 1.9-4.3 4.3-4.3 2.3 0 4.3 1.9 4.3 4.3s-1.9 4.3-4.3 4.3zm13.3 15.2c-2.2 0-4.1-1.8-4.1-4.1 0-2.2 1.8-4.1 4.1-4.1s4.1 1.8 4.1 4.1-1.8 4.1-4.1 4.1z" style="fill:rgb(51, 51, 51);animation-play-state:paused" ></path>
<path fill="#333" d="M94.6 16.7c-1.4-1.1-1.3-2.1-2.2-3.1-1.1-1.3-3-.5-3.6 1.4-.5 1.4-.2 1.9-1.2 2.7s-2.7 1.1-4.2 1.4c-1.5.3-2.2 2.2-2.4 3.1-.2.8-.9 1.5-1.3 1.6-.5.2-1.3-.2-1.9.2-1.4.7-.4 1.1-.4 1.5 0 1.1-1.9 1.9-2.8 2.4 0 0-.1 0-.1.1 5.7.6 10.2 5.4 10.2 11.3 0 1.2-.2 2.3-.5 3.3.2-.1.3-.3.5-.4.5-.4 1.8-2.4 1.7-3.3-.1-.6-.4-.7-.6-2.1-.2-1.4.1-2.6.3-3.6.3-1.2-.1-3.1.6-4.5.7-1.3 2.9-.5 3.5-2.9.6-2.4 1.1-5.5 2.2-5.9 1.1-.2 3.6-2.1 2.2-3.2z" style="fill:rgb(51, 51, 51);animation-play-state:paused" ></path>
<circle fill="#333" r="3" cy="81.8" cx="23" style="fill:rgb(51, 51, 51);animation-play-state:paused" ></circle>
<circle fill="#333" r="5" cy="81.8" cx="35" style="fill:rgb(51, 51, 51);animation-play-state:paused" ></circle>
<ellipse fill="#333" ry="6.7" rx="7" cy="81.8" cx="51" style="fill:rgb(51, 51, 51);animation-play-state:paused" ></ellipse>
<circle fill="#333" r="9" cy="81.8" cx="71" style="fill:rgb(51, 51, 51);animation-play-state:paused" ></circle>
<metadata xmlns:d="https://loading.io/stock/" style="animation-play-state:paused" ><d:name style="animation-play-state:paused" >bubble map</d:name>
<d:tags style="animation-play-state:paused" >bubble map,dorling cartogram,area map,us map,atlas,statistics,visualization,visualize</d:tags>
<d:license style="animation-play-state:paused" >by</d:license>
<d:slug style="animation-play-state:paused" >xp21mq</d:slug></metadata></g><!-- generated by https://loading.io/ --></svg>