<svg width="100" height="100" xmlns="http://www.w3.org/2000/svg">

 <g>
  <title>background</title>
  <rect fill="none" id="canvas_background" height="102" width="102" y="-1" x="-1"/>
 </g>
 <g>
  <title>Layer 1</title>
  <path id="svg_1" d="m50,45.5l0,0c-5.9,-3.6 -12.7,-5.5 -19.5,-5.5l-22.5,0l0,5l22.5,0c6.9,0 13.7,1.9 19.5,5.5l0,0c5.9,3.6 12.7,4.5 19.6,4.5l22.4,0l0,-5l-22.4,0c-6.9,0 -13.7,-0.9 -19.6,-4.5z"/>
  <path id="svg_2" d="m27.5,31.5l-20,0l0,-9l20,0c6.5,0 15.5,-1.5 22.1,-8.8c5,-5.6 12.3,-8.2 22.8,-8.2l20,0l0,9l-20,0c-8.1,0 -16.4,0.5 -22.1,6.8c0,0.1 -9.3,10.2 -22.8,10.2zm-19,-1l19,0c13,0 22,-9.7 22.1,-9.8c6,-6.6 14.5,-7.2 22.8,-7.2l19,0l0,-7l-19,0c-10.2,0 -17.3,2.5 -22.1,7.8l0,0c-5.4,6 -13.3,9.2 -22.8,9.2l-19,0l0,7z"/>
  <path id="svg_3" d="m50,71.5c-5.8,-12.3 -17.8,-24.5 -31.4,-24.5l-10.6,0l0,6l10.6,0c13.6,0 23,13.5 31.4,27.5c4.4,7.3 17.8,13.5 31.4,13.5l10.6,0l0,-6l-10.6,0c-13.6,0 -26.4,-5.9 -31.4,-16.5z"/>
  <path id="svg_4" d="m8,81l0,0l0,5l0,0c12.1,0 23.4,-5.8 30.4,-15.5l23.1,-31.9c7.1,-9.8 18.4,-15.6 30.5,-15.6l0,0l0,-5l0,0c-12.1,0 -23.4,5.8 -30.4,15.5l-23.2,32c-7,9.7 -18.3,15.5 -30.4,15.5z"/>
  <rect id="svg_5" height="28" width="3" y="5" x="5"/>
  <rect id="svg_6" height="28" width="3" y="67" x="5"/>
  <rect id="svg_7" height="28" width="3" y="36" x="5"/>
  <path id="svg_8" d="m92.5,62.5l-0.5,0c-10.9,0 -21.4,-4.3 -29.2,-12l-26.3,-26.3c-7.6,-7.5 -17.8,-11.7 -28.5,-11.7l-0.5,0l0,-4l0.5,0c10.9,0 21.4,4.3 29.2,12l26.4,26.3c7.5,7.5 17.8,11.8 28.5,11.7l0.5,0l0,4l-0.1,0zm-84,-51c10.8,0.1 21,4.4 28.7,12l26.4,26.3c7.4,7.4 17.5,11.6 28,11.7l0,-2c-10.8,-0.1 -21,-4.4 -28.7,-12l-26.4,-26.3c-7.5,-7.4 -17.5,-11.6 -28,-11.7l0,2z"/>
  <rect id="svg_9" height="28" width="3" y="5" x="92"/>
  <rect id="svg_10" height="28" width="3" y="67" x="92"/>
  <rect id="svg_11" height="28" width="3" y="36" x="92"/>
  <path id="svg_12" d="m9.1,15l-1.1,0l0,6l1.1,0c8.9,0 17.4,3.5 23.7,9.8l35.5,35.4c6.3,6.3 14.8,9.8 23.7,9.8l0,0l0,-6l0,0c-8.9,0 -17.4,-3.5 -23.7,-9.8l-35.5,-35.4c-6.3,-6.3 -14.8,-9.8 -23.7,-9.8z"/>
  <path id="svg_13" d="m59.3,35.1l-18.7,12.1c-7.6,4.9 -16.4,7.5 -25.5,7.5l-7.1,0l0,4.4l6.7,0c9.3,0 18.4,-2.8 26.1,-8l18.3,-12.1c7.7,-5.2 16.7,-8 26,-8l7,0l0,-3.4l-7.4,0c-9,0 -17.8,2.6 -25.4,7.5z"/>
  <path id="svg_14" d="m9.8,78.2l-2.3,0l0,-8.5l2.3,0c12.4,0 24.5,-3.9 34.4,-11.3l11,-8.1c10.1,-7.5 22.4,-11.5 35,-11.5l2.3,0l0,8.5l-2.3,0c-12.4,0 -24.5,3.9 -34.4,11.3l-11,8.1c-10.1,7.5 -22.4,11.5 -35,11.5zm-1.3,-1l1.3,0c12.4,0 24.5,-3.9 34.4,-11.3l11,-8.2c10.1,-7.5 22.4,-11.5 35,-11.5l1.3,0l0,-6.5l-1.3,0c-12.4,0 -24.5,3.9 -34.4,11.3l-11,8.2c-10.1,7.5 -22.4,11.5 -35,11.5l-1.3,0l0,6.5z"/>
  <path id="svg_15" d="m11.4,93.2l-3.9,0l0,-5.5l3.9,0c8.8,0 17.5,-0.9 26.1,-2.6l24.6,-4.9c8.7,-1.7 17.5,-2.6 26.3,-2.6l4,0l0,5.4l-4,0c-8.8,0 -17.5,0.9 -26.1,2.6l-24.6,4.9c-8.6,1.8 -17.4,2.7 -26.3,2.7zm-2.9,-1l2.9,0c8.8,0 17.5,-0.9 26.1,-2.6l24.7,-4.9c8.7,-1.7 17.5,-2.6 26.3,-2.6l3,0l0,-3.4l-3,0c-8.8,0 -17.5,0.9 -26.1,2.6l-24.7,4.9c-8.7,1.7 -17.5,2.6 -26.3,2.6l-3,0l0,3.4l0.1,0z"/>
 </g>
</svg>