<svg width="400" height="400" xmlns="http://www.w3.org/2000/svg">
 <!-- Created with Method Draw - http://github.com/duopixel/Method-Draw/ -->

 <g>
  <title>background</title>
  <rect fill="none" id="canvas_background" height="402" width="402" y="-1" x="-1"/>
  <g display="none" overflow="visible" y="0" x="0" height="100%" width="100%" id="canvasGrid">
   <rect fill="url(#gridpattern)" stroke-width="0" y="0" x="0" height="100%" width="100%"/>
  </g>
 </g>
 <g>
  <title>Layer 1</title>
  <!-- generated by https://loading.io/ -->
  <g stroke="null" id="svg_11">
   <g stroke="null" id="svg_4" transform="matrix(3.813496852595524,0,0,3.813496852595524,-40.36694213440569,-49.25276870912967) " class="ldl-scale">
    <path stroke="null" id="svg_5" d="m71.015823,61.759095c0,-5.4 3.8,-9.9 8.8,-11c0.2,-0.6 1.2,-1.4 1.2,-2.3c0,-1.7 -1.3,-3.3 -1.9,-4.4c-0.5,-0.8 -2.5,-0.3 -2.5,-1.3c0,-0.3 0.8,-0.2 0.8,-0.9c-0.2,-1 -0.6,-0.5 -1.1,-0.6c-0.5,-0.1 -0.5,-0.4 -0.8,-0.5c-0.1,2.5 -2.1,4.5 -4.7,4.5s-4.7,-2.1 -4.7,-4.7c0,-0.8 0.2,-1.5 0.6,-2.2l-0.2,0c-0.5,-0.1 -0.8,-0.3 -0.9,-0.4c-0.3,-0.4 -3,-0.2 -3.3,-0.4c-0.8,-0.7 -0.2,-1.6 -1.9,-1.8c-0.1,0 -0.1,1.2 -0.4,1.2l-3.2,0c-6.3,-0.1 -12.6,-0.7 -18.8,-1.7c-2.6,-0.4 -5.2,-1 -7.8,-1.5c-1.3,-0.3 -2.7,-0.6 -4,-0.9c-0.7,-0.2 -3.6,-1.5 -4.3,-1.2c-0.6,0.3 0.1,1 -0.5,1.5c-0.4,0.3 -1,0 -1.6,-0.3c-0.6,-0.4 -2.3,-1.1 -1.3,0.6c0.4,0.7 0.1,2.2 0.2,2.8c0.3,-0.1 0.7,-0.1 1,-0.1c2.4,0 4.4,2 4.4,4.4s-2,4.4 -4.4,4.4c-1.6,0 -3,-0.9 -3.8,-2.2c-0.1,0.2 -0.2,0.3 -0.3,0.5c-0.7,1.2 -0.2,2.5 -0.6,3.8c-0.5,1.4 -0.9,1.6 -1,2.9c-0.1,1.7 0.2,3.3 0.6,4.9c0.2,0.8 0.8,1.9 0.9,2.8c0,0.4 0,1 0.2,1.8c0.2,0.9 0.7,1.2 0.9,2c0.1,0.5 -0.6,1.4 0.1,2c0.7,0.6 2.1,1 2.6,1.4c0.3,0.2 1.7,1.1 1.9,1.4c0.8,1 -0.3,2 1.3,2.3c0.7,0.1 1.6,0.1 2.3,0.3c0.8,0.2 0.7,0.4 1,0.6c3.2,1.6 10,4.5 11.8,4.2c1.8,-0.3 2,-1 2.9,-0.5c0.6,0.3 2.2,2.3 2.6,2.9c0.6,1.1 1,3.6 2.8,3.6c1.5,0 1.5,-2.7 3.8,-1.3c1.2,0.7 1.1,2.8 2,3.4c1.2,0.7 1.1,2.8 2,3.8c0.9,1 1.5,0.7 2,1c0.6,0.3 0.9,0.7 1.5,0.6c0.5,-0.1 0.4,-1.1 0.2,-1.8c-0.2,-0.9 -0.1,-1.8 0.2,-2.6c0.3,-0.8 3.6,-2.7 5.3,-3.5c1.9,-0.9 4.9,0.2 5.7,0.3c0.8,0.1 3.1,0.7 3.7,0.3c0.6,-0.3 0.3,-1.2 0.2,-1.3c-0.1,-0.4 0.3,-1.1 0.4,-1.4c0.1,-0.3 1.2,-0.4 1.8,-0.2c1.4,0.3 3.3,-1 5.3,0.8c0.8,0.7 1.6,-0.6 2.1,-1.2s3.5,2 3.1,3.3c-0.7,2.1 2.4,3.9 3,5.3c1.2,-0.9 0.7,1.6 1.7,1.2c1,-0.4 1.5,-0.9 1.6,-1.9c0.3,-3.4 -2.4,-5.7 -3.6,-8.4c-0.7,-1.5 -0.7,-2.8 -0.1,-4.2c-1.6,0.8 -3.4,1.3 -5.3,1.3c-6.4,-0.1 -11.5,-5.1 -11.5,-11.4zm4.5,-16.8s0,-0.1 0,0zm-48.2,22.1c-4.6,0 -8.4,-3.8 -8.4,-8.4c0,-4.6 3.8,-8.4 8.4,-8.4s8.4,3.8 8.4,8.4c0,4.6 -3.8,8.4 -8.4,8.4zm66.3,-37.6c-2.3,0 -4.3,-1.9 -4.3,-4.3c0,-2.3 1.9,-4.3 4.3,-4.3c2.3,0 4.3,1.9 4.3,4.3s-1.9,4.3 -4.3,4.3zm13.3,15.2c-2.2,0 -4.1,-1.8 -4.1,-4.1c0,-2.2 1.8,-4.1 4.1,-4.1s4.1,1.8 4.1,4.1s-1.8,4.1 -4.1,4.1z" fill="#000000"/>
    <path stroke="null" id="svg_6" d="m103.615823,39.159095c-1.4,-1.1 -1.3,-2.1 -2.2,-3.1c-1.1,-1.3 -3,-0.5 -3.6,1.4c-0.5,1.4 -0.2,1.9 -1.2,2.7s-2.7,1.1 -4.2,1.4c-1.5,0.3 -2.2,2.2 -2.4,3.1c-0.2,0.8 -0.9,1.5 -1.3,1.6c-0.5,0.2 -1.3,-0.2 -1.9,0.2c-1.4,0.7 -0.4,1.1 -0.4,1.5c0,1.1 -1.9,1.9 -2.8,2.4c0,0 -0.1,0 -0.1,0.1c5.7,0.6 10.2,5.4 10.2,11.3c0,1.2 -0.2,2.3 -0.5,3.3c0.2,-0.1 0.3,-0.3 0.5,-0.4c0.5,-0.4 1.8,-2.4 1.7,-3.3c-0.1,-0.6 -0.4,-0.7 -0.6,-2.1c-0.2,-1.4 0.1,-2.6 0.3,-3.6c0.3,-1.2 -0.1,-3.1 0.6,-4.5c0.7,-1.3 2.9,-0.5 3.5,-2.9c0.6,-2.4 1.1,-5.5 2.2,-5.9c1.1,-0.2 3.6,-2.1 2.2,-3.2z" fill="#000000"/>
    <circle stroke="null" id="svg_7" cx="32.015823" cy="104.259095" r="3" fill="#000000"/>
    <circle stroke="null" id="svg_8" cx="44.015823" cy="104.259095" r="5" fill="#000000"/>
    <ellipse stroke="null" id="svg_9" cx="60.015823" cy="104.259095" rx="7" ry="6.7" fill="#000000"/>
    <circle stroke="null" id="svg_10" cx="80.015823" cy="104.259095" r="9" fill="#000000"/>
    <metadata fill="#000000" stroke="null" transform="translate(1.0489060878753662,1.0489060878753662) translate(-3.9333977699279785,-0.7866795659065247) translate(-138.51560974121094,-73.82811737060547) translate(150.41592407226562,0) translate(0,96.02498626708984) ">bubble mapbubble map,dorling cartogram,area map,us map,atlas,statistics,visualization,visualizebyxp21mq</metadata>
   </g>
  </g>
 </g>
</svg>